<svg xmlns="http://www.w3.org/2000/svg" viewBox="0 0 576 514.72"><defs><style>.cls-1{fill:none;}.cls-2{fill:#f6f6f6;}.cls-3,.cls-4{fill:#2d2c42;}.cls-3{opacity:0.25;}</style></defs><g id="Layer_2" data-name="Layer 2"><g id="Layer_3" data-name="Layer 3"><path class="cls-1" d="M50.3,160.13a25.74,25.74,0,0,1,8.87-2.77,4.5,4.5,0,0,1,8.92.48,26.14,26.14,0,0,1,8.37,3.61,4.29,4.29,0,0,1,2.43-.76,4.7,4.7,0,0,1,4.54,4.84,5.22,5.22,0,0,1-.39,2,29.44,29.44,0,0,1,4.83,9.08,4.73,4.73,0,0,1,4.2,4.83,4.88,4.88,0,0,1-2.37,4.24l8.09,40.76A24,24,0,0,1,105.28,216c-.29-.54-.54-1.11-.78-1.66a15.38,15.38,0,0,1-1.1-3.65c-.18-1.12-.52-2.2-.67-3.33a9.33,9.33,0,0,1-.21-2,6,6,0,0,1,.21-1h0a4.54,4.54,0,0,1-1.14-1,20,20,0,0,1-1.15-1.82,10.15,10.15,0,0,1-1.21-2.16,12,12,0,0,1-.41-2.07,11,11,0,0,1,.39-5.37,12.71,12.71,0,0,1,2.51-4.09,30.42,30.42,0,0,1,3.77-2.7c1.2-.89,2.49-1.63,3.62-2.62a10.05,10.05,0,0,0,1.52-1.41c-.08,0,0-.42.07-.63s.14-.61.23-.92l0-.07a2.68,2.68,0,0,1-.58-.36,2.62,2.62,0,0,1-.9-1.81l-.82-11a2.71,2.71,0,0,1,.37-1.58c-1.86-7-4.2-10.4-5.2-17.39-.17-1.16-.32-2.25-.47-3.32-.2-1.4-.39-2.73-.56-4-2.64-19.41-2.06-20.46-1.67-21.16h0c6.49-11.61,29.34-30,40-38.17A8.27,8.27,0,0,1,141,79a7.38,7.38,0,0,1,4.84-7c.41-3,.67-7.67.8-8.84a12,12,0,0,0-4.31,1.38V63.17h0a1.52,1.52,0,0,1,0-3h0V58.82a11.93,11.93,0,0,0,2.53,1,12.21,12.21,0,0,0,1.78.36l-.06-.36a14.06,14.06,0,0,0-1.23-4.23h1.22a1.43,1.43,0,1,1,2.85,0h1.27a14.08,14.08,0,0,0-1.24,4.23c0,.12,0,.24-.05.36a12.21,12.21,0,0,0,1.78-.36,12.37,12.37,0,0,0,2.53-1v1.32a1.52,1.52,0,0,1,0,3v1.35a12.15,12.15,0,0,0-4.31-1.38c.12,1.17.39,5.93.81,8.91a7.38,7.38,0,0,1,4.66,7,8.49,8.49,0,0,1-.09,1.14c19,14.18,36.61,39.19,37.42,40.35a2.72,2.72,0,0,1,.46,1.84c-1.05,9.57-6.26,34.2-7.41,42.3l.4.32a2.65,2.65,0,0,1,1,2.2L186,177.52l0,0a21.35,21.35,0,0,0,.8,2.65,20.15,20.15,0,0,0,1.78,2,12,12,0,0,1,2.61,5.06,11.26,11.26,0,0,1,.14,3.12c0,.49,0,1-.1,1.47,0,.1,0,.21,0,.31q.41.15.81.33a8.05,8.05,0,0,1,1.64.93,7.23,7.23,0,0,1,2.47,2.32,5.46,5.46,0,0,1,.33,1.7c.06.5.2,1,.26,1.49a11.55,11.55,0,0,1-.15,3.42,21.3,21.3,0,0,1-.88,3.54,9.06,9.06,0,0,1-1.36,2.28c3.59,2.24,7.43,4.24,10.28,7.29s3.51,5.87,4.94,9.42,5.83,5.12,9.05,7.21c6.31,4.1,13.79,8.67,18.45,14.69,2.48,3.2,2.4,6.91,4.29,10.24,1.8,3.17,6,5.32,8.5,8,10.79,11.51,19.26,28.25,19.45,44.08.1,8.2,5.46,16,7.88,23.73,1.07,3.42,2,6.88,2.79,10.37V332.16h.4c-1-51.64-8.41-100.09-22.1-144.1-11.44-36.77-27.25-70.55-47-100.42C187,51,160.87,27,147.38,17.13c-13.48,10.64-39.71,36-64.06,73.45a403,403,0,0,0-35.25,67.86A4.56,4.56,0,0,1,50.3,160.13Z"/><path class="cls-1" d="M42.13,282c3.37-7.14,8.13-12.75,13-18.87,2.64-3.32,3.51-7.48,6-10.88a29.21,29.21,0,0,1,8.1-7.16c5.78-3.67,14.55-6.24,17-13.34a5.05,5.05,0,0,1,.88-1.57L81.77,203.3a5,5,0,0,0-.17-.86l-3.2-16.12a11.32,11.32,0,0,0-.76,4.94,17.25,17.25,0,0,1,.64,5.8c-.43,6.78-3.63,11.64-8.09,14.48a4.8,4.8,0,0,1,.13,1.14,4.7,4.7,0,0,1-4.54,4.84,4.56,4.56,0,0,1-4.23-3.1c-.37,0-.75.05-1.13.06s-.78.22-1.17.32a26.47,26.47,0,0,1-3.57-.68,23.63,23.63,0,0,1-3.34-.91,4.5,4.5,0,0,1-4,2.49,4.7,4.7,0,0,1-4.54-4.85,5.06,5.06,0,0,1,.83-2.79,28.67,28.67,0,0,1-5.48-6.82,3.84,3.84,0,0,1-.83.09,4.55,4.55,0,0,1-4.21-3.07c-12.9,43.44-19.66,90.46-20.09,139.88l.06,1.05v77.05c.3-1.13.59-2.27.91-3.4,6.45-35.23,12.7-70.51,19.51-105.68C36.21,298.51,38.35,290,42.13,282Z"/><path class="cls-2" d="M145.13,220.81h0Z"/><path class="cls-2" d="M143.93,221.43a2.1,2.1,0,0,1,.37-.36h0A2.1,2.1,0,0,0,143.93,221.43Z"/><path class="cls-1" d="M278.27,435.56q-.48-13.8-1-27.59c-.05-.17-.09-.32-.13-.48a42.75,42.75,0,0,1-.95-7.49c-.3-4.49-.63-9-1.09-13.44-.24-2.38-.31-3.42-.73-5.74s-.63-4.79-.84-7.21A123.09,123.09,0,0,0,271.91,361c-.78-4.27-1.48-8.62-2.54-12.83-.54-2.11-.95-4.27-1.53-6.37s-1.35-3.9-1.92-5.89a62.16,62.16,0,0,1-1.65-6.62c-.32-1.89-.52-3.78-1-5.64a46.11,46.11,0,0,1-2.79-8.06c-.12-.26-.26-.53-.39-.77s-.11-.2-.13-.25l-.08-.1a3,3,0,0,1-.36-.25h0a7.71,7.71,0,0,1-2.14-.5q-3.3.15-6.59.24a78.62,78.62,0,0,1-10.85.3c-10.8-.47-21.46.35-32.26-1.1-10.57-1.42-21-3.91-31.55-5.47l-.74-.11a16.58,16.58,0,0,1-2.52,10,14.06,14.06,0,0,1-2.55,3,2.94,2.94,0,0,1-.31.22c15.75,6.13,28.7,18.24,40.78,29.92A59.78,59.78,0,0,1,222.21,346c6-1.71,12.53-1.86,18.69-1.75.58,0,.63.83.13,1a143.17,143.17,0,0,0-21.09,10.92c2.89,0,5.76,0,8.56.18a107.27,107.27,0,0,1,14.48,2c5.11,1.05,9.7,3.42,14.69,4.71.82.21.47,1.49-.34,1.32-5-1.05-10.67-.59-15.77-.89-4.6-.27-9.23-.39-13.83-.45-3.43,0-6.86-.17-10.28-.16,10.37,6.7,18.56,16.81,24.62,27.93a132.69,132.69,0,0,1,6,12.69,173.08,173.08,0,0,1,6.3,18.21q.75,2.6,1.43,5.22c3.65,14,6,28.38,8,42.37,1.49,10.48,2.62,21,3.5,31.58h13.48q-.42-10.24-.83-20.5C279.37,465.49,278.78,450.52,278.27,435.56Z"/><path class="cls-1" d="M248.9,442.37c-4-17-9.67-33.73-18-48.51a73.85,73.85,0,0,0-21.26-24.35,47,47,0,0,0-4.35-3.51,24.39,24.39,0,0,0-2.88-1.7,95,95,0,0,1,10.1,16.3,183,183,0,0,1,14.13,37.65c1.13,3.63,2.13,7.32,3,11.1a254.91,254.91,0,0,1,5,38.67c.67,11,1.63,22,2.59,32.93h20.76c-1-10.89-2.23-21.75-4-32.56C252.61,459.79,251,451.05,248.9,442.37Z"/><path class="cls-2" d="M150.59,226.67l.07,0,1.47-2.22-1.47,2.22Z"/><path class="cls-1" d="M85.94,435.45c-15.67,19.15-34.68,34.23-53.54,50-.83.7-2-.43-1.21-1.21,17-16.87,30.76-37.14,44.65-56.62,7-9.82,13.71-19.91,20-30.19,3.09-5,6.06-10.17,9.41-15a62.89,62.89,0,0,1,4.94-6.33,33.59,33.59,0,0,1,4.32-3.8,17,17,0,0,1-3.77-.49,8,8,0,0,1-6.26,0,5.4,5.4,0,0,1-2.81-2.6,5.81,5.81,0,0,1-.59-3.3,8.17,8.17,0,0,1-.11-1.35c0-.12,0-.22,0-.3a12.72,12.72,0,0,1,0-2.9c0-.37.08-.73.14-1.07h0a1.59,1.59,0,0,1-.72-.86,7.54,7.54,0,0,1-.65-1.19,19.7,19.7,0,0,1-1.4,1.59q-3.69,3.81-7.49,7.51c-5,4.93-10.11,9.86-15.36,14.55A161.93,161.93,0,0,1,58.72,395c-5.85,4-12.11,6.69-18.31,9.94-.58.31-1.28-.51-.73-1,5.14-4.69,9.73-10,14.93-14.61s10.5-9.34,15.87-13.86,10.73-9.15,15.85-14q3.83-3.64,7.58-7.42a22.09,22.09,0,0,1,5.56-4,3.55,3.55,0,0,1-.09-.47,7.28,7.28,0,0,1-1.15-1.94c-1-2.6-.28-6,0-6.95a2.45,2.45,0,0,1,.08-.29l-.07-.08c-1.83-2.12-1.86-4.38-1.74-6.51a20.27,20.27,0,0,1,.58-3.49l.13-.55c.15-.63.3-1.29.49-1.92.76-2.47,3-4.86,5.81-4.68a11.6,11.6,0,0,1,1.79.25l.35.09-1.13-5.67-.59-3-.5-2.53c-4.08.61-8.17,1.12-12.22,1.46-6.26.53-12.56.63-18.85.62l-5.28,0-6,0a102,102,0,0,1-15.49-1.43c-.21,0-.41-.06-.62-.07q-1.52,5.07-2.89,10.18c-.66,3.12-1.25,6.27-2,9.37-2,11-4.4,21.91-6.09,33-1.19,7.78-2.32,15.54-3.77,23.28-1.41,7.5-2.71,15-3.76,22.6s-1.15,15.24-2.06,22.84c-.19,1.63-.34,3.29-.63,4.91s-.36,3.44-.53,5.16q-1.2,11.73-2.36,23.46Q19.2,484.27,17.5,501H77.7q4-12.46,7.87-25c7-22.7,13.52-45.58,20.8-68.18A342.82,342.82,0,0,1,85.94,435.45Z"/><path class="cls-1" d="M142.37,451.13,152.26,501h35l2.12-49.36A229.33,229.33,0,0,1,142.37,451.13Z"/><path class="cls-1" d="M133.42,464.15a1.18,1.18,0,0,1-.08-1l-2.72-13.73c-1.06-.18-2.12-.34-3.17-.54a3.74,3.74,0,0,1-1-.33c-4,17.44-7.83,34.94-12,52.36h26.34l-7.27-36.64A1.14,1.14,0,0,1,133.42,464.15Z"/><path class="cls-1" d="M124.28,417.5l-4.38-22Q117.47,403.25,115,411c-9.55,29.9-18.6,60-28.16,89.92h18.74c6-25.36,11.33-50.92,17.06-76.34C123.16,422.24,123.73,419.87,124.28,417.5Z"/><path class="cls-2" d="M147.86,223.3l-2.07-2.42,2.07,2.42a1,1,0,0,0,.43.26A1,1,0,0,1,147.86,223.3Z"/><path class="cls-2" d="M153.16,220.82h0Z"/><path class="cls-2" d="M172.87,227.58l0,0C172.75,227.33,172.75,227.35,172.87,227.58Z"/><path class="cls-2" d="M165.43,246.5a.36.36,0,0,1,0,.09l0-.07Z"/><path class="cls-1" d="M95.63,273.15l-5.5-27.74c-1.92,1.33-3.89,2.6-6,3.78-3.76,2.13-7.61,3.15-10.63,6.49A10.42,10.42,0,0,0,70.88,260,22.63,22.63,0,0,1,85,264.48Q90.45,268.62,95.63,273.15Z"/><path class="cls-1" d="M116.9,322.73l.19.94c1.18-1.25,2.4-2.48,3.63-3.7,2.1-2.11,3.93-5,6.34-6.74a14.47,14.47,0,0,1-.13-3.79s0-.16,0-.32a2,2,0,0,1,.13-.64c0-.18.09-.38.15-.58l-2.53.51c-3.39.89-6.8,1.61-10.23,2.19l2.08,10.45A1.18,1.18,0,0,1,116.9,322.73Z"/><path class="cls-1" d="M125,325.68l.24.24a4.35,4.35,0,0,0,.73.51l.22.14c.23.15.46.3.7.44a18.12,18.12,0,0,1,2,1.32l.07.06a41.11,41.11,0,0,1,2.18-6.45,19.3,19.3,0,0,1-1.23-1.73,38.86,38.86,0,0,1-5.17,4.24l-.58.41A5.66,5.66,0,0,1,125,325.68Z"/><path class="cls-1" d="M68.46,264.32c-4.2,4.07-7.65,9.44-10.47,14.68-3.63,6.74-6.46,13.9-9.77,20.78A338.08,338.08,0,0,0,85,303.14h.13a162.77,162.77,0,0,0,16.39-.4l-3.37-17c-5.53-4.57-10.94-9.33-16.48-13.88A68.47,68.47,0,0,0,69,263.8Z"/><path class="cls-1" d="M113.84,258.88h-.58l-.14.65-.24,1.59a16.5,16.5,0,0,0-6.36-2.3l-.71-.1,0,.82a30.84,30.84,0,0,0,.3,8.41l0,0,1.95,9.85,1.4,7,.6.43a58.76,58.76,0,0,0,13.81,7.17c4,1.38,8.15,2.51,12.18,3.63l.78.22c-5.21-5.7-8.17-12.87-11-20q-4-9.9-7.08-20.15c-3.69-12.28-8-27.31-4.81-40.27-12.35,8.2-13.76,22-13.76,22l3.19,16.11,0-.29a30.56,30.56,0,0,0-.59-8.45h1.87l.08-.67a2.67,2.67,0,0,1,2.22-2.39h0a1.18,1.18,0,0,1,1,.51,2.17,2.17,0,0,1,.31,1.61l-.14.92,1.68,0a36.55,36.55,0,0,0-3,8.18l-.27,1.12,1-.13a21.36,21.36,0,0,0,6.8-2.16l-.31,2.06h.82a1.2,1.2,0,0,1,1,.51,2.19,2.19,0,0,1,.31,1.6A2.66,2.66,0,0,1,113.84,258.88Z"/><path class="cls-1" d="M138.21,242.53a1.7,1.7,0,0,1,.64-.13,1.86,1.86,0,0,1,1.76,1.42,1.77,1.77,0,0,1,1.08-.38,1.85,1.85,0,0,1,1.7,1.21,1.79,1.79,0,0,1,1.31-.59,1.81,1.81,0,0,1,1.59,1,1.81,1.81,0,0,1,1.56-.93,1.79,1.79,0,0,1,1.51.84,1.81,1.81,0,0,1,1.62-1,1.75,1.75,0,0,1,1.16.45,1.82,1.82,0,0,1,1.6-1,1.78,1.78,0,0,1,1.32.6,1.83,1.83,0,0,1,1.69-1.21,1.71,1.71,0,0,1,1.08.38,1.87,1.87,0,0,1,1.77-1.42,1.78,1.78,0,0,1,.82.21,1.92,1.92,0,0,1,1.32-1.75l-4.44-3s-1.76-2.56-2.77-4h-11c-1,1.43-2.7,4-2.7,4l-4.63,3.17a1.91,1.91,0,0,1,1.78,1.94A2,2,0,0,1,138.21,242.53Zm16.85-7.11L152.21,240a5.25,5.25,0,0,0-5.78.26,12.13,12.13,0,0,0-3.61-4.62A20.33,20.33,0,0,0,155.06,235.42Z"/><path class="cls-1" d="M138.22,165.72a199.58,199.58,0,0,0-22.44,2.78c0,1.82,0,3.63.19,5.44,10.66-1.34,38.11-4.24,57.72-1.35.92.08,1.83.16,2.75.2a23.28,23.28,0,0,1,2.63.31c0-.24.09-.49.13-.73a7.66,7.66,0,0,0-.41-4.22c-1.07-.17-2.12-.33-3.19-.54a67,67,0,0,0-7.18-1c-4.52-.41-9-1.05-13.57-1.27l-1.34,0c-3.21,0-6.41,0-9.62.12-.78,0-1.56.07-2.34.12C140.44,165.62,139.33,165.67,138.22,165.72Z"/><path class="cls-1" d="M108.27,122.92c.52,11.13,1.62,10,3.42,21.06,1,6,2.25,12,3.51,18,.07.32.11.64.16.95a205.69,205.69,0,0,1,22.46-2.71V94.88C127,103.21,116.65,112.12,108.27,122.92Z"/><path class="cls-1" d="M179.67,149.36c1.77-12.22,4.37-12.48,3.84-24.88A172.79,172.79,0,0,0,157.62,95v64.81q10,.32,20,1.61C177.83,157.41,179.17,152.89,179.67,149.36Z"/><path class="cls-1" d="M133.28,270c.31.8.61,1.61.92,2.41,1.12,2.84,2.26,5.75,3.6,8.54,6.17-7.3,19.51-9.47,26-2,.53-1.44,1-2.88,1.54-4.3.67-1.87,1.32-3.74,1.95-5.63A71,71,0,0,1,133.28,270Z"/><path class="cls-1" d="M170.65,258.11c.26-.89.52-1.79.77-2.69.9-3.25,1.86-6.72,2.72-10.28.49-4.08.77-8.2.89-12.44a33.12,33.12,0,0,0-.6-6.93l-.33.58a7.64,7.64,0,0,1-1.14,1.41,2.9,2.9,0,0,1,.25.57,3.33,3.33,0,0,1,.16.6,4.18,4.18,0,0,1-.25,2.19c-.24.65-.74,1.09-1,1.7a5.62,5.62,0,0,0-.14,1.66c-.09.77-.38,1.48-.46,2.24a12.19,12.19,0,0,0,.14,2.41,8,8,0,0,1-.55,4.15c-.23.58-.28,1.18-.49,1.77a7.37,7.37,0,0,1-1,1.66,29.94,29.94,0,0,1-2.23,3.12c-.22.26-.45.51-.69.76l-1.06,1.22a18,18,0,0,1-2.94,2.64,37.41,37.41,0,0,1-3.57,2.09,16.52,16.52,0,0,1-3.4,1.48,22,22,0,0,1-7.66,1.09c-.32,0-.65,0-1,0a20,20,0,0,1-7.72-1.75,24.91,24.91,0,0,1-6.69-4.21,23.05,23.05,0,0,1-2.37-2.37q-.27-.33-.54-.69a17.16,17.16,0,0,1-1.48-1.79,12.43,12.43,0,0,1-2.14-3.58,15.16,15.16,0,0,0-.39-1.47,7.32,7.32,0,0,1-.57-1.9,24.94,24.94,0,0,1,.17-3.86c0-1.34-.52-2.56-.51-3.91,0-.71-.15-.84-.55-1.41a5.55,5.55,0,0,1-.5-1c0,.49,0,1,0,1.47.09,3.22.28,6.37.57,9.48,1,4,2.19,7.91,3.27,11.5.55,1.82,1.13,3.64,1.72,5.45a62.54,62.54,0,0,0,40.13-.75A5.42,5.42,0,0,1,170.65,258.11Z"/><path class="cls-2" d="M154.8,217.38a3.9,3.9,0,0,1,.4.51,2.75,2.75,0,0,1,.31.59,2.75,2.75,0,0,0-.31-.59A3.9,3.9,0,0,0,154.8,217.38Z"/><path class="cls-1" d="M175.9,209.85l.32-.24a.12.12,0,0,1,.16,0,3.92,3.92,0,0,0,.32-.25,9.75,9.75,0,0,0,1-.94c.22-.24.44-.49.65-.75a.17.17,0,0,1,0-.07c.07-.39.19-.76.29-1.13a.31.31,0,0,0,0-.08c-.08-.13-.17-.24-.25-.37a4.38,4.38,0,0,1-.77-2.41,3.06,3.06,0,0,1-.53-.38,2.66,2.66,0,0,1-.82-2.4v0a3.89,3.89,0,0,1-.26-.7c-.1-.39-.09-.8-.17-1.18a3.35,3.35,0,0,0-1.13-1.76c-1.08-1.06-2.48-1.73-3.63-2.72a7.07,7.07,0,0,1-1.52-1.7l-.17-.34-.78.11a19.89,19.89,0,0,0-2.55.4,20.78,20.78,0,0,0-4.12,2,14.69,14.69,0,0,1-4.86,1.63,6.88,6.88,0,0,1-.9,0c0,.09,0,.19,0,.28l1-.18a13.84,13.84,0,0,1,3.15-.2,11.78,11.78,0,0,1,2.7.49,7.28,7.28,0,0,1,1.61.44,14.89,14.89,0,0,1,1.63,1c.64.38,1.24,0,1.9.17.21,0,.22.36.05.48a4,4,0,0,1-.74.39,6.44,6.44,0,0,1-2.32.82,5.94,5.94,0,0,1-1,0v0a3.16,3.16,0,0,1-.92,1.49,2.27,2.27,0,0,1-.79.49h3c-4,2.57-8.05,0-8.05,0h3.1a2.3,2.3,0,0,1-.94-.36,2.6,2.6,0,0,1-1-1.78c-.23,0-.47.08-.7.14a11,11,0,0,0-1.68.55l-.7.34c0,.26-.09.53-.14.8l.37.29q.73.58,1.53,1.11a13,13,0,0,0,1.76,1c.28.12.57.25.87.36a4.16,4.16,0,0,1,.75.48s0,.06,0,.07a1.77,1.77,0,0,1-.93.35,5.12,5.12,0,0,1-1.17-.13,8.58,8.58,0,0,1-2.11-.91,15.18,15.18,0,0,1-1.35-.91c-.79,4.68-1.59,9.48-1.59,9.77,0,.11-.06-.46-.16-1.45a5.71,5.71,0,0,0,0,.93s0,0,0,0a22.81,22.81,0,0,0-.83-2.36,16.78,16.78,0,0,1-.56-2.43,44.42,44.42,0,0,1-.57-4.74c-.12-1.64-.17-3.28-.18-4.92a32.29,32.29,0,0,1,.17-4.92.72.72,0,0,1,.74-.65,1.67,1.67,0,0,1,.44-.31,4.57,4.57,0,0,1,2.46-.14c3,.52,5.42-1.48,8.24-2.2a5,5,0,0,1,2.38-.26c.65.16,1.3.4,1.94.62.48.16.94.34,1.41.51a2,2,0,0,0-.1-.21c-.61-1.18-.83-2.27-2.14-2.76s-2.79-1.15-4.16-1.82a9.94,9.94,0,0,1-3.74-2.58,15.72,15.72,0,0,1-2.07-4,16.85,16.85,0,0,1-1-3.28c-2,0-4,0-6,0a1.34,1.34,0,0,1-.37.1c-.75.06-1.51,0-2.26.09s-1.6.35-2.39.38h-.15a.06.06,0,0,1,0,0c-.21.27-.4.63-.59.92a16.51,16.51,0,0,1-1.19,1.73c-.48.55-1.09,1-1.62,1.49a6.77,6.77,0,0,1-1.85,1.31c-.43.21-.66.58-1.08.83-.61.36-1.32.59-2,.91s-1.46.78-2.2,1.16a13.1,13.1,0,0,1-3.3,1.11c-.28.13-.55.26-.83.37-.76.32-1.53.57-2.29.89-.39.17-.77.38-1.16.55-.17.46-.33.91-.48,1.38-.2.64-.3,1.3-.47,1.94,1.37-.42,2.7-1,4.07-1.43a4.92,4.92,0,0,1,2.16-.38,9.5,9.5,0,0,1,2.33.65,41.26,41.26,0,0,0,4.51,1.76c1.37.39,2.64,0,4,0a2.23,2.23,0,0,1,2.21,1.29,1.88,1.88,0,0,1,.13,1.23c-.3,1-1.83,1.11-2.62,1.38-3.14,1.06-6.36-.48-9.15-1.95a14.63,14.63,0,0,0-1.9-1.13,15.25,15.25,0,0,0-1.84-.51c-.71-.16-1.45-.16-2.17-.27a10.23,10.23,0,0,0-1.91-.13.65.65,0,0,1,0,.13,42.59,42.59,0,0,1-2.26,4.72,10.59,10.59,0,0,1-1.47,2.37,10.72,10.72,0,0,1-2.41,1.62,23.78,23.78,0,0,1-2.35,1.23,11.82,11.82,0,0,1,.31,1.24,15.28,15.28,0,0,0,.38,1.81c0,.18.11.37.17.55a7.58,7.58,0,0,0,.5,1.38,6.16,6.16,0,0,0,.33.55s.3.29.15.18a3,3,0,0,0,1.06.52,12.51,12.51,0,0,1,1.49.69,18.33,18.33,0,0,1-.06-2.68c0-.93.16-1.87.28-2.8.06-.45.12-.91.22-1.36s.36-1,.22-1.34a.18.18,0,0,1,.29-.18,4.09,4.09,0,0,1,.55,1.91c.16.92.22,1.86.33,2.79a25.11,25.11,0,0,0,1.23,5.78c1.21,3.27,2.77,6.77,5.3,9.09a3.94,3.94,0,0,1,1.36,2.48,9.8,9.8,0,0,0,.16,1.8c.59,2,.91,4.07,1.35,6.1.13.57.25,1.15.36,1.73a17.64,17.64,0,0,0,2.41-1,21,21,0,0,1,13.38-3.27l-2.1,1.88a5.11,5.11,0,0,0,5.1,0l-2.15-1.89a21.89,21.89,0,0,1,13.69,3.27,17.05,17.05,0,0,0,2,.85c0-.45.08-.91.13-1.37.2-1.59.66-3.1,1-4.65.15-.71.36-1.39.53-2.09a7.7,7.7,0,0,1,.39-2c1.44-2.78,4.3-4.41,5.43-7.41.54-1.43.92-2.9,1.35-4.37a41.88,41.88,0,0,0,1.53-5c0-.09.14-.06.15,0a33.24,33.24,0,0,1,0,4.35A1.59,1.59,0,0,1,175.9,209.85Zm-35.4-8.63a14.73,14.73,0,0,1-1.51-.59c-.48-.17-1-.3-1.47-.43a.83.83,0,0,1,0,.15,3.16,3.16,0,0,1-.92,1.49,2.18,2.18,0,0,1-.79.49h3.11a1.19,1.19,0,0,1-.15.09c.23,0,.45,0,.68.05.05,0,.05.09,0,.09-.38,0-.57.42-.73.7s-.31.56-.5.82a5.29,5.29,0,0,1-1.35,1.32,4.94,4.94,0,0,1-1.76.5,12.44,12.44,0,0,1-1.71.28c-.13,0-.15-.2,0-.23a4.28,4.28,0,0,0,1.7-.76c.22-.19.39-.42.61-.63a5.89,5.89,0,0,1,.65-.57c.36-.29.7-.61,1.06-.9a8.26,8.26,0,0,1-6.51-.76h3a2.36,2.36,0,0,1-.94-.36,2.72,2.72,0,0,1-1.09-2.12s0-.1,0-.15h-.52a29.71,29.71,0,0,0-3.13.19.15.15,0,0,1-.12-.28l.28-.19h0a.94.94,0,0,0-.15.06s-.09,0-.05-.06a.8.8,0,0,0,.15-.17h0a6.58,6.58,0,0,1,.42-.61,5.7,5.7,0,0,1,.64-.56,6.19,6.19,0,0,1,1.55-.86,10.38,10.38,0,0,1,3.57-.68,12.14,12.14,0,0,1,5.73,1.24l.28,0,.09-.06a1.89,1.89,0,0,1,.41-.18l.77-.25a4.47,4.47,0,0,1,1.45-.39.39.39,0,0,1,.25.65c-.4.5-.75,1.06-1.16,1.54-.1.11-.18.22-.27.34a10.58,10.58,0,0,0-.68,1.29A.68.68,0,0,1,140.5,201.22Zm15.82,21.47,0,.08a3.35,3.35,0,0,1-.83,1.32l-.52.89-1.65-.83-2,3-.11.17-.18.1a4.23,4.23,0,0,1-1.31.42l-.17,0h-.62l-.16,0a4.23,4.23,0,0,1-1.32-.42l-.18-.1-.11-.17-2-3a12.69,12.69,0,0,0-1.66.82l-.58-1a3.76,3.76,0,0,1-.72-1.23l0,0a5,5,0,0,1-.37-2.25,8.6,8.6,0,0,1,.43-2.27,4.52,4.52,0,0,1,1.06-1.59.86.86,0,0,1,.63-.28h0a.77.77,0,0,1,.39.11h0a6.73,6.73,0,0,0,.08,3.66,2.32,2.32,0,0,1,.8-.14,3.12,3.12,0,0,1,.76.1l.25.05.18.21,2,2.39a1.25,1.25,0,0,0,.65.14h.32a5.63,5.63,0,0,0,1.14-.25c.29-.42.93-1.35,1.46-2.16l.18-.27.3-.08a3.89,3.89,0,0,1,.85-.11,2.37,2.37,0,0,1,.81.13V220a6.52,6.52,0,0,0,.05-3.61h0a.83.83,0,0,1,.4-.11.86.86,0,0,1,.63.28,4.52,4.52,0,0,1,1.06,1.59,8.65,8.65,0,0,1,.44,2.27A5,5,0,0,1,156.32,222.69Z"/><path class="cls-2" d="M144,217.16l-.05,0,.05,0Z"/><path class="cls-1" d="M111.26,294.29l1.4,7.1a112.28,112.28,0,0,0,11.75-2.62c-1.85-.48-3.7-.95-5.53-1.5A53.07,53.07,0,0,1,111.26,294.29Z"/><path class="cls-1" d="M138.85,337.46l.1.09.28.28a41.92,41.92,0,0,0,4.15,3.79c.28.21.53.43.8.65q3.18-10.8,6.5-21.54a11.86,11.86,0,0,1-6.35,1.93Q141.5,330,138.85,337.46Z"/><path class="cls-1" d="M162.59,343.32c-1.48-3-2.64-6.21-3.9-9.28-.89-2.18-2.21-4.1-3.07-6.29q-2.79,9.67-5.35,19.42l0,0a13.91,13.91,0,0,1,7.62-3.62A24,24,0,0,1,162.59,343.32Z"/><path class="cls-1" d="M128.1,379.17l2.48,12.5q1.36-5.39,2.79-10.75a6.86,6.86,0,0,1-2.29-.37A21.81,21.81,0,0,1,128.1,379.17Z"/><path class="cls-1" d="M177.41,292.21c8.05-2.89,15.66-8.14,22-14.13A183.68,183.68,0,0,1,216,264.14c5.09-3.77,10.7-4.44,16.49-4.06-.57-1.33-.95-2.59-1.37-3.8a14.22,14.22,0,0,0-5.9-4.44c-4.9-1.76-9.92-5.24-14.24-8.4-2.46-1.8-4.77-3.77-7.17-5.65-1.38-1.09-3.41-2.1-4.39-3.73-.36-3.05-.73-5.95-.8-6.22-2.09-6.8-8.95-11.3-13.87-13.75,3.84,14-.44,30.3-4.16,43.85q-3,11-7,21.69c-2,5.49-4.14,11-7.18,16l2.93-.84a3.9,3.9,0,0,1,2-.59C173.39,293.56,175.43,292.92,177.41,292.21Zm6.7-38.39a1.5,1.5,0,0,1,1.23-.56h1L186,251a27.23,27.23,0,0,0,8.18,2.41l1.22.15-.33-1.26a37.3,37.3,0,0,0-1.33-4.12c-.37-.95-.76-1.9-1.19-2.82-.36-.74-.73-1.47-1.13-2.19l2,0-.17-1a2.33,2.33,0,0,1,.36-1.8,1.48,1.48,0,0,1,1.2-.56h0a3.08,3.08,0,0,1,2.67,2.66l.1.76h2.25c-.17.73-.31,1.46-.42,2.2a32.75,32.75,0,0,0-.29,7.24l.06.92h.05l.81-.11a20.57,20.57,0,0,0,7.65-2.57l.4,2.43h.68a3.09,3.09,0,0,1,2.64,2.65,2.32,2.32,0,0,1-.36,1.78,1.49,1.49,0,0,1-1.07.57h-.1l-1,0,.1.57.29,1.78c-.36-.17-.72-.31-1.08-.46a27,27,0,0,0-7.1-1.95l-1.22-.15.17.64.16.62a39.07,39.07,0,0,0,3.65,9.13h-2.11l.16,1a2.3,2.3,0,0,1-.38,1.77,1.45,1.45,0,0,1-1.19.56h0a3.06,3.06,0,0,1-2.66-2.63l-.13-.72h-2.13a31.64,31.64,0,0,0,.71-9.44l0-.25,0-.68-.86.12a20.76,20.76,0,0,0-6.47,2c-.39.2-.79.38-1.18.6l-.29-1.77-.06-.26-.11-.47h-.69a3.08,3.08,0,0,1-2.67-2.65A2.33,2.33,0,0,1,184.11,253.82Z"/><path class="cls-2" d="M259.6,314.25l.06,0C259.8,314.34,259.79,314.27,259.6,314.25Z"/><path class="cls-1" d="M258.27,304.31c-5-9.5-8.52-19.78-14.3-28.89a92.28,92.28,0,0,0-5.74-8.32,23.53,23.53,0,0,1-4.35-4.46,83.41,83.41,0,0,0-15.37,9.54c-5.54,4.41-10.81,9.21-16.28,13.72A59.67,59.67,0,0,1,182.48,297,258.13,258.13,0,0,0,258.27,304.31Z"/><path class="cls-1" d="M165.78,411.73c-2.9,1.68-6.39.44-9.38-1.85-4.06-3.11-3.34-8.19-2.87-12.93,0-.44-.08-.88-.1-1.31-2.92-1.59-5.31-4.74-7.7-6.89q-2.35-2.12-4.69-4.26-3.25,13.89-6.37,27.8l3.09,15.59a218.43,218.43,0,0,0,52.26,1c-4.39-1.32-8.49-4.86-12.09-7.39A104.16,104.16,0,0,1,165.78,411.73Z"/><path class="cls-1" d="M139.52,436.74l1.11,5.6a218.55,218.55,0,0,0,49.12.62l.24-5.49A228.85,228.85,0,0,1,139.52,436.74Z"/><path class="cls-1" d="M139.9,374.29c1,0,2-.3,3-.2a5,5,0,0,1,2.81,1.48c1.37,1.18,2.59,2.52,4,3.66,1.59,1.3,3.15,2.73,4.66,4.13.22.21.45.4.68.6q-.1-3.42-.19-6.85c-.07-2.37,0-4.74,0-7.12s-.17-4.68-.16-7c0-2,.1-4.05.12-6.07a1.83,1.83,0,0,1-1-.5,1.91,1.91,0,0,0-.26-.11c-.39-.13-.78-.24-1.17-.38-.94-.35-1.87-.75-2.78-1.19-1.6-.78-3.22-1.49-4.76-2.41a25.44,25.44,0,0,1-4.38-3.74c-1.3-1.26-2.61-2.46-3.87-3.76s-2.56-2.85-3.88-4.24a18.54,18.54,0,0,0-1.87-1.79,25.9,25.9,0,0,1-2-2.09c-.65-.64-1.4-1.14-2.08-1.74a24.25,24.25,0,0,0-2-1.79c-.76-.54-1.56-1-2.35-1.51-.45-.27-.87-.69-1.31-1h-.62c-1.18,0-2.36.05-3.54-.07-1.8-.17-3.57-.57-5.36-.78-.69-.09-1.37-.2-2.05-.31h-1.8c-.81,0-1.61-.07-2.41-.15l-1.14-.12c-.21,0-.48-.11-.71-.13-.42.57-.38.47-.47,1.05-.14.95-.47,1.85-.63,2.81a9.48,9.48,0,0,0-.33,2.47c.08.63.68,1.12,1.08,1.62a32.7,32.7,0,0,1,4.54.37c1.67.26,3.36.13,5,.28s3.54.63,5.31.85c.87.12,1.73.27,2.59.45s1.63.75,2.47.86c.33.05.33.6,0,.55a12,12,0,0,0-2.67.22.2.2,0,0,0-.13-.06c-2.19,0-4.32-.48-6.52-.47-2,0-4,.25-6,.22l-1.56,0-1.37.08a2.25,2.25,0,0,0-1.38.42h0l0,.06a1.74,1.74,0,0,0-.12.14A2.48,2.48,0,0,0,103,343a16.49,16.49,0,0,0,.44,2.43,3,3,0,0,0,.45.91c3.55-.27,7.44.75,11,1.43l1.07,0c.49.11,1,.24,1.47.37.32,0,.64.08,1,.1a.4.4,0,0,1,.34.21l.69.14c.31.05.2.52-.07.54-1.48.13-2.94.4-4.4.67l-3.16,0c-1,0-1.93.06-2.9.05l-.9,0c-.86.09-1.73.21-2.61.3a2,2,0,0,0-1.17,2,8.29,8.29,0,0,0,1,4,1.73,1.73,0,0,0,.45.54c1.49.08,3,.31,4.46.41l1.94.15,2.45,0,1.61.06a5.35,5.35,0,0,0,.67.24q1.33.08,2.67.12a.48.48,0,0,1,0,.95c-3.43.37-6.84.94-10.25,1.45l-1.88.32a3.49,3.49,0,0,0,0,2.32,12.47,12.47,0,0,1,.33,1.47,2.74,2.74,0,0,0,.15.51s0,.18,0,.32a1.5,1.5,0,0,0,1.75,1.34,25.34,25.34,0,0,1,3-.14,57.5,57.5,0,0,0,6.56-.3h.13c.22.06.43.13.64.21,1.56.59,2.81,2,4.27,2.86,1.73,1,3.52,1.88,5.25,2.9.81.48,1.61,1,2.46,1.38.45.21.89.41,1.33.63l0,0,.51,0C135.84,374,137.87,374.29,139.9,374.29Z"/><path class="cls-1" d="M195.22,370c-.5-.83-1-1.64-1.55-2.44a67.28,67.28,0,0,0-7.82-7.21l-.06-.05c-.94-.16-1.87-.34-2.8-.55a47.63,47.63,0,0,0-5.13-.94c-.57-.06-1.15-.13-1.71-.21a62.43,62.43,0,0,1,2.9,7.38c.8,2.7,1.74,5.43,2.32,8.19.28,1.32.55,2.65.7,4,.07.67.17,1.34.24,2,0,.15-.05,1.76-.08,1.74.18.09.07.37-.1.38H182a.21.21,0,0,1-.2-.12c-.26-.6-.85-1.11-1.17-1.69s-.64-1.22-.92-1.85c-.55-1.21-1.06-2.45-1.58-3.68-1.12-2.6-2.15-5.23-3.27-7.82-.55-1.26-1.16-2.49-1.69-3.77a31.44,31.44,0,0,0-1.3-3.6,22,22,0,0,1-1.67-3.1,2.78,2.78,0,0,1-.12-.38,27.67,27.67,0,0,0-2.38-1.47,43.21,43.21,0,0,0-5.11-2.16c-1.64-.6-3.36-.42-5.06-.68l-.15,0a14.36,14.36,0,0,1,1.79,2.16,15.84,15.84,0,0,1,2.36,5.57,77.08,77.08,0,0,1,1.65,11.41c.24,3.94,0,7.89-.07,11.84s-.25,7.75-.42,11.62a40,40,0,0,1-.43,5.14,8.42,8.42,0,0,1,1,.05c.09,0,1.15.16,1.51.27l.26,0a2.85,2.85,0,0,1,.65-.05c.41,0,.5,0,.26,0s-.15,0,.23,0l1-.15c2-.1,3.31.82,4.83,1.92q1.81,1.32,3.72,2.49c1.2.73,2.43,1.41,3.69,2.05l1.62.8,1,.46.19.08c2.54,1.1,5.1,2.16,7.71,3.05.85.29,1,.38.83.39l.2,0,.27.05.24,0,1.06.12c.63.07,1.27.13,1.9.18,1.42.11,2.84.17,4.26.2,2.83.08,5.66.11,8.49.18,2.35.05,4.71.19,7.06.17a174.85,174.85,0,0,0-9-23.32C202.13,382.29,198.84,376,195.22,370Z"/><path class="cls-1" d="M68.28,190.79a8,8,0,0,1-7.65,6.42,7.77,7.77,0,0,1-6.67-4,12,12,0,0,1-5.44.68c-.37,0-.71-.11-1.05-.18h0a16.88,16.88,0,0,0,9.82,9.88c0,.12,0-.05.07.07,4.28.83,8.8-.17,11.26-4.5a8.6,8.6,0,0,0,.79-6.89,5.44,5.44,0,0,0-.27-.54A5.14,5.14,0,0,0,68.28,190.79Z"/><path class="cls-1" d="M74,182.84a10.22,10.22,0,0,1,2.41-3.27,16,16,0,0,0-13.27-9.43c-2.27,2.5-3.91,6.71-2,9.48a13,13,0,0,1,4.22.12,13.86,13.86,0,0,1,3.8,1.17A15.44,15.44,0,0,1,73.44,184,10.46,10.46,0,0,1,74,182.84Z"/><path class="cls-1" d="M49.27,188.34a6.25,6.25,0,0,0,3.57-.7,6.81,6.81,0,0,1,.92-3.09,7.73,7.73,0,0,1,.78-1.05c.2-.25.41-.49.62-.71a8.36,8.36,0,0,1,.93-.95,12.72,12.72,0,0,1-.21-10.35,17,17,0,0,0-9.64,14.44A3.66,3.66,0,0,0,49.27,188.34Z"/><path class="cls-1" d="M196.14,352.84l-33.53-30.5-6.49-.77c3.48,5.89,17.66,27.42,17.66,27.42Z"/><path class="cls-1" d="M150.8,78.85A2.92,2.92,0,1,0,147.89,82,3,3,0,0,0,150.8,78.85Z"/><path class="cls-1" d="M159.84,314a8.22,8.22,0,1,0-7.68-8.2A8,8,0,0,0,159.84,314Zm.1-12.35a4.22,4.22,0,1,1-3.95,4.21A4.09,4.09,0,0,1,159.94,301.61Z"/><path class="cls-1" d="M159.59,292.41h0a9.38,9.38,0,0,0,.11-1.31,7.71,7.71,0,1,0-15.38,0,8.43,8.43,0,0,0,.15,1.6h0a7.59,7.59,0,0,0,15.08-.29Zm-11.51-1.31a4,4,0,1,1,3.95,4.22A4.09,4.09,0,0,1,148.08,291.1Z"/><path class="cls-1" d="M148.78,299.49h0a7.31,7.31,0,0,0-4.58-1.63,8.22,8.22,0,0,0,0,16.4,7.38,7.38,0,0,0,4.8-1.8v0a8.5,8.5,0,0,0-.22-12.94Zm-4.61,10.83a4.22,4.22,0,1,1,4-4.21A4.09,4.09,0,0,1,144.17,310.32Z"/><path class="cls-1" d="M200.75,427l-4.18,75.3h7.71l1.53-75c-1.49-.07-3-.12-4.5-.2A1.48,1.48,0,0,1,200.75,427Z"/><polygon class="cls-1" points="143 160.32 152.44 160.32 152.44 89.74 147.94 84.28 143 89.74 143 160.32"/><path class="cls-1" d="M552.78,444.13c-.17-1.72-.35-3.44-.53-5.16s-.44-3.28-.63-4.91c-.91-7.6-1-15.26-2.06-22.84s-2.35-15.1-3.76-22.6c-1.45-7.74-2.58-15.5-3.77-23.28-1.69-11.06-4.11-22-6.09-33-.74-3.1-1.33-6.25-2-9.37-.26-1-.53-1.94-.8-2.91L521,317.44a298,298,0,0,1-42.41,11.37c.08.31.15.61.22.91l.13.55a21.3,21.3,0,0,1,.58,3.49c.12,2.13.09,4.39-1.74,6.51l-.07.08a2.45,2.45,0,0,1,.08.29c.25,1,1,4.35,0,6.95a7.28,7.28,0,0,1-1.15,1.94,3.55,3.55,0,0,1-.09.47,22.09,22.09,0,0,1,5.56,4q3.75,3.76,7.58,7.42c5.12,4.89,10.46,9.5,15.85,14s10.62,9.19,15.87,13.86,9.79,9.92,14.93,14.61c.55.5-.15,1.32-.73,1-6.2-3.25-12.46-6-18.31-9.94a161.93,161.93,0,0,1-16.81-13.05c-5.25-4.69-10.31-9.62-15.36-14.55q-3.8-3.71-7.5-7.51c-.52-.54-1-1.06-1.39-1.59a6.85,6.85,0,0,1-.66,1.19,1.53,1.53,0,0,1-.71.86h0c.06.34.1.7.14,1.07a12.19,12.19,0,0,1,0,2.9c0,.08,0,.18,0,.3a8.17,8.17,0,0,1-.11,1.35,5.81,5.81,0,0,1-.59,3.3,5.4,5.4,0,0,1-2.81,2.6,8,8,0,0,1-5.94.08c-.29.73-.62,1.72-1,2.95a15.6,15.6,0,0,1,1.22,1.22l.6.69-1.89-1.67c-2.55,8.67-6.81,28.52-11,50.16l4.8,21.38c3.95,18.05,7.86,36.13,12.12,54.1h0l.05.2H498.3l.78-.2h59.4q-1.69-16.58-3.34-33.16Q554,455.86,552.78,444.13Z"/><path class="cls-1" d="M390,497.32a3.29,3.29,0,0,1-1.37.47l.13,3h28.06l10.31-49c-2.36.2-4.72.35-7.09.47C415.72,470.29,407,486.53,390,497.32Z"/><path class="cls-1" d="M449,448.79c-4.08,22.47-7.42,43.25-8.08,52h20.51c-4.11-17.36-8-34.79-11.91-52.16A2.67,2.67,0,0,1,449,448.79Z"/><path class="cls-1" d="M431.82,342.27c.26-.22.52-.44.8-.65a41.92,41.92,0,0,0,4.15-3.79l.28-.28.1-.09c-.25-.71-.52-1.42-.77-2.13a62.25,62.25,0,0,1-6.54.32C430.5,337.85,431.17,340.06,431.82,342.27Z"/><path class="cls-1" d="M418.08,343.57a14.06,14.06,0,0,1,4.59,1.48,4.83,4.83,0,0,1,2.35-.53c-.84-3.13-1.69-6.27-2.56-9.39-1.24-.18-2.48-.39-3.71-.66l-1.6,0c-1.2,2.94-2.33,6-3.74,8.87A24,24,0,0,1,418.08,343.57Z"/><path class="cls-1" d="M430.27,388.75c-2.18,2-4.36,4.73-6.94,6.41a306.47,306.47,0,0,1,0,34.29q4.33-.3,8.64-.78l6.3-29.94q-1.62-7.12-3.29-14.24Q432.62,386.64,430.27,388.75Z"/><path class="cls-1" d="M421.72,443.63q3.61-.22,7.21-.57l1.18-5.6q-3.8.36-7.61.6C422.28,439.93,422,441.78,421.72,443.63Z"/><path class="cls-1" d="M527.93,158.44a402.27,402.27,0,0,0-35.26-67.86c-24.34-37.49-50.57-62.81-64.05-73.45C415.13,27,389,51,364.75,87.64c-19.75,29.87-35.56,63.65-47,100.42-13.69,44-21.12,92.46-22.1,144.1l-3.23,75.1c.61-3.35,5.78-45.6,5.78-45.6,1-12.65,4.94-26.11,8.3-35.71a4.27,4.27,0,0,1-.29-.41l-.08.07c-2.06-3.38-2.1-8.85-1.44-13.21,0-.23.07-.46.11-.69a12,12,0,0,1,0-2.08c8.31-19.67,17.64-39.37,32.62-54.76l1.17-1.18,1.06-.18.17-.18a48,48,0,0,1,17.29-11.22,17,17,0,0,1,4.6-1c.36-3.46,2.51-7,4.12-9.81A59.35,59.35,0,0,1,375,219.22c4-4,8.66-5.23,14.21-4.68,1.35.13,3.58.17,5.73.5-.13-.49-.21-.92-.26-1.22a10.92,10.92,0,0,0-3.13-3.32l-.3-.23-2.08-12.64v-.06c.35-2.76,3.22-4.65,4.7-5.45a50.5,50.5,0,0,1-1.2-8.52,7.38,7.38,0,0,1-2.8-5.19c-.14-2.5,1.12-5.24,3.72-8.16.26-.49.54-1,.82-1.43a19.34,19.34,0,0,1,.87-2.27l.1-.19a41.06,41.06,0,0,1,70.19,0l.11.2a27.12,27.12,0,0,1,1.69,5.25c3.63,4.89,2.57,8.35,1,10.41a50.18,50.18,0,0,1-1.26,9.92c1.49.8,4.35,2.69,4.7,5.45v.06l-2.08,12.64-.31.23a10.92,10.92,0,0,0-3.13,3.32l0,.21a6.52,6.52,0,0,1,6.85-.62,25.93,25.93,0,0,1,4.64,2.67L481.3,199l2.53.62L501,203.77,498,219l-.52,2.62-2.75,13.84c.44.69.88,1.38,1.31,2.07,2,3.23,5.65,7.48,5.84,11.5a64.72,64.72,0,0,1,13.4,9.43c7.28,7,12.83,15.65,18.76,23.73q4.8,6.56,9.45,13.21c.48.69,1,1.42,1.48,2.17a16,16,0,0,1,2.1,4.25,4.44,4.44,0,0,1,1.74,2.49l8.38,1.83-4,18.33-7.58-1.66-.15.67,0,0a4.12,4.12,0,0,1-.62,1.24c5.53,29.35,10.78,58.76,16.16,88.14.32,1.13.61,2.27.91,3.4V339.19l.06-1.05c-.43-49.42-7.19-96.44-20.09-139.88Zm-56.81-57.06v-.08l.1.13Z"/><path class="cls-1" d="M477.86,320.32c10.27-2,19.37-4.22,27-6.4l-19.13-4.18a.5.5,0,0,0,0,.13l-5.91-1.25S477.74,319.68,477.86,320.32Z"/><path class="cls-1" d="M429.43,297.45a94.17,94.17,0,0,1-4.05,10.26,60.44,60.44,0,0,1-8.92,13.64c6.75,2.36,14.36,2.54,21.31,1.51,4.81-.72,9.4-2.26,14.13-3.28q2.09-.45,4.2-.84c.47-.25,3.15-10.07,4.14-13.75l-.56-1.56Z"/><path class="cls-1" d="M452.89,339.83c.84-.11,1.62-.69,2.47-.86s1.72-.33,2.59-.45c1.77-.22,3.53-.68,5.31-.85s3.37,0,5-.28a33,33,0,0,1,4.54-.37c.41-.5,1-1,1.09-1.62a9.48,9.48,0,0,0-.33-2.47c-.16-1-.49-1.86-.63-2.81-.09-.58,0-.48-.47-1.05-.23,0-.5.1-.71.13l-1.14.12c-.8.08-1.6.13-2.41.15h-1.8c-.68.11-1.36.22-2.05.31-1.79.21-3.56.61-5.36.78-1.17.12-2.35.06-3.52.07l-1.24.49a6,6,0,0,1-.71.53c-.79.49-1.59,1-2.35,1.51a24.25,24.25,0,0,0-2,1.79c-.68.6-1.43,1.1-2.08,1.74a25.9,25.9,0,0,1-2,2.09,18.54,18.54,0,0,0-1.87,1.79c-1.32,1.39-2.55,2.86-3.88,4.24s-2.57,2.5-3.87,3.76a25.44,25.44,0,0,1-4.38,3.74c-.68.41-1.38.77-2.08,1.12a9.9,9.9,0,0,1-.72.73c-.82.74-1.74,1.4-2.63,2.06l-.12.1c-.18.14-.36.28-.53.43l-.74.59-.38.29c-1.54,2.69-2.17,6-2.69,9,0,1.11-.07,2.22-.08,3.33,0,2.38.06,4.75,0,7.12S421,381.68,421,384c.23-.2.46-.39.68-.6,1.51-1.4,3.07-2.83,4.66-4.13,1.4-1.14,2.62-2.48,4-3.66a5,5,0,0,1,2.81-1.48c1-.1,2,.2,3,.2,2,0,4.06-.31,6.09-.41l.51,0,0,0c.44-.22.88-.42,1.33-.63.85-.4,1.65-.9,2.46-1.38,1.73-1,3.52-1.89,5.25-2.9,1.46-.86,2.71-2.27,4.27-2.86.21-.08.42-.15.64-.21h.13a57.5,57.5,0,0,0,6.56.3,25.08,25.08,0,0,1,3,.14,1.51,1.51,0,0,0,1.76-1.34c0-.14.05-.3.05-.32a2.74,2.74,0,0,0,.15-.51,14.81,14.81,0,0,1,.32-1.47,3.43,3.43,0,0,0,0-2.32l-1.88-.32c-3.41-.51-6.82-1.08-10.25-1.45a.48.48,0,0,1,0-.95q1.33,0,2.67-.12a5.35,5.35,0,0,0,.67-.24l1.61-.06,2.45,0,1.94-.15c1.46-.1,3-.33,4.46-.41a1.73,1.73,0,0,0,.45-.54,8.29,8.29,0,0,0,.95-4,2,2,0,0,0-1.17-2c-.88-.09-1.75-.21-2.61-.3l-.9,0c-1,0-1.93-.07-2.9-.05l-3.16,0c-1.46-.27-2.92-.54-4.4-.67-.27,0-.38-.49-.07-.54l.69-.14a.4.4,0,0,1,.34-.21c.31,0,.63-.06.95-.1.49-.13,1-.26,1.47-.37l1.07,0c3.6-.68,7.49-1.7,11-1.43a3,3,0,0,0,.45-.91A16.49,16.49,0,0,0,473,343a2.48,2.48,0,0,0-.35-2.06,1.74,1.74,0,0,0-.12-.14l0-.06h0a2.25,2.25,0,0,0-1.38-.42l-1.37-.08-1.56,0c-2,0-4-.21-6-.22-2.2,0-4.34.48-6.52.47a.2.2,0,0,0-.13.06,12,12,0,0,0-2.67-.22C452.56,340.43,452.56,339.88,452.89,339.83Z"/><path class="cls-1" d="M412.39,379.65a71.25,71.25,0,0,1,.82-11.59c.26-1.43,1.5-7.54,3.21-9.52a22.21,22.21,0,0,1,1.19-2.69,17.23,17.23,0,0,1,3.09-4.12l-.62-.14c-1.3-.28-2.61-.52-3.92-.7s-2.83-.35-4.25-.52l-1.31-.15a19.19,19.19,0,0,0-4.08,5.72l-.55.36a2.78,2.78,0,0,1-.12.38,22,22,0,0,1-1.67,3.1,4.16,4.16,0,0,0-.22.48,1.43,1.43,0,0,0-.08.22c-.18.46-.33.92-.5,1.39a14.87,14.87,0,0,1-.51,1.51,2,2,0,0,1-.11.26c-.58,1.75-1.13,3.52-1.65,5.28-1.12,3.77-2.15,7.6-3.64,11.24a53.07,53.07,0,0,1-2.45,5.23,30.89,30.89,0,0,1-2.19,3.49c-.29.4-.6.8-.92,1.2a24.12,24.12,0,0,1-3.8,3.55c-.63.5-1.27,1-1.91,1.46s-1.35,1.25-2,1.88c-.37.35-.92-.2-.56-.56a9.46,9.46,0,0,0,2-2.56,17,17,0,0,0,1.09-2.77c.52-1.81,1.2-3.57,1.77-5.36,1.85-5.85,3.42-11.78,5.08-17.68.42-1.5.84-3,1.28-4.5a71.49,71.49,0,0,1,3-8.51,22.73,22.73,0,0,0-5.59,2.17,6.47,6.47,0,0,0-.93.16c-11.12,3-21.95-.07-32.68-4-2.36,9.86-3.45,20.19-4.92,30.09-3.46,23.37-7,46.61-15.14,68.77a8.13,8.13,0,0,1-.13.84c-.15.69-.35,1.37-.54,2.05-.65,2.32-1.35,4.62-2,6.93-.13.45-.27.9-.39,1.35-.07.23-.13.47-.19.71a46.91,46.91,0,0,0-1.37,7.24c0,.37-.07.73-.1,1.09a29.17,29.17,0,0,1-.39,3.22,16.41,16.41,0,0,0-.5,3.5c.15.44.31.87.45,1.29s-.45.51-.57.16a.93.93,0,0,0,0-.13.23.23,0,0,1-.27-.19l0-.13a7.38,7.38,0,0,0-.94-2.27,15.85,15.85,0,0,1-.85-1.7,13,13,0,0,1-.67-2v.12c.11,4.71.08,9.41.3,14.12l0,.85c0,.28-.4.32-.48.06-.14-.48-.27-1-.41-1.44-.6-2.08-1.18-4.16-1.8-6.23-.41-1.34-.74-2.68-1-4-.14,2.63-.26,5.26-.34,7.9-.09,3.08-.11,6.16,0,9.24a.33.33,0,0,1-.64.09c-.85-4.12-1.7-8.25-2.4-12.41-.29-1.77-.56-3.55-.79-5.33-.16,1.21-.34,2.41-.55,3.61-.06.3-.1.59-.16.89-.29,1.48-.6,3-.9,4.44-.16.83-.43,1.66-.52,2.5s0,1.56-.05,2.32a.3.3,0,0,1-.59,0,23.43,23.43,0,0,0,0-2.65c-.08-.79-.27-1.57-.38-2.36-.2-1.43-.39-2.85-.58-4.28a58.76,58.76,0,0,1-.41-6.78c0-.62,0-1.23,0-1.85l-.39,1.5c-.11.45-.22.9-.34,1.34s-.34,1.12-.5,1.68h0a83.51,83.51,0,0,0-1,9.07.72.72,0,0,1-1.41.18h0l-.09-.5c-.18-.85-.66-1.75-.91-2.57s-.45-1.57-.62-2.38a34.78,34.78,0,0,1-.68-5.48c0-.35,0-.7,0-1.05a32.44,32.44,0,0,1,2-10c.2-.6.42-1.19.64-1.79.37-1.55.81-3.1,1.29-4.63s1-2.85,1.55-4.25c.29-.7.55-1.43.87-2.11a48.38,48.38,0,0,1,2.35-6.59c1.07-2.66,2-5.37,2.9-8.1q1.07-3.37,2-6.81a221.56,221.56,0,0,0,4.61-23c1.56-10.11,2.62-19.78,4.22-30a171.12,171.12,0,0,1,6.42-28.29c.23-.68.48-1.36.73-2-2.2-.71-4.41-1.34-6.61-1.84l-.25-.11c-.5-.2-.45-1,.13-1,2.58,0,5.23,0,7.88.11,1.2-2.82,2.56-5.57,3.95-8.26a81.88,81.88,0,0,1,6.24-10.1,247.09,247.09,0,0,1-30.58-10.15c-7.13,13-10.94,27.3-13.42,41.86-1.43,8.38-2.42,16.86-3.36,25.25-1.21,10.89-2.6,21.75-4.1,32.59q-2,14.73-4.32,29.43-.64,17.72-1.35,35.43-.39,10.16-.82,20.3H353c8.54-2.51,16.24-8,22.86-14.12,22.16-20.61,32-50.51,35.16-79.89C412,397.73,412.24,388.7,412.39,379.65Zm-39.73-1.08,0,0h.07Z"/><path class="cls-1" d="M404.05,333.58l-.44.38-1-.1a2.32,2.32,0,0,1-1.08.17c-3.44-.33-6.86-.82-10.29-1.25l-3.26-.42-7.2-.73-.22,0h-.78l-.8.28-.52.2-.42.19q-.53.22-1.05.48c-.79.37-1.57.78-2.34,1.21s-1.94,1.2-2.82,1.82c-.46.32-.89.64-1.22.91a37.24,37.24,0,0,0-6.6,7c-1,1.37-2,2.8-3.07,4.11q-.26.31-.51.66,2.32,1,4.59,2.21a.19.19,0,0,0,.19.1c2.76.12,12.22,3.34,14.65,2.07l21.87-3.76c.28-.24.58-.46.88-.69,1.25-1.89,5.25-8,9.18-14.06h-.1l.25-.14Z"/><path class="cls-1" d="M434.94,274c-.3,1.76-.62,3.52-.95,5.26l4.2.92L455.9,284l7.74,1.74,4.46-20-2,1c-2.22.74-4.47,1.43-6.73,2a96.8,96.8,0,0,1-12.05,2.48,73.24,73.24,0,0,1-12.14.64A14.09,14.09,0,0,1,434.94,274Z"/><path class="cls-1" d="M346.88,258.45c-2.95,1.48-6.21,2.93-9.26,4.65-.28.54-.55,1.08-.81,1.63-10.21,14.43-20,40.11-20,40.11a246.21,246.21,0,0,0,43.73,14.37c8.35-6.42,19.51-9.73,27.84-1.5l.05.05c.71-.58,1.4-1.16,2.07-1.77-1.72-1.86-3.41-3.72-5.1-5.5-3.53-3.75-7.5-7.5-10.47-11.72-1.75-2.5-3-4.69-5.31-6.74l-6.84-6c-.48-.41.21-1.09.68-.68l6.3,5.47a34.71,34.71,0,0,0,7.93,4.81c4.23,2.11,8.17,5.31,12,8.05,2.41,1.71,4.78,3.54,7.17,5.38a66.61,66.61,0,0,0,9.21-16.7l-13.42-2.93,1.24-5.64-.62-.42c-6.5-4.54-12.88-9.77-17.88-16-1.43-1.76-2.72-3.6-4-5.47-2.2-3.27-4.27-6.6-6.69-9.71C358.61,254,352.71,255.54,346.88,258.45Z"/><path class="cls-1" d="M380.4,259.58c3.9,3.79,7.53,7.75,11.52,11.39q1.95,1.78,4.05,3.45l.73-3.32,3.33.73,11.37,2.48a3.58,3.58,0,0,1,1.64-1.26c.28-1.51.54-3,.79-4.44-3-.84-5.86-1.81-8.67-2.92-3.36-1.32-6.69-2.71-10-4.21L393,260.43c-2.54-1.22-5-2.51-7.5-3.9-2.79-1.58-5.56-3.35-8.45-4.75a10.7,10.7,0,0,0-7-.95A102.35,102.35,0,0,1,380.4,259.58Z"/><path class="cls-1" d="M381.54,225.81a48.41,48.41,0,0,0-8.05,10.71c-1,1.74-1.87,4-3,6,2.48.84,5,1.86,7.83,2.63,7,1.89,13.92,3.6,20.74,6,1.41.51,2.82,1,4.24,1.48a28.19,28.19,0,0,1-2.78-4.08,30.14,30.14,0,0,1-4.09-15.41c.16-4.31,2-7.58,3.53-11.19-.26-.54-.5-1-.71-1.48a19.4,19.4,0,0,1-5.35,1.54C389.61,222.83,384.82,222.64,381.54,225.81Z"/><path class="cls-1" d="M475.61,224a43.51,43.51,0,0,0-4.94-4c-2.05-1.43-3.62-1.84-5.46-1.13a6.29,6.29,0,0,1,1.31,1.61c5.77,10,0,24.42-6.77,32.55a34.14,34.14,0,0,1-4.15,4.18c2.61-.73,5.19-1.56,7.73-2.44,2.25-.78,4.44-1.6,6.7-2.21L476,224.34Z"/><path class="cls-1" d="M523.86,298.86,530,300.2a102.83,102.83,0,0,0-19.45-27.65,104.77,104.77,0,0,0-20-15.89l-5.31,26.67-1.76,6.9,9.36,1.85Z"/><path class="cls-1" d="M449.75,245.51a7.1,7.1,0,0,1,3.83.94,6.93,6.93,0,0,1,2.46,2.44,24.9,24.9,0,0,0,2.83-8.52c0-.24.06-.49.09-.74a10,10,0,0,0-8.28,2.53A11.56,11.56,0,0,1,449.75,245.51Z"/><path class="cls-1" d="M459.11,236.71a23.45,23.45,0,0,0-1.49-8.21c-1.39,2.68-3.11,5.93-5.21,9.86a11.32,11.32,0,0,1,3.55-1.43A12.5,12.5,0,0,1,459.11,236.71Z"/><path class="cls-1" d="M442.61,260.89a27.64,27.64,0,0,0,1.45-3.54,6.61,6.61,0,0,0-1-5.25,22.45,22.45,0,0,1-5.85,1.87,14.66,14.66,0,0,1-1.56,9A30.47,30.47,0,0,0,442.61,260.89Z"/><path class="cls-1" d="M409.49,251.63a10.93,10.93,0,0,1,5.53-1.25,13.78,13.78,0,0,1-1.74-1.58,12.43,12.43,0,0,1-1.56-2.11,15.18,15.18,0,0,0-3.82-1.44,7.46,7.46,0,0,0-3-.12,22.9,22.9,0,0,0,3.34,7.36A9.46,9.46,0,0,1,409.49,251.63Z"/><path class="cls-1" d="M447.59,248.8a14.2,14.2,0,0,1-2.8,2.34,6.87,6.87,0,0,1,2.54,3.87,10.13,10.13,0,0,1,.29,3.1,27.61,27.61,0,0,0,5.76-5.29,2,2,0,0,1-.14-.39c-.32-1.48-.29-2.86-1.53-3.94a5.19,5.19,0,0,0-3-1.18A12.8,12.8,0,0,1,447.59,248.8Z"/><path class="cls-1" d="M410.12,241.48c-2-3.66-3.62-6.79-5-9.47a27.45,27.45,0,0,0-.76,3.9,26.25,26.25,0,0,0-.1,5.3,12,12,0,0,1,6.14,2A10.94,10.94,0,0,1,410.12,241.48Z"/><path class="cls-1" d="M419.89,253a18.88,18.88,0,0,1-2.73-1.19,9.41,9.41,0,0,0-5.6,1.74,5.74,5.74,0,0,0-1.33,1.49,25.13,25.13,0,0,0,8,5.79A12.88,12.88,0,0,1,419.89,253Z"/><path class="cls-1" d="M413.39,313.58a11,11,0,0,0,1.6-.51,63,63,0,0,0,4.84-8.5l-.23.09a6.73,6.73,0,0,1-4.33-.32,6.62,6.62,0,0,0-3.81-.28l-.52.2a72.59,72.59,0,0,1-4.73,7.8,5.64,5.64,0,0,1,3.56.49C411,313.14,412,313.87,413.39,313.58Z"/><path class="cls-1" d="M424.13,258.41c.48.24,1.2-.3,1.56-.6s.9-.83,1.38-1.21c.81-.63,1.89-1.24,2.84-1.84a19.45,19.45,0,0,1,2.43-1.38,11.86,11.86,0,0,0-2.78-.72,9.67,9.67,0,0,0-5.87,3.84c-.39.65-.75,1.32-1.09,2-.26.53-.49,1.07-.72,1.61-.07.67-.13,1.35-.16,2-.36,1.36-.65,2.76-.91,4.18,0,.24-.08.48-.13.73a14.24,14.24,0,0,1,4.19-3.29c1.84-.95,3.84-1.48,5.71-2.33a12.68,12.68,0,0,0,1.93-1.07q1.11-2.22,2.24-4.43a1.2,1.2,0,0,0-.42-1.6l-.23-.13a10.11,10.11,0,0,0-1.11.73,15.7,15.7,0,0,0-2.44,2.45A6.94,6.94,0,0,1,427.4,260a3.13,3.13,0,0,1-2.07-.12,2.39,2.39,0,0,1-.69-.4,5.21,5.21,0,0,0-.7-.71A.18.18,0,0,1,424.13,258.41Z"/><path class="cls-1" d="M427,278.26a23.12,23.12,0,0,1-2.82.9,18.34,18.34,0,0,0-5.91,2.66c-.43,2.12-.87,4.23-1.38,6.33-.22.89-.45,1.78-.68,2.67a9.73,9.73,0,0,1,2.72-1.15,15.82,15.82,0,0,0,4.49-1.87c.83-.54,1.62-1.15,2.41-1.74q.82-3.94,1.42-7.94A2,2,0,0,1,427,278.26Z"/><path class="cls-1" d="M415.06,301.59c1.19.08,2.55.49,3.7,0s2.29-1.75,3.4-2.56l.42-1.13c.88-2.48,1.63-5,2.28-7.55a8.73,8.73,0,0,1-4,1.9c-1.65.29-3.41.21-4.9,1.07a5.07,5.07,0,0,0-.54.36q-.42,1.4-.87,2.79-1.17,2.93-2.56,5.76A6.14,6.14,0,0,1,415.06,301.59Z"/><path class="cls-1" d="M433.06,164.67v-.4l.1,0a7.39,7.39,0,0,1,2.84,1.46c3.6,1,14,1.38,20.93,1.63l.59,0c-13.07-16.45-41-15.52-54.57,0,7.24-.26,18.94-.69,21.37-1.88v0l.18-.07.55-.34-.12.59C428.41,164.29,431.05,164.13,433.06,164.67Z"/><path class="cls-1" d="M397.43,195.26c-.83.43-3.15,1.79-3.43,3.71l1.54,9.31a9.28,9.28,0,0,1,2.61,2.8l.05.15c.15,1.08.71,3.52,2.71,4-.05-.65-.08-1.19-.1-1.71,0-1.13,0-2.29,0-3.4,0-.86,0-1.72,0-2.58a.57.57,0,0,1,.43-.58.66.66,0,0,1,.28,0,.6.6,0,0,1,.37.24l.05,0,0,.13c.52,1.65,1.11,3.32,1.68,4.94.36,1.5.7,3,1.08,4.5.74,2.92,1.63,5.83,2.62,8.68a33.42,33.42,0,0,0,3.11,6.83c.22.35.47.73.74,1.13a21.32,21.32,0,0,0-1-4.18,17.25,17.25,0,0,1-1-4.55,20,20,0,0,0-.68-4.25,10.86,10.86,0,0,0-.41-1c-.11-.21.21-.4.32-.19,1.05,2,2.49,4.05,3.14,6.27a7.59,7.59,0,0,1,.31,2.94v.07a.53.53,0,0,0,0,.13,32.1,32.1,0,0,0,0,5.8l.45.54c.08.42.17.85.25,1.27.27,1.41.54,2.82.82,4.23a21.78,21.78,0,0,1,.54,3.13c2.48,3.78,7.63,5.26,11.84,5.9l.62.09a16.58,16.58,0,0,1,1.6-.63,7.06,7.06,0,0,1,2-.46,6.5,6.5,0,0,1,1.86.23,23.75,23.75,0,0,0,3.59,1l1.25-.08a18,18,0,0,0,4.07-1.22,13.38,13.38,0,0,0,6.65-6.23c.06-.38.16-.76.2-1.07.1-.7.21-1.4.31-2.1l.54-3.46c.22-.3.42-.6.62-.9.08-1.4.05-2.79.23-4.19a23.49,23.49,0,0,1,1-4.19,18.16,18.16,0,0,0,.79-4.52c0-.25.4-.25.39,0a27.41,27.41,0,0,0,.11,4.53,17.9,17.9,0,0,1,.1,3.87c.6-1.21,1.15-2.43,1.65-3.68a59.67,59.67,0,0,0,2.71-9c.25-1.11.45-2.23.63-3.35.79-2.24,1.62-4.48,2.32-6.76l0,0a.21.21,0,0,1,.39.09c0,2,.11,4,0,6,0,.72-.07,1.45-.13,2.17,2.94-.19,3.45-3.86,3.52-4.37a8.84,8.84,0,0,1,2.64-2.78l1.57-9.52c-.33-2.62-4-4.22-4-4.22s-1.38,2.11-2.24,3.35c-.2.29-.37.53-.49.68l1-6.39a47.38,47.38,0,0,0,1.3-7.43l-12.6-7,2.39,5.1-.81-.21c-3.42-.9-7.56-4.35-12.31-10.26a15.9,15.9,0,0,1,.27,2.53v.59l-6.72-2.81v-.42l-1.87-.78,1.87,2.71v-.69l1.58,2.31-.9-.14-.69-.13v-.4c-7.13-1.46-8.3-6-8.43-8.31l-.24,1.17a9.86,9.86,0,0,1-.15-1.15V167l0,0c-2.46,3.49-10,14.11-16.46,15.82l-.8.21,2.39-5.1L398,184.29a46.64,46.64,0,0,0,1.35,8.09l.06.27,1.05,7-.95-1.37C398.82,197.37,397.84,195.89,397.43,195.26Zm1.55,8c-.08.29-.22.56-.31.84a12.19,12.19,0,0,0-.39,1.61,10.43,10.43,0,0,0-.17,1.47,3.08,3.08,0,0,0,.35,1.6.21.21,0,0,1-.32.25,9.22,9.22,0,0,1-.74-.79,4.92,4.92,0,0,1-1.12-2.3,6.77,6.77,0,0,1,0-2.06c0-.36.09-.71.16-1.07a2.64,2.64,0,0,1,.22-.67,1.26,1.26,0,0,1,0-.16c0-.1,0-.19,0-.29a5,5,0,0,0-.52-.48,3.55,3.55,0,0,1-.8-1.16,2.14,2.14,0,0,1,.32-2.43.25.25,0,0,1,.39,0,15.06,15.06,0,0,0,1.32,1.94,7.13,7.13,0,0,1,1,.91,2.34,2.34,0,0,1,.27.52,2.43,2.43,0,0,1,.35,1s0,.08,0,.11A1.73,1.73,0,0,1,399,203.26Zm63-1.08a.36.36,0,0,0,0-.11,2.45,2.45,0,0,1,.36-1,2.81,2.81,0,0,1,.26-.52,7.13,7.13,0,0,1,1-.91,15.13,15.13,0,0,0,1.33-1.94.24.24,0,0,1,.38,0,2.16,2.16,0,0,1,.33,2.43,3.58,3.58,0,0,1-.81,1.16,6.28,6.28,0,0,0-.52.48,1.42,1.42,0,0,1,0,.29,1.26,1.26,0,0,1,0,.16,2,2,0,0,1,.22.67c.07.36.13.71.17,1.07a7.11,7.11,0,0,1-.06,2.06,4.74,4.74,0,0,1-1.12,2.3,9.22,9.22,0,0,1-.74.79.2.2,0,0,1-.31-.25,3.07,3.07,0,0,0,.34-1.6,10.43,10.43,0,0,0-.17-1.47,10.8,10.8,0,0,0-.39-1.61c-.09-.28-.23-.55-.31-.84A1.73,1.73,0,0,1,461.94,202.18Zm-40.49.46a14.13,14.13,0,0,1-1.18,1.61c-.19.24-.38.48-.59.7a4.71,4.71,0,0,1-2.64,1.42,6.58,6.58,0,0,1-3.27-.07h0a7.47,7.47,0,0,1-1.37-.57c-.47-.27-.89-.63-1.36-.9-.11-.07,0-.23.09-.17a3.5,3.5,0,0,0,1,.32,7.16,7.16,0,0,0,1.6.13h.24a10.42,10.42,0,0,0,2.67-.36c.44-.13.88-.29,1.31-.45s.75-.29,1.13-.42a4.24,4.24,0,0,0,1.21-.64,6,6,0,0,0,.9-.84C421.29,202.24,421.56,202.45,421.45,202.64ZM434.32,241h-7s-2.2.12-2.69-4.4l.07.06,2.48,1.93,0,0a9.11,9.11,0,0,1,5.87-.31c.28.09.55.19.83.31,0,0,2-1.49,2.71-2l.19-.16C436.58,236.84,436,239.77,434.32,241Zm1.66-6H424.59s-2.75-.36-3.1-2.21c0-.07,0-.08.1-.08a4.31,4.31,0,0,1,1,.5s2.46-1,4.12-1.66c.8-.31,1.41-.55,1.47-.55s2.54,2.35,4.89,0c0,0,0,0,0,0l6.27,2.21,1-.73,0,0S440.73,234.85,436,235Zm11.2-44.82h.06l-.2,0Zm-12.57,3.12a.79.79,0,0,1,.86-.67,1.81,1.81,0,0,1,.5-.33,6,6,0,0,1,2.85-.15,9.56,9.56,0,0,0,4.8-.64,26.19,26.19,0,0,1,6.6-.6,23.67,23.67,0,0,1,4.11.5,2,2,0,0,1,.26.06c0,.25-.09.5-.13.75a23.17,23.17,0,0,0-2.74.39,24.73,24.73,0,0,0-4.76,2.13c-.58.27-1.18.51-1.79.74a14.3,14.3,0,0,0-1.84.17,22.48,22.48,0,0,0-2.29.56,9.6,9.6,0,0,1-2.2.56c.36.2.73.4,1.1.58a.61.61,0,0,1,.14.07l.07,0h0l.11,0,.4.14c.26,0,.53,0,.8-.06a30.37,30.37,0,0,1,3.44,0,28.48,28.48,0,0,1,3.33.36,13.35,13.35,0,0,1,1.45.36l.48.09a18.93,18.93,0,0,1,2.74,1.28,6.92,6.92,0,0,1-3.46.69v0a3.23,3.23,0,0,1-1.07,1.55,2.66,2.66,0,0,1-.91.52H451c-4.56,2.68-9.3,0-9.3,0h3.58a3.22,3.22,0,0,1-1.09-.38,2.69,2.69,0,0,1-1.19-1.86c-.28,0-.55.09-.82.15a12,12,0,0,0-1.94.58c-.2.07-.38.16-.57.24,0,.06,0,.12,0,.17.1.47.27.92.33,1.4a4.57,4.57,0,0,0,1.82,1.12c.8.25,1.56.62,2.36.85a10.3,10.3,0,0,0,2.76.36,5.55,5.55,0,0,0,2.71-.45.1.1,0,0,1,.1.17c-.5.28-.94.66-1.44.94a7.78,7.78,0,0,1-1.38.55,6.62,6.62,0,0,1-3.19.05,4.71,4.71,0,0,1-2.69-1.46,15.18,15.18,0,0,1-1.07-1.33,6.23,6.23,0,0,1-.15.62c-.27,1-.55,2.06-.84,3.08-.47,1.63-1,3.21-1.57,4.81-.21,1.14-.33,1.9-.33,2a7.63,7.63,0,0,1-.12-.95s0,0,0,0,0,0,0-.06,0-.31-.06-.5a5.18,5.18,0,0,0,0,1s0,0-.05,0a19,19,0,0,0-1-2.46,18.79,18.79,0,0,1-.65-2.53,41.8,41.8,0,0,1-.64-5c-.15-1.71-.21-3.42-.22-5.13A30.45,30.45,0,0,1,434.61,193.34Zm-7.69,28,.27,0,.19.18,2.18,2.12a1.44,1.44,0,0,0,.69.12h.35a7.14,7.14,0,0,0,1.22-.23c.25-.3.75-.9,1.23-1.5l.33-.41.19-.25.33-.06a4.27,4.27,0,0,1,.9-.1,2.73,2.73,0,0,1,.41,0h.06l0,.2c0,.12,0,.24-.05.36s.08.1.11,0l.25-.54.12,0v0c0-.08.09-.29.15-.56a7.49,7.49,0,0,0,.49-1.4c0-.12.05-.25.07-.38s0-.24.07-.35.07-.35.1-.52a.79.79,0,0,1,.25.15,4,4,0,0,1,1.14,1.41,6.74,6.74,0,0,1,.47,2,.4.4,0,0,0,0,.11,3.81,3.81,0,0,1-.41,1.88l0,.07a2.92,2.92,0,0,1-.89,1.17l-.55.79-1.77-.73-1.71,2.14-.39.49-.13.16-.18.08a5,5,0,0,1-1.41.38l-.19,0h-.65l-.18,0a4.91,4.91,0,0,1-1.41-.38l-.19-.08-.12-.16-1.91-2.4-.19-.23a16.22,16.22,0,0,0-1.78.72c0-.05-.33-.46-.63-.9a3.25,3.25,0,0,1-.76-1.08l0,0a3.81,3.81,0,0,1-.41-1.88.4.4,0,0,0,0-.11,6.74,6.74,0,0,1,.47-2,4.25,4.25,0,0,1,1.14-1.41.75.75,0,0,1,.15-.09c.05.41.15.8.19,1,.1.46.23.92.35,1.37l.21.68c0,.11.07.22.11.32s.16.25.22.38.05,0,.05,0,.05-.25.06-.38a1.93,1.93,0,0,0,0-.24,2.62,2.62,0,0,1,.57-.07h.07A4.06,4.06,0,0,1,426.92,221.37Zm-21.45-29.9a25.8,25.8,0,0,1,4.8-1.22,43.11,43.11,0,0,1,5.67.5,32.84,32.84,0,0,0,3.95,1.35,9.63,9.63,0,0,0,3.21.07l1.12.28.13,2c.09.28.19.55.28.83s.17.48.26.72c.16.46.33.91.48,1.37.05.15.09.3.14.45a13.36,13.36,0,0,1,.45,1.76,6.51,6.51,0,0,1,.1,1,6,6,0,0,1-.07.85s0,0,0,0a.16.16,0,0,1,0,.12.53.53,0,0,0,0,.12c0,.1-.08.17-.16.14a.09.09,0,0,1-.13-.07l0-.09a4,4,0,0,0-.35-.37l-.39-.43-.23-.27c-.17-.19-.34-.38-.5-.58l-.41-.49a10,10,0,0,0-.73,1.26.79.79,0,0,1-.93.48,15.77,15.77,0,0,1-1.75-.61c-.56-.17-1.13-.32-1.7-.45,0,.05,0,.11,0,.16a3.23,3.23,0,0,1-1.07,1.55,2.66,2.66,0,0,1-.91.52h3.6c-4.56,2.68-9.3,0-9.3,0h3.48a3.22,3.22,0,0,1-1.09-.38,2.78,2.78,0,0,1-1.25-2.21.44.44,0,0,1,0-.16h-.6c-1.23,0-2.4,0-3.62.2a.19.19,0,0,1-.17-.06l.12-.12c.19-.17.39-.32.59-.48.46-.24.92-.49,1.38-.71.62-.29,1.23-.59,1.86-.86a8.91,8.91,0,0,1,1.52-.47,19.62,19.62,0,0,1,2.18.21l1.5.05c1.78.07,3.55.25,5.33.24-.36-.38-.72-.77-1.1-1.13-.07-.08-.15-.14-.23-.22h0c-.92-.08-1.83-.23-2.74-.39a21.59,21.59,0,0,1-2.44-.89,1,1,0,0,0-.88-.38l-1.2-.56a17.32,17.32,0,0,0-2.2-1.19c-.69-.21-1.42-.39-2.13-.53s-1.67-.16-2.5-.28c-.36,0-.72-.08-1.08-.11a.36.36,0,0,1-.3.17,1,1,0,0,1-.3,0C405.24,192,405.35,191.71,405.47,191.47Zm6.6,5.84.11,0h.15Z"/><path class="cls-2" d="M426.18,222.06h0Z"/><path class="cls-2" d="M431.18,227.45a1.93,1.93,0,0,1-.36.06l-.14,0,.14,0A1.93,1.93,0,0,0,431.18,227.45Z"/><path class="cls-2" d="M430.18,227.53l-.14,0-.34,0,.34,0Z"/><path class="cls-2" d="M433.05,225.83l-1.1,1.39-.08,0,.08,0Z"/><path class="cls-2" d="M434.8,222.05l-.18,0h.18Z"/><path class="cls-2" d="M437.14,220a2.3,2.3,0,0,0-.33-.52,3.64,3.64,0,0,0-.43-.45,3.64,3.64,0,0,1,.43.45A2.3,2.3,0,0,1,437.14,220Z"/><path class="cls-1" d="M410.11,316.2c-1.19-.63-2.28-1.84-3.66-2a5.19,5.19,0,0,0-1.88.14,64.67,64.67,0,0,1-6.55,7.4,6.6,6.6,0,0,1,2.64.26,7.23,7.23,0,0,1,3.61,2.71,50.82,50.82,0,0,0,7.9-7.82A6.23,6.23,0,0,1,410.11,316.2Z"/><path class="cls-1" d="M419.32,275.68a1.08,1.08,0,0,1,.08.19c-.19,1.07-.38,2.14-.58,3.2a13.26,13.26,0,0,1,2.79-2,27,27,0,0,1,2.86-1.26,6.6,6.6,0,0,0,2.24-1.1c.41-.39.81-.79,1.21-1.19.24-1.72.5-3.44.81-5.14q1.11-2.55,2.32-5a27.07,27.07,0,0,1-3.73,1.77,24.47,24.47,0,0,0-5,2.74,13,13,0,0,0-2.12,2C419.9,271.79,419.62,273.74,419.32,275.68Z"/><path class="cls-1" d="M360.94,339.21a38.48,38.48,0,0,1,6.61-8.13,25.51,25.51,0,0,0-9.05-.69c-.31,0-.61.09-.91.15a60.68,60.68,0,0,0-9.36,17.23,21.46,21.46,0,0,1,2.56-2.29,87.59,87.59,0,0,1,7.71-4.7C359.32,340.29,360.15,339.77,360.94,339.21Z"/><path class="cls-1" d="M352.08,362.69A80.53,80.53,0,0,1,357.76,345c-1.33.85-2.74,1.58-4.16,2.4a25,25,0,0,0-6.14,4.93c-.41.47-.8,1-1.18,1.46-.93,3.29-1.7,6.63-2.34,10q-.79,4.2-1.5,8.41a34.29,34.29,0,0,1,3.86-3.66,29.54,29.54,0,0,0,5.65-5.63A2.14,2.14,0,0,0,352.08,362.69Z"/><path class="cls-1" d="M360.23,327.47a21,21,0,0,1,7.74.18,15.2,15.2,0,0,1,2.86.94h0c.39-.24.78-.47,1.18-.68a10.22,10.22,0,0,1,3.4-1.13c.35-.16.7-.3,1.06-.44,0-.08,0-.15-.05-.22a6.63,6.63,0,0,0-.59-1.53,8.63,8.63,0,0,0-2.07-2.58,7.34,7.34,0,0,0-3.72-1.78A30,30,0,0,0,360.23,327.47Z"/><path class="cls-1" d="M377.51,323.73a7.64,7.64,0,0,1,.43,2.06,37.12,37.12,0,0,1,8.7-2c.92-.09,1.86-.15,2.79-.16.19,0,.38,0,.57,0-4.7-2.62-9.14-5.48-14.9-4.8a17.54,17.54,0,0,0-2.5.49,6.91,6.91,0,0,1,2.31.94A7.13,7.13,0,0,1,377.51,323.73Z"/><path class="cls-1" d="M348.54,383.81c.36-2.23.7-4.46,1-6.7s.66-4.32,1-6.5a1.58,1.58,0,0,1-.12.15c-1.75,2-3.94,3.48-5.82,5.33a15.25,15.25,0,0,0-2.15,2.59c-.59.91-.94,2-1.62,2.87-.64,4-1.27,8-1.92,12.06a42.18,42.18,0,0,1,4.35-3.74,17.09,17.09,0,0,0,5-5.61Z"/><path class="cls-1" d="M334.61,446.78a141.22,141.22,0,0,0,4.36-14l-.61.72a41,41,0,0,1-6.72,5.45,21.05,21.05,0,0,0-2.46,2c-.54,1.59-1.1,3.17-1.7,4.73s-1.33,3.21-1.94,4.83a19.27,19.27,0,0,1,3.42-1.54,37.13,37.13,0,0,0,5.13-2Z"/><path class="cls-1" d="M340.88,424.88c.41-1.81.8-3.63,1.19-5.45.61-2.93,1.2-5.88,1.78-8.82-.67,1-1.4,1.91-2.17,2.82a65.24,65.24,0,0,1-5.95,6l-1.27,1.14c-.9,4.6-2,9.18-3.22,13.7,1.18-.78,2.37-1.52,3.49-2.39a25.06,25.06,0,0,0,5.18-5.5C340.26,425.92,340.58,425.4,340.88,424.88Z"/><path class="cls-1" d="M347.14,392.42c-1.91,1.84-4.18,3.23-6.11,5.05a14.79,14.79,0,0,0-2.49,3.13c-.39.62-.7,1.41-1.11,2.1-.08.42-.15.85-.23,1.27q-.45,3.16-.94,6.33c-.18,1.16-.37,2.31-.56,3.46l2.05-2a44,44,0,0,0,5.41-6.24,33.13,33.13,0,0,0,2.39-4Q346.38,397,347.14,392.42Z"/><path class="cls-1" d="M326.15,457.33c.67-1.79,1.49-3.49,2.3-5.23a.46.46,0,0,0-.8-.47c-1.16,1.52-2.26,3.07-3.46,4.56a26.71,26.71,0,0,0-2.95,4.89c-.82,1.64-1.58,3.33-2.25,5s-1.19,3.6-1.78,5.41c0,.16.18.24.27.11,1-1.56,2.18-3,3.21-4.61s2-3.15,2.94-4.76A30.63,30.63,0,0,0,326.15,457.33Z"/><path class="cls-1" d="M323.12,473.62c.75-1.74,1.79-3.35,2.57-5.09a30.27,30.27,0,0,0,1.93-5.22c.45-1.83.56-3.72,1.06-5.55s1-3.75,1.47-5.65a.39.39,0,0,0-.76-.2c-.73,1.81-1.39,3.64-2.07,5.47s-1.61,3.3-2.29,5a29.68,29.68,0,0,0-1.44,5.24c-.38,1.93-.46,3.9-.87,5.81C322.67,473.68,323,473.86,323.12,473.62Z"/><path class="cls-1" d="M328.7,471.9a15.83,15.83,0,0,1,.86-2.54c.31-.84.55-1.7.81-2.56a45.5,45.5,0,0,0,1.16-5.45c.6-3.62,1-7.28,1.59-10.91a.33.33,0,0,0-.63-.17c-1.05,3.48-2.18,7-3,10.52a36.63,36.63,0,0,0-.92,5.19c-.08.88-.16,1.77-.18,2.65a25.76,25.76,0,0,1,0,3.17C328.31,472,328.66,472.13,328.7,471.9Z"/><path class="cls-2" d="M459.68,303.43l.56,1.56.37-1.37Z"/><path class="cls-2" d="M156.26,218.17a4.52,4.52,0,0,0-1.06-1.59.86.86,0,0,0-.63-.28.83.83,0,0,0-.4.11h0a6.52,6.52,0,0,1-.05,3.61v.05a2.37,2.37,0,0,0-.81-.13,3.89,3.89,0,0,0-.85.11l-.3.08-.18.27c-.53.81-1.17,1.74-1.46,2.16a5.63,5.63,0,0,1-1.14.25h-.32a1.25,1.25,0,0,1-.65-.14l-2-2.39-.18-.21L146,220a3.12,3.12,0,0,0-.76-.1,2.32,2.32,0,0,0-.8.14,6.73,6.73,0,0,1-.08-3.66h0a.77.77,0,0,0-.39-.11h0a.86.86,0,0,0-.63.28,4.52,4.52,0,0,0-1.06,1.59,8.6,8.6,0,0,0-.43,2.27,5,5,0,0,0,.37,2.25l0,0A3.76,3.76,0,0,0,143,224l.58,1a12.69,12.69,0,0,1,1.66-.82l2,3,.11.17.18.1a4.23,4.23,0,0,0,1.32.42l.16,0h.62l.17,0a4.23,4.23,0,0,0,1.31-.42l.18-.1.11-.17,2-3,1.65.83.52-.89a3.35,3.35,0,0,0,.83-1.32l0-.08a5,5,0,0,0,.38-2.25A8.65,8.65,0,0,0,156.26,218.17Zm-12.3-1h0l-.05,0Zm.34,3.91a2.1,2.1,0,0,0-.37.36,2.1,2.1,0,0,1,.37-.36h0Zm.83-.26h0Zm2.73,2.49-2.07-2.42,2.07,2.42a1,1,0,0,0,.43.26A1,1,0,0,1,147.86,223.3Zm2.8,3.33-.07,0,.07,0,1.47-2.22Zm2.5-5.81h0Zm2-2.93a3.9,3.9,0,0,0-.4-.51,3.9,3.9,0,0,1,.4.51,2.75,2.75,0,0,1,.31.59A2.75,2.75,0,0,0,155.2,217.89Z"/><path class="cls-2" d="M116.57,321.05l.33,1.68A1.18,1.18,0,0,0,116.57,321.05Z"/><path class="cls-3" d="M116.57,321.05l.33,1.68A1.18,1.18,0,0,0,116.57,321.05Z"/><path class="cls-2" d="M133.42,464.15a1.14,1.14,0,0,0,.14.16l-.22-1.12A1.18,1.18,0,0,0,133.42,464.15Z"/><path class="cls-3" d="M133.42,464.15a1.14,1.14,0,0,0,.14.16l-.22-1.12A1.18,1.18,0,0,0,133.42,464.15Z"/><path class="cls-2" d="M142.26,199.13c.41-.48.76-1,1.16-1.54a.39.39,0,0,0-.25-.65,4.47,4.47,0,0,0-1.45.39l-.77.25a1.89,1.89,0,0,0-.41.18l-.09.06-.28,0a12.14,12.14,0,0,0-5.73-1.24,10.38,10.38,0,0,0-3.57.68,6.19,6.19,0,0,0-1.55.86,5.7,5.7,0,0,0-.64.56,6.58,6.58,0,0,0-.42.61h0a.8.8,0,0,1-.15.17s0,.08.05.06a.94.94,0,0,1,.15-.06h0l-.28.19a.15.15,0,0,0,.12.28,29.71,29.71,0,0,1,3.13-.19h.52c0,.05,0,.1,0,.15a2.72,2.72,0,0,0,1.09,2.12,2.36,2.36,0,0,0,.94.36h-3a8.26,8.26,0,0,0,6.51.76c-.36.29-.7.61-1.06.9a5.89,5.89,0,0,0-.65.57c-.22.21-.39.44-.61.63a4.28,4.28,0,0,1-1.7.76c-.12,0-.1.25,0,.23a12.44,12.44,0,0,0,1.71-.28,4.94,4.94,0,0,0,1.76-.5,5.29,5.29,0,0,0,1.35-1.32c.19-.26.34-.55.5-.82s.35-.7.73-.7c.05,0,.05-.09,0-.09-.23,0-.45-.05-.68-.05a1.19,1.19,0,0,0,.15-.09h-3.11a2.18,2.18,0,0,0,.79-.49,3.16,3.16,0,0,0,.92-1.49.83.83,0,0,0,0-.15c.49.13,1,.26,1.47.43a14.73,14.73,0,0,0,1.51.59.68.68,0,0,0,.81-.46,10.58,10.58,0,0,1,.68-1.29C142.08,199.35,142.16,199.24,142.26,199.13Z"/><path class="cls-2" d="M146.43,240.22a5.25,5.25,0,0,1,5.78-.26l2.85-4.54a20.33,20.33,0,0,1-12.24.18A12.13,12.13,0,0,1,146.43,240.22Z"/><path class="cls-2" d="M186.41,258.27h.69l.11.47.06.26.29,1.77c.39-.22.79-.4,1.18-.6a20.76,20.76,0,0,1,6.47-2l.86-.12,0,.68,0,.25a31.64,31.64,0,0,1-.71,9.44h2.13l.13.72a3.06,3.06,0,0,0,2.66,2.63h0a1.45,1.45,0,0,0,1.19-.56,2.3,2.3,0,0,0,.38-1.77l-.16-1h2.11a39.07,39.07,0,0,1-3.65-9.13l-.16-.62-.17-.64,1.22.15a27,27,0,0,1,7.1,1.95c.36.15.72.29,1.08.46l-.29-1.78-.1-.57,1,0h.1a1.49,1.49,0,0,0,1.07-.57,2.32,2.32,0,0,0,.36-1.78,3.09,3.09,0,0,0-2.64-2.65h-.68l-.4-2.43a20.57,20.57,0,0,1-7.65,2.57l-.81.11h-.05l-.06-.92a32.75,32.75,0,0,1,.29-7.24c.11-.74.25-1.47.42-2.2h-2.25l-.1-.76a3.08,3.08,0,0,0-2.67-2.66h0a1.48,1.48,0,0,0-1.2.56,2.33,2.33,0,0,0-.36,1.8l.17,1-2,0c.4.72.77,1.45,1.13,2.19.43.92.82,1.87,1.19,2.82a37.3,37.3,0,0,1,1.33,4.12l.33,1.26-1.22-.15A27.23,27.23,0,0,1,186,251l.38,2.3h-1a1.5,1.5,0,0,0-1.23.56,2.33,2.33,0,0,0-.37,1.8A3.08,3.08,0,0,0,186.41,258.27Z"/><path class="cls-2" d="M156,291.1a4,4,0,1,0-3.95,4.22A4.09,4.09,0,0,0,156,291.1Z"/><path class="cls-2" d="M159.94,310a4.22,4.22,0,1,0-3.95-4.21A4.08,4.08,0,0,0,159.94,310Z"/><path class="cls-2" d="M144.17,301.9a4.22,4.22,0,1,0,4,4.21A4.08,4.08,0,0,0,144.17,301.9Z"/><path class="cls-4" d="M471.12,101.38l.11.05-.1-.13Z"/><path class="cls-4" d="M372.66,378.57l0,0h-.07Z"/><path class="cls-2" d="M553,186.48a424.93,424.93,0,0,0-48.91-104.2C468.91,28.39,434.28,3.73,432.83,2.71L429,0l-4,2.54c-1.46.94-36.25,23.59-71.5,76.63-20.6,31-37.08,66-49,104.14A481.26,481.26,0,0,0,288,255.69a488.75,488.75,0,0,0-16.54-72.38c-11.9-38.11-28.38-73.14-49-104.14-35.25-53-70-75.69-71.5-76.63L147,0l-3.86,2.71c-1.46,1-36.08,25.68-71.22,79.57A424.93,424.93,0,0,0,23,186.48c-14.85,46.94-22.6,98-23,151.8L.05,514.72H576l0-176.44C575.56,284.49,567.81,233.42,553,186.48ZM83.32,90.58c24.35-37.49,50.58-62.81,64.06-73.45C160.87,27,187,51,211.25,87.64c19.75,29.87,35.56,63.65,47,100.42,13.69,44,21.12,92.46,22.1,144.1H280v11.07c-.82-3.49-1.72-7-2.79-10.37-2.42-7.76-7.78-15.53-7.88-23.73-.19-15.83-8.66-32.57-19.45-44.08-2.5-2.66-6.7-4.81-8.5-8-1.89-3.33-1.81-7-4.29-10.24-4.66-6-12.14-10.59-18.45-14.69-3.22-2.09-7.6-3.63-9.05-7.21s-2.21-6.5-4.94-9.42-6.69-5-10.28-7.29a9.06,9.06,0,0,0,1.36-2.28,21.3,21.3,0,0,0,.88-3.54,11.55,11.55,0,0,0,.15-3.42c-.06-.5-.2-1-.26-1.49a5.46,5.46,0,0,0-.33-1.7,7.23,7.23,0,0,0-2.47-2.32,8.05,8.05,0,0,0-1.64-.93q-.4-.18-.81-.33c0-.1,0-.21,0-.31.06-.49.07-1,.1-1.47a11.26,11.26,0,0,0-.14-3.12,12,12,0,0,0-2.61-5.06,20.15,20.15,0,0,1-1.78-2,21.35,21.35,0,0,1-.8-2.65l0,0,.56-10.34a2.65,2.65,0,0,0-1-2.2l-.4-.32c1.15-8.1,6.36-32.73,7.41-42.3a2.72,2.72,0,0,0-.46-1.84c-.81-1.16-18.4-26.17-37.42-40.35a8.49,8.49,0,0,0,.09-1.14,7.38,7.38,0,0,0-4.66-7c-.42-3-.69-7.74-.81-8.91a12.15,12.15,0,0,1,4.31,1.38V63.17a1.52,1.52,0,0,0,0-3V58.82a12.37,12.37,0,0,1-2.53,1,12.21,12.21,0,0,1-1.78.36c0-.12,0-.24.05-.36a14.08,14.08,0,0,1,1.24-4.23h-1.27a1.43,1.43,0,1,0-2.85,0H145.3a14.06,14.06,0,0,1,1.23,4.23l.06.36a12.21,12.21,0,0,1-1.78-.36,11.93,11.93,0,0,1-2.53-1v1.32h0a1.52,1.52,0,0,0,0,3h0v1.35a12,12,0,0,1,4.31-1.38c-.13,1.17-.39,5.86-.8,8.84A7.38,7.38,0,0,0,141,79a8.27,8.27,0,0,0,.18,1.66c-10.66,8.2-33.51,26.56-40,38.17h0c-.39.7-1,1.75,1.67,21.16.17,1.25.36,2.58.56,4,.15,1.07.3,2.16.47,3.32,1,7,3.34,10.37,5.2,17.39a2.71,2.71,0,0,0-.37,1.58l.82,11a2.62,2.62,0,0,0,.9,1.81,2.68,2.68,0,0,0,.58.36l0,.07c-.09.31-.17.6-.23.92s-.15.66-.07.63a10.05,10.05,0,0,1-1.52,1.41c-1.13,1-2.42,1.73-3.62,2.62a30.42,30.42,0,0,0-3.77,2.7,12.71,12.71,0,0,0-2.51,4.09,11,11,0,0,0-.39,5.37,12,12,0,0,0,.41,2.07,10.15,10.15,0,0,0,1.21,2.16,20,20,0,0,0,1.15,1.82,4.54,4.54,0,0,0,1.14,1h0a6,6,0,0,0-.21,1,9.33,9.33,0,0,0,.21,2c.15,1.13.49,2.21.67,3.33a15.38,15.38,0,0,0,1.1,3.65c.24.55.49,1.12.78,1.66a24,24,0,0,0-7.49,10.47L89.7,185.66a4.88,4.88,0,0,0,2.37-4.24,4.73,4.73,0,0,0-4.2-4.83A29.44,29.44,0,0,0,83,167.51a5.22,5.22,0,0,0,.39-2,4.7,4.7,0,0,0-4.54-4.84,4.29,4.29,0,0,0-2.43.76,26.14,26.14,0,0,0-8.37-3.61,4.5,4.5,0,0,0-8.92-.48,25.74,25.74,0,0,0-8.87,2.77,4.56,4.56,0,0,0-2.23-1.69A403,403,0,0,1,83.32,90.58ZM259.66,314.27l-.06,0C259.79,314.27,259.8,314.34,259.66,314.27ZM133.3,373.86l0,0c-.44-.22-.88-.42-1.33-.63-.85-.4-1.65-.9-2.46-1.38-1.73-1-3.52-1.89-5.25-2.9-1.46-.86-2.71-2.27-4.27-2.86-.21-.08-.42-.15-.64-.21h-.13a57.5,57.5,0,0,1-6.56.3,25.34,25.34,0,0,0-3,.14,1.5,1.5,0,0,1-1.75-1.34c0-.14,0-.3,0-.32a2.74,2.74,0,0,1-.15-.51,12.47,12.47,0,0,0-.33-1.47,3.49,3.49,0,0,1,0-2.32l1.88-.32c3.41-.51,6.82-1.08,10.25-1.45a.48.48,0,0,0,0-.95q-1.34,0-2.67-.12a5.35,5.35,0,0,1-.67-.24l-1.61-.06-2.45,0L110.1,357c-1.46-.1-3-.33-4.46-.41a1.73,1.73,0,0,1-.45-.54,8.29,8.29,0,0,1-1-4,2,2,0,0,1,1.17-2c.88-.09,1.75-.21,2.61-.3l.9,0c1,0,1.93-.07,2.9-.05l3.16,0c1.46-.27,2.92-.54,4.4-.67.27,0,.38-.49.07-.54l-.69-.14a.4.4,0,0,0-.34-.21c-.31,0-.63-.06-1-.1-.49-.13-1-.26-1.47-.37l-1.07,0c-3.6-.68-7.49-1.7-11-1.43a3,3,0,0,1-.45-.91A16.49,16.49,0,0,1,103,343a2.48,2.48,0,0,1,.35-2.06,1.74,1.74,0,0,1,.12-.14l0-.06h0a2.25,2.25,0,0,1,1.38-.42l1.37-.08,1.56,0c2,0,4-.21,6-.22,2.2,0,4.33.48,6.52.47a.2.2,0,0,1,.13.06,12,12,0,0,1,2.67-.22c.33.05.33-.5,0-.55-.84-.11-1.62-.69-2.47-.86s-1.72-.33-2.59-.45c-1.77-.22-3.53-.68-5.31-.85s-3.37,0-5-.28a32.7,32.7,0,0,0-4.54-.37c-.4-.5-1-1-1.08-1.62a9.48,9.48,0,0,1,.33-2.47c.16-1,.49-1.86.63-2.81.09-.58,0-.48.47-1.05.23,0,.5.1.71.13l1.14.12c.8.08,1.6.13,2.41.15h1.8c.68.11,1.36.22,2.05.31,1.79.21,3.56.61,5.36.78,1.18.12,2.36.06,3.54.07h.62c.44.32.86.74,1.31,1,.79.49,1.59,1,2.35,1.51a24.25,24.25,0,0,1,2,1.79c.68.6,1.43,1.1,2.08,1.74a25.9,25.9,0,0,0,2,2.09,18.54,18.54,0,0,1,1.87,1.79c1.32,1.39,2.55,2.86,3.88,4.24s2.57,2.5,3.87,3.76a25.44,25.44,0,0,0,4.38,3.74c1.54.92,3.16,1.63,4.76,2.41.91.44,1.84.84,2.78,1.19.39.14.78.25,1.17.38a1.91,1.91,0,0,1,.26.11,1.83,1.83,0,0,0,1,.5c0,2-.1,4.05-.12,6.07,0,2.34.14,4.68.16,7s-.06,4.75,0,7.12.12,4.57.19,6.85c-.23-.2-.46-.39-.68-.6-1.51-1.4-3.07-2.83-4.66-4.13-1.4-1.14-2.62-2.48-4-3.66a5,5,0,0,0-2.81-1.48c-1-.1-2,.2-3,.2-2,0-4.06-.31-6.09-.41Zm.07,7.06q-1.43,5.35-2.79,10.75l-2.48-12.5a21.81,21.81,0,0,0,3,1.38A6.86,6.86,0,0,0,133.37,380.92Zm-17.62-126a1.2,1.2,0,0,0-1-.51h-.82l.31-2.06a21.36,21.36,0,0,1-6.8,2.16l-1,.13.27-1.12a36.55,36.55,0,0,1,3-8.18l-1.68,0,.14-.92a2.17,2.17,0,0,0-.31-1.61,1.18,1.18,0,0,0-1-.51h0a2.67,2.67,0,0,0-2.22,2.39l-.08.67H102.7a30.56,30.56,0,0,1,.59,8.45l0,.29-3.19-16.11s1.41-13.84,13.76-22c-3.15,13,1.12,28,4.81,40.27q3.07,10.23,7.08,20.15c2.86,7.12,5.82,14.29,11,20l-.78-.22c-4-1.12-8.23-2.25-12.18-3.63A58.76,58.76,0,0,1,110,285.29l-.6-.43-1.4-7L106,268l0,0a30.84,30.84,0,0,1-.3-8.41l0-.82.71.1a16.5,16.5,0,0,1,6.36,2.3l.24-1.59.14-.65h.58a2.66,2.66,0,0,0,2.22-2.38A2.19,2.19,0,0,0,115.75,254.9Zm-34.1,17c5.54,4.55,10.95,9.31,16.48,13.88l3.37,17a162.77,162.77,0,0,1-16.39.4H85a338.08,338.08,0,0,1-36.76-3.36c3.31-6.88,6.14-14,9.77-20.78,2.82-5.24,6.27-10.61,10.47-14.68l.55-.52A68.47,68.47,0,0,1,81.65,271.87ZM70.88,260a10.42,10.42,0,0,1,2.66-4.32c3-3.34,6.87-4.36,10.63-6.49,2.07-1.18,4-2.45,6-3.78l5.5,27.74q-5.19-4.51-10.64-8.67A22.63,22.63,0,0,0,70.88,260ZM147.94,84.28l4.5,5.46v70.58H143V89.74Zm-3-5.43A2.92,2.92,0,1,1,147.89,82,3,3,0,0,1,145,78.85Zm-1.08,86.58c3.21-.12,6.41-.16,9.62-.12l1.34,0c4.53.22,9.05.86,13.57,1.27a67,67,0,0,1,7.18,1c1.07.21,2.12.37,3.19.54a7.66,7.66,0,0,1,.41,4.22c0,.24-.09.49-.13.73a23.28,23.28,0,0,0-2.63-.31c-.92,0-1.83-.12-2.75-.2-19.61-2.89-47.06,0-57.72,1.35-.15-1.81-.16-3.62-.19-5.44a199.58,199.58,0,0,1,22.44-2.78c1.11-.05,2.22-.1,3.33-.17C142.33,165.5,143.11,165.47,143.89,165.43Zm13.73-5.58V95a172.79,172.79,0,0,1,25.89,29.44c.53,12.4-2.07,12.66-3.84,24.88-.5,3.53-1.84,8-2,12.1Q167.65,160.16,157.62,159.85Zm18,45.8c0-.09-.13-.12-.15,0a41.88,41.88,0,0,1-1.53,5c-.43,1.47-.81,2.94-1.35,4.37-1.13,3-4,4.63-5.43,7.41a7.7,7.7,0,0,0-.39,2c-.17.7-.38,1.38-.53,2.09-.34,1.55-.8,3.06-1,4.65,0,.46-.09.92-.13,1.37a17.05,17.05,0,0,1-2-.85,21.89,21.89,0,0,0-13.69-3.27l2.15,1.89a5.11,5.11,0,0,1-5.1,0l2.1-1.88a21,21,0,0,0-13.38,3.27,17.64,17.64,0,0,1-2.41,1c-.11-.58-.23-1.16-.36-1.73-.44-2-.76-4.11-1.35-6.1a9.8,9.8,0,0,1-.16-1.8,3.94,3.94,0,0,0-1.36-2.48c-2.53-2.32-4.09-5.82-5.3-9.09a25.11,25.11,0,0,1-1.23-5.78c-.11-.93-.17-1.87-.33-2.79a4.09,4.09,0,0,0-.55-1.91.18.18,0,0,0-.29.18c.14.38-.14,1-.22,1.34s-.16.91-.22,1.36c-.12.93-.23,1.87-.28,2.8a18.33,18.33,0,0,0,.06,2.68,12.51,12.51,0,0,0-1.49-.69,3,3,0,0,1-1.06-.52c.15.11-.15-.22-.15-.18a6.16,6.16,0,0,1-.33-.55,7.58,7.58,0,0,1-.5-1.38c-.06-.18-.12-.37-.17-.55a15.28,15.28,0,0,1-.38-1.81,11.82,11.82,0,0,0-.31-1.24,23.78,23.78,0,0,0,2.35-1.23,10.72,10.72,0,0,0,2.41-1.62,10.59,10.59,0,0,0,1.47-2.37,42.59,42.59,0,0,0,2.26-4.72.65.65,0,0,0,0-.13,10.23,10.23,0,0,1,1.91.13c.72.11,1.46.11,2.17.27a15.25,15.25,0,0,1,1.84.51,14.63,14.63,0,0,1,1.9,1.13c2.79,1.47,6,3,9.15,1.95.79-.27,2.32-.34,2.62-1.38a1.88,1.88,0,0,0-.13-1.23,2.23,2.23,0,0,0-2.21-1.29c-1.37-.07-2.64.36-4,0a41.26,41.26,0,0,1-4.51-1.76,9.5,9.5,0,0,0-2.33-.65,4.92,4.92,0,0,0-2.16.38c-1.37.42-2.7,1-4.07,1.43.17-.64.27-1.3.47-1.94.15-.47.31-.92.48-1.38.39-.17.77-.38,1.16-.55.76-.32,1.53-.57,2.29-.89.28-.11.55-.24.83-.37a13.1,13.1,0,0,0,3.3-1.11c.74-.38,1.45-.8,2.2-1.16s1.35-.55,2-.91c.42-.25.65-.62,1.08-.83a6.77,6.77,0,0,0,1.85-1.31c.53-.5,1.14-.94,1.62-1.49a16.51,16.51,0,0,0,1.19-1.73c.19-.29.38-.65.59-.92a.06.06,0,0,0,0,0h.15c.79,0,1.59-.3,2.39-.38s1.51,0,2.26-.09a1.34,1.34,0,0,0,.37-.1c2,0,4-.06,6,0a16.85,16.85,0,0,0,1,3.28,15.72,15.72,0,0,0,2.07,4,9.94,9.94,0,0,0,3.74,2.58c1.37.67,2.75,1.29,4.16,1.82s1.53,1.58,2.14,2.76a2,2,0,0,1,.1.21c-.47-.17-.93-.35-1.41-.51-.64-.22-1.29-.46-1.94-.62a5,5,0,0,0-2.38.26c-2.82.72-5.21,2.72-8.24,2.2a4.57,4.57,0,0,0-2.46.14,1.67,1.67,0,0,0-.44.31.72.72,0,0,0-.74.65,32.29,32.29,0,0,0-.17,4.92c0,1.64.06,3.28.18,4.92a44.42,44.42,0,0,0,.57,4.74,16.78,16.78,0,0,0,.56,2.43,22.81,22.81,0,0,1,.83,2.36s0,0,0,0a5.71,5.71,0,0,1,0-.93c.1,1,.16,1.56.16,1.45,0-.29.8-5.09,1.59-9.77a15.18,15.18,0,0,0,1.35.91,8.58,8.58,0,0,0,2.11.91,5.12,5.12,0,0,0,1.17.13,1.77,1.77,0,0,0,.93-.35s0,0,0-.07a4.16,4.16,0,0,0-.75-.48c-.3-.11-.59-.24-.87-.36a13,13,0,0,1-1.76-1q-.8-.53-1.53-1.11l-.37-.29c.05-.27.1-.54.14-.8l.7-.34a11,11,0,0,1,1.68-.55c.23-.06.47-.1.7-.14a2.6,2.6,0,0,0,1,1.78,2.3,2.3,0,0,0,.94.36h-3.1s4.1,2.57,8.05,0h-3a2.27,2.27,0,0,0,.79-.49,3.16,3.16,0,0,0,.92-1.49v0a5.94,5.94,0,0,0,1,0,6.44,6.44,0,0,0,2.32-.82,4,4,0,0,0,.74-.39c.17-.12.16-.43-.05-.48-.66-.16-1.26.21-1.9-.17a14.89,14.89,0,0,0-1.63-1A7.28,7.28,0,0,0,163,197a11.78,11.78,0,0,0-2.7-.49,13.84,13.84,0,0,0-3.15.2l-1,.18c0-.09,0-.19,0-.28a6.88,6.88,0,0,0,.9,0A14.69,14.69,0,0,0,162,195a20.78,20.78,0,0,1,4.12-2,19.89,19.89,0,0,1,2.55-.4l.78-.11.17.34a7.07,7.07,0,0,0,1.52,1.7c1.15,1,2.55,1.66,3.63,2.72a3.35,3.35,0,0,1,1.13,1.76c.08.38.07.79.17,1.18a3.89,3.89,0,0,0,.26.7v0a2.66,2.66,0,0,0,.82,2.4,3.06,3.06,0,0,0,.53.38,4.38,4.38,0,0,0,.77,2.41c.08.13.17.24.25.37a.31.31,0,0,1,0,.08c-.1.37-.22.74-.29,1.13a.17.17,0,0,0,0,.07c-.21.26-.43.51-.65.75a9.75,9.75,0,0,1-1,.94,3.92,3.92,0,0,1-.32.25.12.12,0,0,0-.16,0l-.32.24a1.59,1.59,0,0,0-.29.15A33.24,33.24,0,0,0,175.58,205.65ZM149,312.43v0a7.38,7.38,0,0,1-4.8,1.8,8.22,8.22,0,0,1,0-16.4,7.31,7.31,0,0,1,4.58,1.63h0a8.5,8.5,0,0,1,.22,12.94Zm1.68,8.3q-3.31,10.74-6.5,21.54c-.27-.22-.52-.44-.8-.65a41.92,41.92,0,0,1-4.15-3.79l-.28-.28-.1-.09q2.66-7.43,5.48-14.8A11.86,11.86,0,0,0,150.68,320.73Zm-6.17-28h0a8.43,8.43,0,0,1-.15-1.6,7.71,7.71,0,1,1,15.38,0,9.38,9.38,0,0,1-.11,1.31h0a7.59,7.59,0,0,1-15.08.29Zm15.33,4.86a8.22,8.22,0,1,1-7.68,8.2A8,8,0,0,1,159.84,297.56ZM163.77,279c-6.46-7.48-19.8-5.31-26,2-1.34-2.79-2.48-5.7-3.6-8.54-.31-.8-.61-1.61-.92-2.41a71,71,0,0,0,34-1c-.63,1.89-1.28,3.76-1.95,5.63C164.8,276.07,164.3,277.51,163.77,279Zm-34.36-19.82c-.59-1.81-1.17-3.63-1.72-5.45-1.08-3.59-2.26-7.48-3.27-11.5-.29-3.11-.48-6.26-.57-9.48,0-.5,0-1,0-1.47a5.55,5.55,0,0,0,.5,1c.4.57.57.7.55,1.41,0,1.35.55,2.57.51,3.91a24.94,24.94,0,0,0-.17,3.86,7.32,7.32,0,0,0,.57,1.9,15.16,15.16,0,0,1,.39,1.47,12.43,12.43,0,0,0,2.14,3.58,17.16,17.16,0,0,0,1.48,1.79q.27.36.54.69a23.05,23.05,0,0,0,2.37,2.37,24.91,24.91,0,0,0,6.69,4.21,20,20,0,0,0,7.72,1.75c.33,0,.66,0,1,0a22,22,0,0,0,7.66-1.09,16.52,16.52,0,0,0,3.4-1.48,37.41,37.41,0,0,0,3.57-2.09,18,18,0,0,0,2.94-2.64l1.06-1.22c.24-.25.47-.5.69-.76a29.94,29.94,0,0,0,2.23-3.12,7.37,7.37,0,0,0,1-1.66c.21-.59.26-1.19.49-1.77a8,8,0,0,0,.55-4.15,12.19,12.19,0,0,1-.14-2.41c.08-.76.37-1.47.46-2.24a5.62,5.62,0,0,1,.14-1.66c.26-.61.76-1,1-1.7a4.18,4.18,0,0,0,.25-2.19,3.33,3.33,0,0,0-.16-.6,2.9,2.9,0,0,0-.25-.57,7.64,7.64,0,0,0,1.14-1.41l.33-.58a33.12,33.12,0,0,1,.6,6.93c-.12,4.24-.4,8.36-.89,12.44-.86,3.56-1.82,7-2.72,10.28-.25.9-.51,1.8-.77,2.69a5.42,5.42,0,0,0-1.11.27A62.54,62.54,0,0,1,129.41,259.13Zm6.75-18.77,4.63-3.17s1.72-2.55,2.7-4h11c1,1.43,2.77,4,2.77,4l4.44,3a1.92,1.92,0,0,0-1.32,1.75,1.78,1.78,0,0,0-.82-.21,1.87,1.87,0,0,0-1.77,1.42,1.71,1.71,0,0,0-1.08-.38,1.83,1.83,0,0,0-1.69,1.21,1.78,1.78,0,0,0-1.32-.6,1.82,1.82,0,0,0-1.6,1,1.75,1.75,0,0,0-1.16-.45,1.81,1.81,0,0,0-1.62,1,1.79,1.79,0,0,0-1.51-.84,1.81,1.81,0,0,0-1.56.93,1.81,1.81,0,0,0-1.59-1,1.79,1.79,0,0,0-1.31.59,1.85,1.85,0,0,0-1.7-1.21,1.77,1.77,0,0,0-1.08.38,1.86,1.86,0,0,0-1.76-1.42,1.7,1.7,0,0,0-.64.13,2,2,0,0,0-.27-.23A1.91,1.91,0,0,0,136.16,240.36Zm29.27,6.14.08,0,0,.07A.36.36,0,0,0,165.43,246.5Zm7.46-18.94,0,0C172.75,227.35,172.75,227.33,172.89,227.56Zm-35.07-67.39a205.69,205.69,0,0,0-22.46,2.71c0-.31-.09-.63-.16-.95-1.26-6-2.53-11.93-3.51-18-1.8-11-2.9-9.93-3.42-21.06,8.38-10.8,18.75-19.71,29.55-28Zm-13.1,148.24,2.53-.51c-.06.2-.11.4-.15.58a2,2,0,0,0-.13.64c0,.16,0,.29,0,.32a14.47,14.47,0,0,0,.13,3.79c-2.41,1.79-4.24,4.63-6.34,6.74-1.23,1.22-2.45,2.45-3.63,3.7l-.19-.94-.33-1.68-2.08-10.45C117.92,310,121.33,309.3,124.72,308.41Zm-12.06-7-1.4-7.1a53.07,53.07,0,0,0,7.62,3c1.83.55,3.68,1,5.53,1.5A112.28,112.28,0,0,1,112.66,301.39Zm12,23.06a38.86,38.86,0,0,0,5.17-4.24,19.3,19.3,0,0,0,1.23,1.73,41.11,41.11,0,0,0-2.18,6.45l-.07-.06a18.12,18.12,0,0,0-2-1.32c-.24-.14-.47-.29-.7-.44l-.22-.14a4.35,4.35,0,0,1-.73-.51l-.24-.24a5.66,5.66,0,0,0-.89-.82Zm25.62,22.74,0,0q2.56-9.75,5.35-19.42c.86,2.19,2.18,4.11,3.07,6.29,1.26,3.07,2.42,6.27,3.9,9.28a24,24,0,0,0-4.67.25A13.91,13.91,0,0,0,150.3,347.19Zm5.82-25.62,6.49.77,33.53,30.5L173.78,349S159.6,327.46,156.12,321.57Zm10.26-26c3-5,5.15-10.48,7.18-16q4-10.69,7-21.69c3.72-13.55,8-29.85,4.16-43.85,4.92,2.45,11.78,6.95,13.87,13.75.07.27.44,3.17.8,6.22,1,1.63,3,2.64,4.39,3.73,2.4,1.88,4.71,3.85,7.17,5.65,4.32,3.16,9.34,6.64,14.24,8.4a14.22,14.22,0,0,1,5.9,4.44c.42,1.21.8,2.47,1.37,3.8-5.79-.38-11.4.29-16.49,4.06a183.68,183.68,0,0,0-16.54,13.94c-6.37,6-14,11.24-22,14.13-2,.71-4,1.35-6.07,2a3.9,3.9,0,0,0-2,.59Zm35.85-9.7c5.47-4.51,10.74-9.31,16.28-13.72a83.41,83.41,0,0,1,15.37-9.54,23.53,23.53,0,0,0,4.35,4.46,92.28,92.28,0,0,1,5.74,8.32c5.78,9.11,9.31,19.39,14.3,28.89A258.13,258.13,0,0,1,182.48,297,59.67,59.67,0,0,0,202.23,285.9Zm-133.08-105a13.86,13.86,0,0,0-3.8-1.17,13,13,0,0,0-4.22-.12c-1.88-2.77-.24-7,2-9.48a16,16,0,0,1,13.27,9.43A10.22,10.22,0,0,0,74,182.84a10.46,10.46,0,0,0-.58,1.16A15.44,15.44,0,0,0,69.15,180.91Zm-.54,18.27c-2.46,4.33-7,5.33-11.26,4.5,0-.12-.05,0-.07-.07a16.88,16.88,0,0,1-9.82-9.88h0c.34.07.68.14,1.05.18a12,12,0,0,0,5.44-.68,7.77,7.77,0,0,0,6.67,4,8,8,0,0,0,7.65-6.42,5.14,5.14,0,0,1,.85,1,5.44,5.44,0,0,1,.27.54A8.6,8.6,0,0,1,68.61,199.18ZM55.88,171.49a12.72,12.72,0,0,0,.21,10.35,8.36,8.36,0,0,0-.93.95c-.21.22-.42.46-.62.71a7.73,7.73,0,0,0-.78,1.05,6.81,6.81,0,0,0-.92,3.09,6.25,6.25,0,0,1-3.57.7,3.66,3.66,0,0,1-3-2.41A17,17,0,0,1,55.88,171.49ZM14.12,416.24V339.19l-.06-1.05c.43-49.42,7.19-96.44,20.09-139.88a4.55,4.55,0,0,0,4.21,3.07,3.84,3.84,0,0,0,.83-.09,28.67,28.67,0,0,0,5.48,6.82,5.06,5.06,0,0,0-.83,2.79,4.7,4.7,0,0,0,4.54,4.85,4.5,4.5,0,0,0,4-2.49,23.63,23.63,0,0,0,3.34.91,26.47,26.47,0,0,0,3.57.68c.39-.1.78-.2,1.17-.32s.76,0,1.13-.06a4.56,4.56,0,0,0,4.23,3.1,4.7,4.7,0,0,0,4.54-4.84,4.8,4.8,0,0,0-.13-1.14c4.46-2.84,7.66-7.7,8.09-14.48a17.25,17.25,0,0,0-.64-5.8,11.32,11.32,0,0,1,.76-4.94l3.2,16.12a5,5,0,0,1,.17.86l5.34,26.88a5.05,5.05,0,0,0-.88,1.57c-2.45,7.1-11.22,9.67-17,13.34a29.21,29.21,0,0,0-8.1,7.16c-2.5,3.4-3.37,7.56-6,10.88-4.86,6.12-9.62,11.73-13,18.87-3.78,8-5.92,16.51-7.59,25.16C27.73,342.33,21.48,377.61,15,412.84,14.71,414,14.42,415.11,14.12,416.24ZM77.7,501H17.5q1.7-16.68,3.36-33.36,1.17-11.73,2.36-23.46c.17-1.72.35-3.44.53-5.16s.44-3.28.63-4.91c.91-7.6,1-15.26,2.06-22.84s2.35-15.1,3.76-22.6c1.45-7.74,2.58-15.5,3.77-23.28,1.69-11.06,4.11-22,6.09-33,.74-3.1,1.33-6.25,2-9.37q1.37-5.12,2.89-10.18c.21,0,.41,0,.62.07a102,102,0,0,0,15.49,1.43l6,0,5.28,0c6.29,0,12.59-.09,18.85-.62,4-.34,8.14-.85,12.22-1.46l.5,2.53.59,3,1.13,5.67-.35-.09a11.6,11.6,0,0,0-1.79-.25c-2.79-.18-5,2.21-5.81,4.68-.19.63-.34,1.29-.49,1.92l-.13.55a20.27,20.27,0,0,0-.58,3.49c-.12,2.13-.09,4.39,1.74,6.51l.07.08a2.45,2.45,0,0,0-.08.29c-.25,1-1,4.35,0,6.95a7.28,7.28,0,0,0,1.15,1.94,3.55,3.55,0,0,0,.09.47,22.09,22.09,0,0,0-5.56,4q-3.75,3.76-7.58,7.42c-5.12,4.89-10.46,9.5-15.85,14s-10.62,9.19-15.87,13.86-9.79,9.92-14.93,14.61c-.55.5.15,1.32.73,1,6.2-3.25,12.46-6,18.31-9.94a161.93,161.93,0,0,0,16.81-13.05c5.25-4.69,10.31-9.62,15.36-14.55q3.8-3.71,7.49-7.51a19.7,19.7,0,0,0,1.4-1.59,7.54,7.54,0,0,0,.65,1.19,1.59,1.59,0,0,0,.72.86h0c-.06.34-.11.7-.14,1.07a12.72,12.72,0,0,0,0,2.9c0,.08,0,.18,0,.3a8.17,8.17,0,0,0,.11,1.35,5.81,5.81,0,0,0,.59,3.3,5.4,5.4,0,0,0,2.81,2.6,8,8,0,0,0,6.26,0,17,17,0,0,0,3.77.49,33.59,33.59,0,0,0-4.32,3.8,62.89,62.89,0,0,0-4.94,6.33c-3.35,4.87-6.32,10-9.41,15-6.32,10.28-13,20.37-20,30.19C62,447.13,48.23,467.4,31.19,484.27c-.8.78.38,1.91,1.21,1.21,18.86-15.8,37.87-30.88,53.54-50a342.82,342.82,0,0,0,20.43-27.69c-7.28,22.6-13.84,45.48-20.8,68.18Q81.73,488.48,77.7,501Zm9.13,0C96.39,471,105.44,440.93,115,411q2.49-7.77,4.91-15.55l4.38,22c-.55,2.37-1.12,4.74-1.65,7.11-5.73,25.42-11,51-17.06,76.34Zm27.66,0c4.12-17.42,8-34.92,12-52.36a3.74,3.74,0,0,0,1,.33c1,.2,2.11.36,3.17.54l2.72,13.73.22,1.12L140.83,501Zm72.77,0h-35l-9.89-49.82a229.33,229.33,0,0,0,47,.46Zm2.49-58a218.55,218.55,0,0,1-49.12-.62l-1.11-5.6a228.85,228.85,0,0,0,50.47.73Zm-52-15.08-3.09-15.59q3.14-13.91,6.37-27.8,2.34,2.14,4.69,4.26c2.39,2.15,4.78,5.3,7.7,6.89,0,.43.07.87.1,1.31-.47,4.74-1.19,9.82,2.87,12.93,3,2.29,6.48,3.53,9.38,1.85a104.16,104.16,0,0,0,12.15,9.75c3.6,2.53,7.7,6.07,12.09,7.39A218.43,218.43,0,0,1,137.76,427.88Zm66.52,74.39h-7.71l4.18-75.3a1.48,1.48,0,0,0,.56.13c1.51.08,3,.13,4.5.2Zm2.84-90.44c-2.83-.07-5.66-.1-8.49-.18-1.42,0-2.84-.09-4.26-.2-.63-.05-1.27-.11-1.9-.18l-1.06-.12-.24,0-.27-.05-.2,0c.14,0,0-.1-.83-.39-2.61-.89-5.17-1.95-7.71-3.05l-.19-.08-1-.46-1.62-.8c-1.26-.64-2.49-1.32-3.69-2.05s-2.51-1.61-3.72-2.49c-1.52-1.1-2.88-2-4.83-1.92l-1,.15c-.38.06-.45.07-.23,0s.15,0-.26,0a2.85,2.85,0,0,0-.65.05l-.26,0c-.36-.11-1.42-.25-1.51-.27a8.42,8.42,0,0,0-1-.05,40,40,0,0,0,.43-5.14c.17-3.87.32-7.74.42-11.62s.31-7.9.07-11.84a77.08,77.08,0,0,0-1.65-11.41,15.84,15.84,0,0,0-2.36-5.57,14.36,14.36,0,0,0-1.79-2.16l.15,0c1.7.26,3.42.08,5.06.68a43.21,43.21,0,0,1,5.11,2.16A27.67,27.67,0,0,1,170,356.3a2.78,2.78,0,0,0,.12.38,22,22,0,0,0,1.67,3.1,31.44,31.44,0,0,1,1.3,3.6c.53,1.28,1.14,2.51,1.69,3.77,1.12,2.59,2.15,5.22,3.27,7.82.52,1.23,1,2.47,1.58,3.68.28.63.59,1.26.92,1.85s.91,1.09,1.17,1.69a.21.21,0,0,0,.2.12h.18c.17,0,.28-.29.1-.38,0,0,.1-1.59.08-1.74-.07-.67-.17-1.34-.24-2-.15-1.34-.42-2.67-.7-4-.58-2.76-1.52-5.49-2.32-8.19a62.43,62.43,0,0,0-2.9-7.38c.56.08,1.14.15,1.71.21a47.63,47.63,0,0,1,5.13.94c.93.21,1.86.39,2.8.55l.06.05a67.28,67.28,0,0,1,7.82,7.21c.53.8,1.05,1.61,1.55,2.44,3.62,6,6.91,12.28,9.94,18.67a174.85,174.85,0,0,1,9,23.32C211.83,412,209.47,411.88,207.12,411.83Zm30,89.12c-1-11-1.92-21.93-2.59-32.93a254.91,254.91,0,0,0-5-38.67c-.82-3.78-1.82-7.47-3-11.1a183,183,0,0,0-14.13-37.65,95,95,0,0,0-10.1-16.3,24.39,24.39,0,0,1,2.88,1.7,47,47,0,0,1,4.35,3.51,73.85,73.85,0,0,1,21.26,24.35c8.33,14.78,14,31.51,18,48.51,2.06,8.68,3.71,17.42,5.08,26,1.72,10.81,3,21.67,4,32.56Zm30.14,0c-.88-10.56-2-21.1-3.5-31.58-2-14-4.35-28.41-8-42.37q-.67-2.62-1.43-5.22a173.08,173.08,0,0,0-6.3-18.21,132.69,132.69,0,0,0-6-12.69C236,379.76,227.82,369.65,217.45,363c3.42,0,6.85.12,10.28.16,4.6.06,9.23.18,13.83.45,5.1.3,10.78-.16,15.77.89.81.17,1.16-1.11.34-1.32-5-1.29-9.58-3.66-14.69-4.71a107.27,107.27,0,0,0-14.48-2c-2.8-.18-5.67-.22-8.56-.18A143.17,143.17,0,0,1,241,345.32c.5-.2.45-1-.13-1-6.16-.11-12.7,0-18.69,1.75a59.78,59.78,0,0,0-11.42,4.73c-12.08-11.68-25-23.79-40.78-29.92a2.94,2.94,0,0,0,.31-.22,14.06,14.06,0,0,0,2.55-3,16.58,16.58,0,0,0,2.52-10l.74.11c10.54,1.56,21,4.05,31.55,5.47,10.8,1.45,21.46.63,32.26,1.1a78.62,78.62,0,0,0,10.85-.3q3.28-.09,6.59-.24a7.71,7.71,0,0,0,2.14.5h0a3,3,0,0,0,.36.25l.08.1c0,.05.06.12.13.25s.27.51.39.77a46.11,46.11,0,0,0,2.79,8.06c.46,1.86.66,3.75,1,5.64a62.16,62.16,0,0,0,1.65,6.62c.57,2,1.37,3.9,1.92,5.89s1,4.26,1.53,6.37c1.06,4.21,1.76,8.56,2.54,12.83a123.09,123.09,0,0,1,1.66,12.59c.21,2.42.41,4.83.84,7.21s.49,3.36.73,5.74c.46,4.48.79,8.95,1.09,13.44a42.75,42.75,0,0,0,.95,7.49c0,.16.08.31.13.48q.46,13.78,1,27.59c.51,15,1.1,29.93,1.69,44.89q.41,10.24.83,20.5Zm108.58-14.32c-6.62,6.15-14.32,11.61-22.86,14.12H295.22q.42-10.15.82-20.3.69-17.71,1.35-35.43,2.26-14.7,4.32-29.43c1.5-10.84,2.89-21.7,4.1-32.59.94-8.39,1.93-16.87,3.36-25.25,2.48-14.56,6.29-28.83,13.42-41.86A247.09,247.09,0,0,0,353.17,326a81.88,81.88,0,0,0-6.24,10.1c-1.39,2.69-2.75,5.44-3.95,8.26-2.65-.15-5.3-.15-7.88-.11-.58,0-.63.83-.13,1l.25.11c2.2.5,4.41,1.13,6.61,1.84-.25.68-.5,1.36-.73,2a171.12,171.12,0,0,0-6.42,28.29c-1.6,10.21-2.66,19.88-4.22,30a221.56,221.56,0,0,1-4.61,23q-.9,3.43-2,6.81c-.87,2.73-1.83,5.44-2.9,8.1a48.38,48.38,0,0,0-2.35,6.59c-.32.68-.58,1.41-.87,2.11-.56,1.4-1.09,2.81-1.55,4.25s-.92,3.08-1.29,4.63c-.22.6-.44,1.19-.64,1.79a32.44,32.44,0,0,0-2,10c0,.35,0,.7,0,1.05a34.78,34.78,0,0,0,.68,5.48c.17.81.38,1.6.62,2.38s.73,1.72.91,2.57l.09.5h0a.72.72,0,0,0,1.41-.18,83.51,83.51,0,0,1,1-9.07h0c.16-.56.35-1.11.5-1.68s.23-.89.34-1.34l.39-1.5c0,.62,0,1.23,0,1.85a58.76,58.76,0,0,0,.41,6.78c.19,1.43.38,2.85.58,4.28.11.79.3,1.57.38,2.36a23.43,23.43,0,0,1,0,2.65.3.3,0,0,0,.59,0c0-.76,0-1.56.05-2.32s.36-1.67.52-2.5c.3-1.48.61-3,.9-4.44.06-.3.1-.59.16-.89.21-1.2.39-2.4.55-3.61.23,1.78.5,3.56.79,5.33.7,4.16,1.55,8.29,2.4,12.41a.33.33,0,0,0,.64-.09c-.09-3.08-.07-6.16,0-9.24.08-2.64.2-5.27.34-7.9.3,1.34.63,2.68,1,4,.62,2.07,1.2,4.15,1.8,6.23.14.48.27,1,.41,1.44.08.26.5.22.48-.06l0-.85c-.22-4.71-.19-9.41-.3-14.12v-.12a13,13,0,0,0,.67,2,15.85,15.85,0,0,0,.85,1.7,7.38,7.38,0,0,1,.94,2.27l0,.13a.23.23,0,0,0,.27.19.93.93,0,0,1,0,.13c.12.35.68.2.57-.16s-.3-.85-.45-1.29a16.41,16.41,0,0,1,.5-3.5,29.17,29.17,0,0,0,.39-3.22c0-.36.07-.72.1-1.09a46.91,46.91,0,0,1,1.37-7.24c.06-.24.12-.48.19-.71.12-.45.26-.9.39-1.35.67-2.31,1.37-4.61,2-6.93.19-.68.39-1.36.54-2.05a8.13,8.13,0,0,0,.13-.84c8.11-22.16,11.68-45.4,15.14-68.77,1.47-9.9,2.56-20.23,4.92-30.09,10.73,3.91,21.56,6.95,32.68,4a6.47,6.47,0,0,1,.93-.16,22.73,22.73,0,0,1,5.59-2.17,71.49,71.49,0,0,0-3,8.51c-.44,1.49-.86,3-1.28,4.5-1.66,5.9-3.23,11.83-5.08,17.68-.57,1.79-1.25,3.55-1.77,5.36a17,17,0,0,1-1.09,2.77,9.46,9.46,0,0,1-2,2.56c-.36.36.19.91.56.56.68-.63,1.29-1.32,2-1.88s1.28-1,1.91-1.46a24.12,24.12,0,0,0,3.8-3.55c.32-.4.63-.8.92-1.2a30.89,30.89,0,0,0,2.19-3.49,53.07,53.07,0,0,0,2.45-5.23c1.49-3.64,2.52-7.47,3.64-11.24.52-1.76,1.07-3.53,1.65-5.28a2,2,0,0,0,.11-.26,14.87,14.87,0,0,0,.51-1.51c.17-.47.32-.93.5-1.39a1.43,1.43,0,0,1,.08-.22,4.16,4.16,0,0,1,.22-.48,22,22,0,0,0,1.67-3.1,2.78,2.78,0,0,0,.12-.38l.55-.36a19.19,19.19,0,0,1,4.08-5.72l1.31.15c1.42.17,2.84.33,4.25.52s2.62.42,3.92.7l.62.14a17.23,17.23,0,0,0-3.09,4.12,22.21,22.21,0,0,0-1.19,2.69c-1.71,2-2.95,8.09-3.21,9.52a71.25,71.25,0,0,0-.82,11.59c-.15,9.05-.38,18.08-1.34,27.09C407.92,436.12,398.05,466,375.89,486.63Zm23.49-294-.06-.27a46.64,46.64,0,0,1-1.35-8.09L409.34,178l-2.39,5.1.8-.21c6.5-1.71,14-12.33,16.46-15.82l0,0v.08a9.86,9.86,0,0,0,.15,1.15l.24-1.17c.13,2.28,1.3,6.85,8.43,8.31v.4l.69.13.9.14-1.58-2.31v.69l-1.87-2.71,1.87.78v.42l6.72,2.81v-.59a15.9,15.9,0,0,0-.27-2.53c4.75,5.91,8.89,9.36,12.31,10.26l.81.21-2.39-5.1,12.6,7a47.38,47.38,0,0,1-1.3,7.43l-1,6.39c.12-.15.29-.39.49-.68.86-1.24,2.24-3.35,2.24-3.35s3.63,1.6,4,4.22l-1.57,9.52a8.84,8.84,0,0,0-2.64,2.78c-.07.51-.58,4.18-3.52,4.37.06-.72.11-1.45.13-2.17.07-2-.06-4,0-6a.21.21,0,0,0-.39-.09l0,0c-.7,2.28-1.53,4.52-2.32,6.76-.18,1.12-.38,2.24-.63,3.35a59.67,59.67,0,0,1-2.71,9c-.5,1.25-1.05,2.47-1.65,3.68a17.9,17.9,0,0,0-.1-3.87,27.41,27.41,0,0,1-.11-4.53c0-.25-.37-.25-.39,0a18.16,18.16,0,0,1-.79,4.52,23.49,23.49,0,0,0-1,4.19c-.18,1.4-.15,2.79-.23,4.19-.2.3-.4.6-.62.9l-.54,3.46c-.1.7-.21,1.4-.31,2.1,0,.31-.14.69-.2,1.07a13.38,13.38,0,0,1-6.65,6.23,18,18,0,0,1-4.07,1.22l-1.25.08a23.75,23.75,0,0,1-3.59-1,6.5,6.5,0,0,0-1.86-.23,7.06,7.06,0,0,0-2,.46,16.58,16.58,0,0,0-1.6.63l-.62-.09c-4.21-.64-9.36-2.12-11.84-5.9a21.78,21.78,0,0,0-.54-3.13c-.28-1.41-.55-2.82-.82-4.23-.08-.42-.17-.85-.25-1.27l-.45-.54a32.1,32.1,0,0,1,0-5.8.53.53,0,0,1,0-.13v-.07a7.59,7.59,0,0,0-.31-2.94c-.65-2.22-2.09-4.25-3.14-6.27-.11-.21-.43,0-.32.19a10.86,10.86,0,0,1,.41,1,20,20,0,0,1,.68,4.25,17.25,17.25,0,0,0,1,4.55,21.32,21.32,0,0,1,1,4.18c-.27-.4-.52-.78-.74-1.13a33.42,33.42,0,0,1-3.11-6.83c-1-2.85-1.88-5.76-2.62-8.68-.38-1.5-.72-3-1.08-4.5-.57-1.62-1.16-3.29-1.68-4.94l0-.13-.05,0a.6.6,0,0,0-.37-.24.66.66,0,0,0-.28,0,.57.57,0,0,0-.43.58c0,.86,0,1.72,0,2.58,0,1.11-.05,2.27,0,3.4,0,.52.05,1.06.1,1.71-2-.45-2.56-2.89-2.71-4l-.05-.15a9.28,9.28,0,0,0-2.61-2.8L394,199c.28-1.92,2.6-3.28,3.43-3.71.41.63,1.39,2.11,2.05,3.07l.95,1.37ZM424.5,165.4l-.18.07v0c-2.43,1.19-14.13,1.62-21.37,1.88,13.58-15.49,41.5-16.42,54.57,0l-.59,0c-6.91-.25-17.33-.62-20.93-1.63a7.39,7.39,0,0,0-2.84-1.46l-.1,0v.4c-2-.54-4.65-.38-8.13,1l.12-.59Zm28.39,175a12,12,0,0,1,2.67.22.2.2,0,0,1,.13-.06c2.18,0,4.32-.48,6.52-.47,2,0,4,.25,6,.22l1.56,0,1.37.08a2.25,2.25,0,0,1,1.38.42h0l0,.06a1.74,1.74,0,0,1,.12.14A2.48,2.48,0,0,1,473,343a16.49,16.49,0,0,1-.44,2.43,3,3,0,0,1-.45.91c-3.55-.27-7.44.75-11,1.43l-1.07,0c-.49.11-1,.24-1.47.37-.32,0-.64.08-.95.1a.4.4,0,0,0-.34.21l-.69.14c-.31.05-.2.52.07.54,1.48.13,2.94.4,4.4.67l3.16,0c1,0,1.93.06,2.9.05l.9,0c.86.09,1.73.21,2.61.3a2,2,0,0,1,1.17,2,8.29,8.29,0,0,1-.95,4,1.73,1.73,0,0,1-.45.54c-1.49.08-3,.31-4.46.41l-1.94.15-2.45,0-1.61.06a5.35,5.35,0,0,1-.67.24q-1.34.08-2.67.12a.48.48,0,0,0,0,.95c3.43.37,6.84.94,10.25,1.45l1.88.32a3.43,3.43,0,0,1,0,2.32,14.81,14.81,0,0,0-.32,1.47,2.74,2.74,0,0,1-.15.51s0,.18-.05.32a1.51,1.51,0,0,1-1.76,1.34,25.08,25.08,0,0,0-3-.14,57.5,57.5,0,0,1-6.56-.3h-.13c-.22.06-.43.13-.64.21-1.56.59-2.81,2-4.27,2.86-1.73,1-3.52,1.88-5.25,2.9-.81.48-1.61,1-2.46,1.38-.45.21-.89.41-1.33.63l0,0-.51,0c-2,.1-4.06.41-6.09.41-1,0-2-.3-3-.2a5,5,0,0,0-2.81,1.48c-1.37,1.18-2.59,2.52-4,3.66-1.59,1.3-3.15,2.73-4.66,4.13-.22.21-.45.4-.68.6q.11-3.42.19-6.85c.07-2.37,0-4.74,0-7.12,0-1.11.05-2.22.08-3.33.52-3,1.15-6.34,2.69-9l.38-.29.74-.59c.17-.15.35-.29.53-.43l.12-.1c.89-.66,1.81-1.32,2.63-2.06a9.9,9.9,0,0,0,.72-.73c.7-.35,1.4-.71,2.08-1.12a25.44,25.44,0,0,0,4.38-3.74c1.3-1.26,2.61-2.46,3.87-3.76s2.56-2.85,3.88-4.24a18.54,18.54,0,0,1,1.87-1.79,25.9,25.9,0,0,0,2-2.09c.65-.64,1.4-1.14,2.08-1.74a24.25,24.25,0,0,1,2-1.79c.76-.54,1.56-1,2.35-1.51a6,6,0,0,0,.71-.53l1.24-.49c1.17,0,2.35.05,3.52-.07,1.8-.17,3.57-.57,5.36-.78.69-.09,1.37-.2,2.05-.31h1.8c.81,0,1.61-.07,2.41-.15l1.14-.12c.21,0,.48-.11.71-.13.42.57.38.47.47,1.05.14.95.47,1.85.63,2.81a9.48,9.48,0,0,1,.33,2.47c-.08.63-.68,1.12-1.09,1.62a33,33,0,0,0-4.54.37c-1.66.26-3.35.13-5,.28s-3.54.63-5.31.85c-.87.12-1.73.27-2.59.45s-1.63.75-2.47.86C452.56,339.88,452.56,340.43,452.89,340.38Zm-41.1-6.05c-3.93,6.07-7.93,12.17-9.18,14.06-.3.23-.6.45-.88.69l-21.87,3.76c-2.43,1.27-11.89-1.95-14.65-2.07a.19.19,0,0,1-.19-.1q-2.26-1.19-4.59-2.21.26-.34.51-.66c1.09-1.31,2.08-2.74,3.07-4.11a37.24,37.24,0,0,1,6.6-7c.33-.27.76-.59,1.22-.91.88-.62,1.91-1.29,2.82-1.82s1.55-.84,2.34-1.21q.52-.25,1.05-.48l.42-.19.52-.2.8-.28h.78l.22,0,7.2.73,3.26.42c3.43.43,6.85.92,10.29,1.25a2.32,2.32,0,0,0,1.08-.17l1,.1.44-.38,7.89.61-.25.14Zm-88.2,133.31A29.68,29.68,0,0,1,325,462.4c.68-1.72,1.66-3.28,2.29-5s1.34-3.66,2.07-5.47a.39.39,0,0,1,.76.2c-.45,1.9-1,3.77-1.47,5.65s-.61,3.72-1.06,5.55a30.27,30.27,0,0,1-1.93,5.22c-.78,1.74-1.82,3.35-2.57,5.09-.1.24-.45.06-.4-.17C323.13,471.54,323.21,469.57,323.59,467.64Zm-2.9-.61c-1,1.57-2.17,3.05-3.21,4.61-.09.13-.32.05-.27-.11.59-1.81,1.1-3.63,1.78-5.41s1.43-3.4,2.25-5a26.71,26.71,0,0,1,2.95-4.89c1.2-1.49,2.3-3,3.46-4.56a.46.46,0,0,1,.8.47c-.81,1.74-1.63,3.44-2.3,5.23a30.63,30.63,0,0,1-2.52,4.94C322.69,463.88,321.71,465.48,320.69,467Zm7.69,1.6c0-.88.1-1.77.18-2.65a36.63,36.63,0,0,1,.92-5.19c.83-3.54,2-7,3-10.52a.33.33,0,0,1,.63.17c-.59,3.63-1,7.29-1.59,10.91a45.5,45.5,0,0,1-1.16,5.45c-.26.86-.5,1.72-.81,2.56a15.83,15.83,0,0,0-.86,2.54c0,.23-.39.13-.35-.1A25.76,25.76,0,0,0,328.38,468.63Zm.58-19.58a19.27,19.27,0,0,0-3.42,1.54c.61-1.62,1.32-3.21,1.94-4.83s1.16-3.14,1.7-4.73a21.05,21.05,0,0,1,2.46-2,41,41,0,0,0,6.72-5.45l.61-.72a141.22,141.22,0,0,1-4.36,14l-.52.26A37.13,37.13,0,0,1,329,449.05Zm5.77-17.13c-1.12.87-2.31,1.61-3.49,2.39,1.26-4.52,2.32-9.1,3.22-13.7l1.27-1.14a65.24,65.24,0,0,0,5.95-6c.77-.91,1.5-1.85,2.17-2.82-.58,2.94-1.17,5.89-1.78,8.82-.39,1.82-.78,3.64-1.19,5.45-.3.52-.62,1-1,1.54A25.06,25.06,0,0,1,334.73,431.92Zm8.43-26.37a44,44,0,0,1-5.41,6.24l-2.05,2c.19-1.15.38-2.3.56-3.46q.5-3.17.94-6.33c.08-.42.15-.85.23-1.27.41-.69.72-1.48,1.11-2.1a14.79,14.79,0,0,1,2.49-3.13c1.93-1.82,4.2-3.21,6.11-5.05q-.76,4.56-1.59,9.12A33.13,33.13,0,0,1,343.16,405.55Zm.16-15.68a42.18,42.18,0,0,0-4.35,3.74c.65-4,1.28-8,1.92-12.06.68-.85,1-2,1.62-2.87a15.25,15.25,0,0,1,2.15-2.59c1.88-1.85,4.07-3.35,5.82-5.33a1.58,1.58,0,0,0,.12-.15c-.36,2.18-.69,4.35-1,6.5s-.68,4.47-1,6.7l-.23.45A17.09,17.09,0,0,1,343.32,389.87Zm3-21.36a34.29,34.29,0,0,0-3.86,3.66q.71-4.21,1.5-8.41c.64-3.33,1.41-6.67,2.34-10,.38-.5.77-1,1.18-1.46a25,25,0,0,1,6.14-4.93c1.42-.82,2.83-1.55,4.16-2.4a80.53,80.53,0,0,0-5.68,17.68,2.14,2.14,0,0,1-.13.19A29.54,29.54,0,0,1,346.3,368.51Zm4.49-23a21.46,21.46,0,0,0-2.56,2.29,60.68,60.68,0,0,1,9.36-17.23c.3-.06.6-.11.91-.15a25.51,25.51,0,0,1,9.05.69,38.48,38.48,0,0,0-6.61,8.13c-.79.56-1.62,1.08-2.44,1.57A87.59,87.59,0,0,0,350.79,345.48Zm23-23.46a8.63,8.63,0,0,1,2.07,2.58,6.63,6.63,0,0,1,.59,1.53c0,.07,0,.14.05.22-.36.14-.71.28-1.06.44a10.22,10.22,0,0,0-3.4,1.13c-.4.21-.79.44-1.18.68h0a15.2,15.2,0,0,0-2.86-.94,21,21,0,0,0-7.74-.18,30,30,0,0,1,9.82-7.23A7.34,7.34,0,0,1,373.77,322Zm-1.17-2.67a17.54,17.54,0,0,1,2.5-.49c5.76-.68,10.2,2.18,14.9,4.8-.19,0-.38,0-.57,0-.93,0-1.87.07-2.79.16a37.12,37.12,0,0,0-8.7,2,7.64,7.64,0,0,0-.43-2.06,7.13,7.13,0,0,0-2.6-3.44A6.91,6.91,0,0,0,372.6,319.35Zm31.67,5.34a7.23,7.23,0,0,0-3.61-2.71,6.6,6.6,0,0,0-2.64-.26,64.67,64.67,0,0,0,6.55-7.4,5.19,5.19,0,0,1,1.88-.14c1.38.18,2.47,1.39,3.66,2a6.23,6.23,0,0,0,2.06.67A50.82,50.82,0,0,1,404.27,324.69Zm5.5-12.14a5.64,5.64,0,0,0-3.56-.49,72.59,72.59,0,0,0,4.73-7.8l.52-.2a6.62,6.62,0,0,1,3.81.28,6.73,6.73,0,0,0,4.33.32l.23-.09a63,63,0,0,1-4.84,8.5,11,11,0,0,1-1.6.51C412,313.87,411,313.14,409.77,312.55Zm-1.87-67.3a15.18,15.18,0,0,1,3.82,1.44,12.43,12.43,0,0,0,1.56,2.11,13.78,13.78,0,0,0,1.74,1.58,10.93,10.93,0,0,0-5.53,1.25,9.46,9.46,0,0,0-1.27.86,22.9,22.9,0,0,1-3.34-7.36A7.46,7.46,0,0,1,407.9,245.25Zm-3.68-4a26.25,26.25,0,0,1,.1-5.3,27.45,27.45,0,0,1,.76-3.9c1.42,2.68,3.08,5.81,5,9.47a10.94,10.94,0,0,0,.24,1.72A12,12,0,0,0,404.22,241.21Zm7.34,12.32a9.41,9.41,0,0,1,5.6-1.74,18.88,18.88,0,0,0,2.73,1.19,12.88,12.88,0,0,0-1.67,7.83,25.13,25.13,0,0,1-8-5.79A5.74,5.74,0,0,1,411.56,253.53Zm12.38,5.19a5.21,5.21,0,0,1,.7.71,2.39,2.39,0,0,0,.69.4,3.13,3.13,0,0,0,2.07.12,6.94,6.94,0,0,0,3.15-2.57,15.7,15.7,0,0,1,2.44-2.45,10.11,10.11,0,0,1,1.11-.73l.23.13a1.2,1.2,0,0,1,.42,1.6q-1.12,2.2-2.24,4.43a12.68,12.68,0,0,1-1.93,1.07c-1.87.85-3.87,1.38-5.71,2.33a14.24,14.24,0,0,0-4.19,3.29c.05-.25.09-.49.13-.73.26-1.42.55-2.82.91-4.18,0-.68.09-1.36.16-2,.23-.54.46-1.08.72-1.61.34-.68.7-1.35,1.09-2a9.67,9.67,0,0,1,5.87-3.84,11.86,11.86,0,0,1,2.78.72,19.45,19.45,0,0,0-2.43,1.38c-1,.6-2,1.21-2.84,1.84-.48.38-.92.81-1.38,1.21s-1.08.84-1.56.6A.18.18,0,0,0,423.94,258.72Zm13.3-4.75a22.45,22.45,0,0,0,5.85-1.87,6.61,6.61,0,0,1,1,5.25,27.64,27.64,0,0,1-1.45,3.54,30.47,30.47,0,0,1-6.93,2.08A14.66,14.66,0,0,0,437.24,254Zm10,17.34a96.8,96.8,0,0,0,12.05-2.48c2.26-.61,4.51-1.3,6.73-2l2-1-4.46,20L455.9,284l-17.71-3.87-4.2-.92c.33-1.74.65-3.5.95-5.26a14.09,14.09,0,0,0,.2-2A73.24,73.24,0,0,0,447.28,271.31ZM459,239.63c0,.25,0,.5-.09.74a24.9,24.9,0,0,1-2.83,8.52,6.93,6.93,0,0,0-2.46-2.44,7.1,7.1,0,0,0-3.83-.94,11.56,11.56,0,0,0,.93-3.35A10,10,0,0,1,459,239.63Zm-6.55-1.27c2.1-3.93,3.82-7.18,5.21-9.86a23.45,23.45,0,0,1,1.49,8.21,12.5,12.5,0,0,0-3.15.22A11.32,11.32,0,0,0,452.41,238.36Zm-.7,10.13c1.24,1.08,1.21,2.46,1.53,3.94a2,2,0,0,0,.14.39,27.61,27.61,0,0,1-5.76,5.29,10.13,10.13,0,0,0-.29-3.1,6.87,6.87,0,0,0-2.54-3.87,14.2,14.2,0,0,0,2.8-2.34,12.8,12.8,0,0,0,1.16-1.49A5.19,5.19,0,0,1,451.71,248.49Zm8.83,57.34-.3-.84c-1,3.68-3.67,13.5-4.14,13.75q-2.12.39-4.2.84c-4.73,1-9.32,2.56-14.13,3.28-6.95,1-14.56.85-21.31-1.51a60.44,60.44,0,0,0,8.92-13.64,94.17,94.17,0,0,0,4.05-10.26l30.25,6-.53-1.47.53,1.47.93.19-.37,1.37Zm-23.39,31.63-.1.09-.28.28a41.92,41.92,0,0,1-4.15,3.79c-.28.21-.54.43-.8.65-.65-2.21-1.32-4.42-2-6.62a62.25,62.25,0,0,0,6.54-.32C436.63,336,436.9,336.75,437.15,337.46ZM423.43,287.8a15.82,15.82,0,0,1-4.49,1.87,9.73,9.73,0,0,0-2.72,1.15c.23-.89.46-1.78.68-2.67.51-2.1,1-4.21,1.38-6.33a18.34,18.34,0,0,1,5.91-2.66,23.12,23.12,0,0,0,2.82-.9,2,2,0,0,0,.25-.14q-.6,4-1.42,7.94C425.05,286.65,424.26,287.26,423.43,287.8Zm-1.1-19.94a24.47,24.47,0,0,1,5-2.74,27.07,27.07,0,0,0,3.73-1.77q-1.21,2.49-2.32,5c-.31,1.7-.57,3.42-.81,5.14-.4.4-.8.8-1.21,1.19a6.6,6.6,0,0,1-2.24,1.1,27,27,0,0,0-2.86,1.26,13.26,13.26,0,0,0-2.79,2c.2-1.06.39-2.13.58-3.2a1.08,1.08,0,0,0-.08-.19c.3-1.94.58-3.89.89-5.83A13,13,0,0,1,422.33,267.86Zm-6.92,25.81a5.07,5.07,0,0,1,.54-.36c1.49-.86,3.25-.78,4.9-1.07a8.73,8.73,0,0,0,4-1.9c-.65,2.55-1.4,5.07-2.28,7.55l-.42,1.13c-1.11.81-2.13,2-3.4,2.56s-2.51.09-3.7,0a6.14,6.14,0,0,0-3.08.63q1.39-2.84,2.56-5.76Q415,295.06,415.41,293.67Zm1.74,40.78,1.6,0c1.23.27,2.47.48,3.71.66.87,3.12,1.72,6.26,2.56,9.39a4.83,4.83,0,0,0-2.35.53,14.06,14.06,0,0,0-4.59-1.48,24,24,0,0,0-4.67-.25C414.82,340.45,416,337.39,417.15,334.45ZM470,252.51c-2.26.61-4.45,1.43-6.7,2.21-2.54.88-5.12,1.71-7.73,2.44a34.14,34.14,0,0,0,4.15-4.18c6.73-8.13,12.54-22.5,6.77-32.55a6.29,6.29,0,0,0-1.31-1.61c1.84-.71,3.41-.3,5.46,1.13a43.51,43.51,0,0,1,4.94,4l.35.35Zm-70.81-32c.21.45.45.94.71,1.48-1.49,3.61-3.37,6.88-3.53,11.19a30.14,30.14,0,0,0,4.09,15.41,28.19,28.19,0,0,0,2.78,4.08c-1.42-.48-2.83-1-4.24-1.48-6.82-2.43-13.77-4.14-20.74-6-2.82-.77-5.35-1.79-7.83-2.63,1.16-2,2-4.29,3-6a48.41,48.41,0,0,1,8.05-10.71c3.28-3.17,8.07-3,12.33-3.74A19.4,19.4,0,0,0,399.22,220.53ZM377,251.78c2.89,1.4,5.66,3.17,8.45,4.75,2.46,1.39,5,2.68,7.5,3.9l2.23,1.05c3.28,1.5,6.61,2.89,10,4.21,2.81,1.11,5.71,2.08,8.67,2.92-.25,1.45-.51,2.93-.79,4.44a3.58,3.58,0,0,0-1.64,1.26L400,271.83l-3.33-.73-.73,3.32q-2.1-1.67-4.05-3.45c-4-3.64-7.62-7.6-11.52-11.39a102.35,102.35,0,0,0-10.4-8.75A10.7,10.7,0,0,1,377,251.78Zm-5.55,10.16c1.25,1.87,2.54,3.71,4,5.47,5,6.19,11.38,11.42,17.88,16l.62.42-1.24,5.64,13.42,2.93a66.61,66.61,0,0,1-9.21,16.7c-2.39-1.84-4.76-3.67-7.17-5.38-3.85-2.74-7.79-5.94-12-8.05a34.71,34.71,0,0,1-7.93-4.81l-6.3-5.47c-.47-.41-1.16.27-.68.68l6.84,6c2.35,2.05,3.56,4.24,5.31,6.74,3,4.22,6.94,8,10.47,11.72,1.69,1.78,3.38,3.64,5.1,5.5-.67.61-1.36,1.19-2.07,1.77l-.05-.05c-8.33-8.23-19.49-4.92-27.84,1.5a246.21,246.21,0,0,1-43.73-14.37s9.77-25.68,20-40.11c.26-.55.53-1.09.81-1.63,3.05-1.72,6.31-3.17,9.26-4.65,5.83-2.91,11.73-4.41,17.89-6.22C367.19,255.34,369.26,258.67,371.46,261.94Zm45.33,238.81H388.73l-.13-3a3.29,3.29,0,0,0,1.37-.47c17-10.79,25.75-27,30-45.08,2.37-.12,4.73-.27,7.09-.47Zm12.14-57.69q-3.6.35-7.21.57c.3-1.85.56-3.7.78-5.57q3.81-.24,7.61-.6Zm3-14.39q-4.31.48-8.64.78a306.47,306.47,0,0,0,0-34.29c2.58-1.68,4.76-4.45,6.94-6.41q2.36-2.12,4.69-4.26,1.67,7.13,3.29,14.24Zm9,72.08c.66-8.71,4-29.49,8.08-52a2.67,2.67,0,0,0,.52-.2c4,17.37,7.8,34.8,11.91,52.16Zm58.12,0-.78.2H470.43l-.05-.2h0c-4.26-18-8.17-36.05-12.12-54.1l-4.8-21.38c4.22-21.64,8.48-41.49,11-50.16l1.89,1.67-.6-.69a15.6,15.6,0,0,0-1.22-1.22c.37-1.23.7-2.22,1-2.95a8,8,0,0,0,5.94-.08,5.4,5.4,0,0,0,2.81-2.6,5.81,5.81,0,0,0,.59-3.3,8.17,8.17,0,0,0,.11-1.35c0-.12,0-.22,0-.3a12.19,12.19,0,0,0,0-2.9c0-.37-.08-.73-.14-1.07h0a1.53,1.53,0,0,0,.71-.86,6.85,6.85,0,0,0,.66-1.19c.42.53.87,1.05,1.39,1.59q3.7,3.81,7.5,7.51c5.05,4.93,10.11,9.86,15.36,14.55A161.93,161.93,0,0,0,517.28,395c5.85,4,12.11,6.69,18.31,9.94.58.31,1.28-.51.73-1-5.14-4.69-9.73-10-14.93-14.61s-10.5-9.34-15.87-13.86-10.73-9.15-15.85-14q-3.82-3.64-7.58-7.42a22.09,22.09,0,0,0-5.56-4,3.55,3.55,0,0,0,.09-.47,7.28,7.28,0,0,0,1.15-1.94c1-2.6.28-6,0-6.95a2.45,2.45,0,0,0-.08-.29l.07-.08c1.83-2.12,1.86-4.38,1.74-6.51a21.3,21.3,0,0,0-.58-3.49l-.13-.55c-.07-.3-.14-.6-.22-.91A298,298,0,0,0,521,317.44l12.14,2.65c.27,1,.54,1.94.8,2.91.66,3.12,1.25,6.27,2,9.37,2,11,4.4,21.91,6.09,33,1.19,7.78,2.32,15.54,3.77,23.28,1.41,7.5,2.71,15,3.76,22.6s1.15,15.24,2.06,22.84c.19,1.63.34,3.29.63,4.91s.36,3.44.53,5.16q1.2,11.73,2.36,23.46,1.65,16.57,3.34,33.16Zm-13.33-191,19.13,4.18c-7.65,2.18-16.75,4.44-27,6.4-.12-.64,2-11.7,2-11.7l5.91,1.25A.5.5,0,0,1,485.75,309.74Zm-2.3-19.51,1.76-6.9,5.31-26.67a104.77,104.77,0,0,1,20,15.89A102.83,102.83,0,0,1,530,300.2l-6.13-1.34-31.05-6.78Zm78.43,49v77.05c-.3-1.13-.59-2.27-.91-3.4-5.38-29.38-10.63-58.79-16.16-88.14a4.12,4.12,0,0,0,.62-1.24l0,0,.15-.67,7.58,1.66,4-18.33-8.38-1.83a4.44,4.44,0,0,0-1.74-2.49,16,16,0,0,0-2.1-4.25c-.49-.75-1-1.48-1.48-2.17q-4.65-6.66-9.45-13.21c-5.93-8.08-11.48-16.78-18.76-23.73a64.72,64.72,0,0,0-13.4-9.43c-.19-4-3.85-8.27-5.84-11.5-.43-.69-.87-1.38-1.31-2.07l2.75-13.84L498,219l3-15.23-17.21-4.19L481.3,199l-3.61,17.12a25.93,25.93,0,0,0-4.64-2.67,6.52,6.52,0,0,0-6.85.62l0-.21a10.92,10.92,0,0,1,3.13-3.32l.31-.23,2.08-12.64v-.06c-.35-2.76-3.21-4.65-4.7-5.45a50.18,50.18,0,0,0,1.26-9.92c1.59-2.06,2.65-5.52-1-10.41a27.12,27.12,0,0,0-1.69-5.25l-.11-.2a41.06,41.06,0,0,0-70.19,0l-.1.19a19.34,19.34,0,0,0-.87,2.27c-.28.47-.56.94-.82,1.43-2.6,2.92-3.86,5.66-3.72,8.16a7.38,7.38,0,0,0,2.8,5.19,50.5,50.5,0,0,0,1.2,8.52c-1.48.8-4.35,2.69-4.7,5.45v.06l2.08,12.64.3.23a10.92,10.92,0,0,1,3.13,3.32c.05.3.13.73.26,1.22-2.15-.33-4.38-.37-5.73-.5-5.55-.55-10.23.7-14.21,4.68a59.35,59.35,0,0,0-9.12,12.08c-1.61,2.78-3.76,6.35-4.12,9.81a17,17,0,0,0-4.6,1,48,48,0,0,0-17.29,11.22l-.17.18-1.06.18-1.17,1.18c-15,15.39-24.31,35.09-32.62,54.76a12,12,0,0,0,0,2.08c0,.23-.07.46-.11.69-.66,4.36-.62,9.83,1.44,13.21l.08-.07a4.27,4.27,0,0,0,.29.41c-3.36,9.6-7.3,23.06-8.3,35.71,0,0-5.17,42.25-5.78,45.6l3.23-75.1c1-51.64,8.41-100.09,22.1-144.1,11.44-36.77,27.25-70.55,47-100.42C389,51,415.13,27,428.62,17.13c13.48,10.64,39.71,36,64.05,73.45a402.27,402.27,0,0,1,35.26,67.86l13.92,39.82c12.9,43.44,19.66,90.46,20.09,139.88Z"/><path class="cls-4" d="M412.07,197.31l.26-.05h-.15Z"/><path class="cls-2" d="M398.9,202.07a2.43,2.43,0,0,0-.35-1,2.34,2.34,0,0,0-.27-.52,7.13,7.13,0,0,0-1-.91,15.06,15.06,0,0,1-1.32-1.94.25.25,0,0,0-.39,0,2.14,2.14,0,0,0-.32,2.43,3.55,3.55,0,0,0,.8,1.16,5,5,0,0,1,.52.48c0,.1,0,.19,0,.29a1.26,1.26,0,0,0,0,.16,2.64,2.64,0,0,0-.22.67c-.07.36-.12.71-.16,1.07a6.77,6.77,0,0,0,0,2.06,4.92,4.92,0,0,0,1.12,2.3,9.22,9.22,0,0,0,.74.79.21.21,0,0,0,.32-.25,3.08,3.08,0,0,1-.35-1.6,10.43,10.43,0,0,1,.17-1.47,12.19,12.19,0,0,1,.39-1.61c.09-.28.23-.55.31-.84a1.73,1.73,0,0,0-.06-1.08S398.91,202.11,398.9,202.07Z"/><path class="cls-2" d="M462.19,204.1a10.8,10.8,0,0,1,.39,1.61,10.43,10.43,0,0,1,.17,1.47,3.07,3.07,0,0,1-.34,1.6.2.2,0,0,0,.31.25,9.22,9.22,0,0,0,.74-.79,4.74,4.74,0,0,0,1.12-2.3,7.11,7.11,0,0,0,.06-2.06c0-.36-.1-.71-.17-1.07a2,2,0,0,0-.22-.67,1.26,1.26,0,0,0,0-.16,1.42,1.42,0,0,0,0-.29,6.28,6.28,0,0,1,.52-.48,3.58,3.58,0,0,0,.81-1.16,2.16,2.16,0,0,0-.33-2.43.24.24,0,0,0-.38,0,15.13,15.13,0,0,1-1.33,1.94,7.13,7.13,0,0,0-1,.91,2.81,2.81,0,0,0-.26.52,2.45,2.45,0,0,0-.36,1,.36.36,0,0,1,0,.11,1.73,1.73,0,0,0-.06,1.08C462,203.55,462.1,203.82,462.19,204.1Z"/><path class="cls-4" d="M447.18,190.22l-.14.05.2,0Z"/><path class="cls-2" d="M434.63,203.61a41.8,41.8,0,0,0,.64,5,18.79,18.79,0,0,0,.65,2.53,19,19,0,0,1,1,2.46s.06,0,.05,0a5.18,5.18,0,0,1,0-1c0,.19,0,.35.06.5s0,0,0,.06,0,0,0,0a7.63,7.63,0,0,0,.12.95c0-.11.12-.87.33-2,.55-1.6,1.1-3.18,1.57-4.81.29-1,.57-2.05.84-3.08a6.23,6.23,0,0,0,.15-.62,15.18,15.18,0,0,0,1.07,1.33,4.71,4.71,0,0,0,2.69,1.46,6.62,6.62,0,0,0,3.19-.05,7.78,7.78,0,0,0,1.38-.55c.5-.28.94-.66,1.44-.94a.1.1,0,0,0-.1-.17,5.55,5.55,0,0,1-2.71.45,10.3,10.3,0,0,1-2.76-.36c-.8-.23-1.56-.6-2.36-.85a4.57,4.57,0,0,1-1.82-1.12c-.06-.48-.23-.93-.33-1.4,0,0,0-.11,0-.17.19-.08.37-.17.57-.24a12,12,0,0,1,1.94-.58c.27-.06.54-.11.82-.15a2.69,2.69,0,0,0,1.19,1.86,3.22,3.22,0,0,0,1.09.38h-3.58s4.74,2.68,9.3,0h-3.5a2.66,2.66,0,0,0,.91-.52,3.23,3.23,0,0,0,1.07-1.55v0a6.92,6.92,0,0,0,3.46-.69,18.93,18.93,0,0,0-2.74-1.28l-.48-.09a13.35,13.35,0,0,0-1.45-.36,28.48,28.48,0,0,0-3.33-.36,30.37,30.37,0,0,0-3.44,0c-.27,0-.54,0-.8.06l-.4-.14-.11,0h0l-.07,0a.61.61,0,0,0-.14-.07c-.37-.18-.74-.38-1.1-.58a9.6,9.6,0,0,0,2.2-.56,22.48,22.48,0,0,1,2.29-.56,14.3,14.3,0,0,1,1.84-.17c.61-.23,1.21-.47,1.79-.74a24.73,24.73,0,0,1,4.76-2.13,23.17,23.17,0,0,1,2.74-.39c0-.25.08-.5.13-.75a2,2,0,0,0-.26-.06,23.67,23.67,0,0,0-4.11-.5,26.19,26.19,0,0,0-6.6.6,9.56,9.56,0,0,1-4.8.64,6,6,0,0,0-2.85.15,1.81,1.81,0,0,0-.5.33.79.79,0,0,0-.86.67,30.45,30.45,0,0,0-.2,5.14C434.42,200.19,434.48,201.9,434.63,203.61Z"/><path class="cls-2" d="M405.72,192.06c.36,0,.72.06,1.08.11.83.12,1.68.12,2.5.28s1.44.32,2.13.53a17.32,17.32,0,0,1,2.2,1.19l1.2.56a1,1,0,0,1,.88.38,21.59,21.59,0,0,0,2.44.89c.91.16,1.82.31,2.74.39h0c.08.08.16.14.23.22.38.36.74.75,1.1,1.13-1.78,0-3.55-.17-5.33-.24l-1.5-.05a19.62,19.62,0,0,0-2.18-.21,8.91,8.91,0,0,0-1.52.47c-.63.27-1.24.57-1.86.86-.46.22-.92.47-1.38.71-.2.16-.4.31-.59.48l-.12.12a.19.19,0,0,0,.17.06c1.22-.15,2.39-.17,3.62-.2h.6a.44.44,0,0,0,0,.16,2.78,2.78,0,0,0,1.25,2.21,3.22,3.22,0,0,0,1.09.38H411s4.74,2.68,9.3,0h-3.6a2.66,2.66,0,0,0,.91-.52,3.23,3.23,0,0,0,1.07-1.55s0-.11,0-.16c.57.13,1.14.28,1.7.45a15.77,15.77,0,0,0,1.75.61.79.79,0,0,0,.93-.48,10,10,0,0,1,.73-1.26l.41.49c.16.2.33.39.5.58l.23.27.39.43a4,4,0,0,1,.35.37l0,.09a.09.09,0,0,0,.13.07c.08,0,.2,0,.16-.14a.53.53,0,0,1,0-.12.16.16,0,0,0,0-.12s0,0,0,0a6,6,0,0,0,.07-.85,6.51,6.51,0,0,0-.1-1,13.36,13.36,0,0,0-.45-1.76c-.05-.15-.09-.3-.14-.45-.15-.46-.32-.91-.48-1.37-.09-.24-.18-.48-.26-.72s-.19-.55-.28-.83l-.13-2-1.12-.28a9.63,9.63,0,0,1-3.21-.07,32.84,32.84,0,0,1-3.95-1.35,43.11,43.11,0,0,0-5.67-.5,25.8,25.8,0,0,0-4.8,1.22c-.12.24-.23.48-.35.71a1,1,0,0,0,.3,0A.36.36,0,0,0,405.72,192.06Z"/><path class="cls-2" d="M421.14,202.4a6,6,0,0,1-.9.84,4.24,4.24,0,0,1-1.21.64c-.38.13-.76.28-1.13.42s-.87.32-1.31.45a10.42,10.42,0,0,1-2.67.36h-.24a7.16,7.16,0,0,1-1.6-.13,3.5,3.5,0,0,1-1-.32c-.1-.06-.2.1-.09.17.47.27.89.63,1.36.9a7.47,7.47,0,0,0,1.37.57h0a6.58,6.58,0,0,0,3.27.07,4.71,4.71,0,0,0,2.64-1.42c.21-.22.4-.46.59-.7a14.13,14.13,0,0,0,1.18-1.61C421.56,202.45,421.29,202.24,421.14,202.4Z"/><path class="cls-2" d="M440.33,232.53l-1,.73-6.27-2.21s0,0,0,0c-2.35,2.31-4.69,0-4.89,0s-.67.24-1.47.55c-1.66.65-4.12,1.66-4.12,1.66a4.31,4.31,0,0,0-1-.5c-.07,0-.12,0-.1.08.35,1.85,3.1,2.21,3.1,2.21H436c4.75-.19,4.39-2.54,4.39-2.54Z"/><path class="cls-2" d="M433.88,238.63c-.28-.12-.55-.22-.83-.31a9.11,9.11,0,0,0-5.87.31l0,0-2.48-1.93-.07-.06c.49,4.52,2.69,4.4,2.69,4.4h7c1.68-1.23,2.26-4.16,2.46-4.57l-.19.16C435.91,237.14,433.88,238.63,433.88,238.63Z"/><path class="cls-2" d="M425.46,221.36a1.93,1.93,0,0,1,0,.24c0,.13-.06.24-.06.38s0,0-.05,0-.16-.24-.22-.38-.07-.21-.11-.32l-.21-.68c-.12-.45-.25-.91-.35-1.37,0-.22-.14-.61-.19-1a.75.75,0,0,0-.15.09,4.25,4.25,0,0,0-1.14,1.41,6.74,6.74,0,0,0-.47,2,.4.4,0,0,1,0,.11,3.81,3.81,0,0,0,.41,1.88l0,0a3.25,3.25,0,0,0,.76,1.08c.3.44.6.85.63.9a16.22,16.22,0,0,1,1.78-.72l.19.23,1.91,2.4.12.16.19.08a4.91,4.91,0,0,0,1.41.38l.18,0h.65l.19,0a5,5,0,0,0,1.41-.38l.18-.08.13-.16.39-.49,1.71-2.14,1.77.73.55-.79a2.92,2.92,0,0,0,.89-1.17l0-.07a3.81,3.81,0,0,0,.41-1.88.4.4,0,0,1,0-.11,6.74,6.74,0,0,0-.47-2,4,4,0,0,0-1.14-1.41.79.79,0,0,0-.25-.15c0,.17-.07.34-.1.52s0,.23-.07.35a3.64,3.64,0,0,1,.43.45,2.3,2.3,0,0,1,.33.52,2.3,2.3,0,0,0-.33-.52,3.64,3.64,0,0,0-.43-.45c0,.13,0,.26-.07.38a7.49,7.49,0,0,1-.49,1.4c-.06.27-.13.48-.15.56v0l-.12,0-.25.54c0,.06-.12,0-.11,0s0-.24.05-.36l0-.2h-.06a2.73,2.73,0,0,0-.41,0,4.27,4.27,0,0,0-.9.1l-.33.06-.19.25-.33.41c-.48.6-1,1.2-1.23,1.5a7.14,7.14,0,0,1-1.22.23h-.35a1.44,1.44,0,0,1-.69-.12l-2.18-2.12-.19-.18-.27,0a4.06,4.06,0,0,0-.82-.08H426A2.62,2.62,0,0,0,425.46,221.36Zm9.34.69h-.18ZM432,227.22l1.1-1.39-1.1,1.39-.08,0Zm-1.13.29a1.93,1.93,0,0,0,.36-.06,1.93,1.93,0,0,1-.36.06l-.14,0Zm-.78,0,.14,0-.14,0-.34,0Zm-4-5.46h0Z"/></g></g></svg>