<svg xmlns="http://www.w3.org/2000/svg" viewBox="0 0 1147.29 1198.7"><defs><style>.cls-1{fill:#f6f6f6;}.cls-2,.cls-3{fill:#2d2c42;}.cls-3{opacity:0.25;}.cls-4{fill:none;}.cls-5{fill:#fff;}</style></defs><g id="Layer_2" data-name="Layer 2"><g id="Layer_3" data-name="Layer 3"><path class="cls-1" d="M289.08,439.82h.28l-.15,0Z"/><path class="cls-1" d="M286.68,441.05a3.94,3.94,0,0,1,.75-.72h0A3.94,3.94,0,0,0,286.68,441.05Z"/><path class="cls-1" d="M299.94,451.49l.15-.08L303,447l-2.92,4.42Z"/><path class="cls-1" d="M294.52,444.78,290.39,440l4.13,4.83a2,2,0,0,0,.84.52A2,2,0,0,1,294.52,444.78Z"/><path class="cls-1" d="M305.07,439.84c.2,0,.4,0,.6,0h-.26Z"/><path class="cls-1" d="M344.34,453.3l0,0C344.08,452.81,344.08,452.84,344.34,453.3Z"/><path class="cls-1" d="M329.52,491a1.34,1.34,0,0,0,.07.18l.07-.14Z"/><path class="cls-1" d="M308.33,433a8.72,8.72,0,0,1,.81,1,5.32,5.32,0,0,1,.61,1.16,5.64,5.64,0,0,0-.61-1.17A9.53,9.53,0,0,0,308.33,433Z"/><path class="cls-1" d="M286.74,432.54a.14.14,0,0,0-.09,0,.12.12,0,0,1,.09,0Z"/><path class="cls-1" d="M517.08,625.93l.12.05C517.48,626.1,517.47,626,517.08,625.93Z"/><path class="cls-1" d="M848.88,442.3l-.16,0h.16Z"/><path class="cls-1" d="M858.83,453.05a7,7,0,0,1-.71.12l-.28,0,.28,0A7,7,0,0,0,858.83,453.05Z"/><path class="cls-1" d="M856.84,453.2l-.28,0a5.77,5.77,0,0,1-.67-.12,5.77,5.77,0,0,0,.67.12Z"/><path class="cls-1" d="M862.56,449.82l-2.19,2.75-.16.07.16-.07Z"/><path class="cls-1" d="M866.05,442.29l-.36,0a4.58,4.58,0,0,1,.64,0Z"/><path class="cls-1" d="M870.7,438.18a4.8,4.8,0,0,0-.65-1,10.21,10.21,0,0,0-.85-.9,10.21,10.21,0,0,1,.85.9A4.8,4.8,0,0,1,870.7,438.18Z"/><path class="cls-1" d="M915.6,604.39l1.12,3.1.73-2.73Z"/><path class="cls-2" d="M311.25,434.56a9.14,9.14,0,0,0-2.12-3.18,1.7,1.7,0,0,0-1.25-.55,1.75,1.75,0,0,0-.8.22s0,0,.05,0c1.08,2.6.06,6.54-.12,7.18v.12a4.67,4.67,0,0,0-1.6-.27,7.07,7.07,0,0,0-1.69.22l-.61.15-.35.54c-1.06,1.61-2.34,3.47-2.91,4.31a10.59,10.59,0,0,1-2.26.5l-.24,0h-.42a2.47,2.47,0,0,1-1.28-.28l-4.07-4.76-.35-.41-.51-.12a7,7,0,0,0-1.51-.18,4.67,4.67,0,0,0-1.6.27s-1.32-4.45-.14-7.29c0,0,0,0,.06,0a1.79,1.79,0,0,0-.79-.21h0a1.71,1.71,0,0,0-1.25.56,9,9,0,0,0-2.11,3.17,17,17,0,0,0-.87,4.52,10,10,0,0,0,.75,4.47l0,.09a7.34,7.34,0,0,0,1.42,2.44c.56,1,1.11,1.91,1.17,2a27.78,27.78,0,0,1,3.31-1.62l3.91,5.93.23.34.35.19a8,8,0,0,0,2.63.85l.33,0c.2,0,.4,0,.61,0s.41,0,.61,0l.35,0a7.87,7.87,0,0,0,2.61-.85l.35-.19.23-.34,3.91-5.93,3.29,1.66s.5-.85,1-1.79a6.61,6.61,0,0,0,1.65-2.63l.06-.16a9.86,9.86,0,0,0,.75-4.47A17.4,17.4,0,0,0,311.25,434.56Zm-24.51-2h0a.12.12,0,0,0-.09,0A.14.14,0,0,1,286.74,432.54Zm.69,7.79a3.94,3.94,0,0,0-.75.72,3.94,3.94,0,0,1,.75-.72h0Zm1.65-.51h.13l.15,0Zm5.44,5L290.39,440l4.13,4.83a2,2,0,0,0,.84.52A2,2,0,0,1,294.52,444.78Zm5.57,6.63-.15.08.15-.08L303,447Zm5-11.57.34,0h.26C305.47,439.82,305.27,439.83,305.07,439.84Zm4.07-5.83a8.72,8.72,0,0,0-.81-1,9.53,9.53,0,0,1,.81,1,5.64,5.64,0,0,1,.61,1.17A5.32,5.32,0,0,0,309.14,434Z"/><path class="cls-1" d="M232.18,639.48l.66,3.35A2.33,2.33,0,0,0,232.18,639.48Z"/><path class="cls-3" d="M232.18,639.48l.66,3.35A2.33,2.33,0,0,0,232.18,639.48Z"/><path class="cls-1" d="M265.75,924.51a2.21,2.21,0,0,0,.28.32l-.44-2.23A2.39,2.39,0,0,0,265.75,924.51Z"/><path class="cls-3" d="M265.75,924.51a2.21,2.21,0,0,0,.28.32l-.44-2.23A2.39,2.39,0,0,0,265.75,924.51Z"/><path class="cls-2" d="M283.35,396.63c.83-.95,1.53-2.07,2.33-3.07a.77.77,0,0,0-.5-1.28,8.8,8.8,0,0,0-2.89.77c-.52.17-1.05.31-1.55.5a4.13,4.13,0,0,0-.81.35,1.06,1.06,0,0,0-.18.13l-.56-.07a24,24,0,0,0-11.41-2.46,20.28,20.28,0,0,0-7.1,1.34,13.31,13.31,0,0,0-3.11,1.72,10.21,10.21,0,0,0-1.26,1.11,13.93,13.93,0,0,0-.84,1.22h0a1.62,1.62,0,0,1-.31.33c-.07.06,0,.17.1.13a1.17,1.17,0,0,1,.31-.12h.1l-.57.36a.31.31,0,0,0,.24.57,56.49,56.49,0,0,1,6.24-.38l1,0c0,.11,0,.21,0,.32a5.45,5.45,0,0,0,2.16,4.21,4.92,4.92,0,0,0,1.87.72h-6s6.19,3.86,13,1.5c-.71.59-1.39,1.23-2.11,1.81a15.35,15.35,0,0,0-1.3,1.12c-.42.42-.76.88-1.21,1.27a8.4,8.4,0,0,1-3.38,1.51c-.25.07-.2.49.07.46a25.77,25.77,0,0,0,3.39-.56,10.27,10.27,0,0,0,3.5-1,10.43,10.43,0,0,0,2.7-2.64c.37-.52.67-1.09,1-1.63s.7-1.4,1.46-1.4c.1,0,.1-.17,0-.17-.46,0-.91-.1-1.36-.1.1-.07.21-.11.31-.18h-6.19a4.29,4.29,0,0,0,1.56-1,6.3,6.3,0,0,0,1.84-3,2.64,2.64,0,0,0,.07-.3c1,.25,2,.52,2.93.86a28.51,28.51,0,0,0,3,1.17,1.35,1.35,0,0,0,1.61-.92,20.33,20.33,0,0,1,1.35-2.57C283,397.07,283.16,396.85,283.35,396.63Z"/><path class="cls-2" d="M291.67,478.47s5.69-4.29,11.5-.5l5.68-9.06a40.55,40.55,0,0,1-24.38.37C284.23,469.21,289.71,473,291.67,478.47Z"/><path class="cls-2" d="M371.29,514.43h1.39l.21.93.12.52.58,3.54c.77-.44,1.56-.82,2.35-1.2a41.42,41.42,0,0,1,12.88-3.91l1.71-.23.1,1.35,0,.49a63.44,63.44,0,0,1-1.42,18.8h4.25l.25,1.44c.49,2.84,2.92,5.23,5.3,5.23h0a2.9,2.9,0,0,0,2.36-1.11,4.55,4.55,0,0,0,.75-3.54l-.32-2h4.21a78.4,78.4,0,0,1-7.27-18.19l-.32-1.23-.33-1.28,2.42.3a52.94,52.94,0,0,1,14.15,3.89c.72.3,1.44.58,2.15.91l-.58-3.54-.19-1.15,1.92,0,.21,0a2.88,2.88,0,0,0,2.12-1.12,4.63,4.63,0,0,0,.72-3.55c-.46-2.83-2.87-5.25-5.26-5.28l-1.36,0-.79-4.82a41.29,41.29,0,0,1-15.23,5.11l-1.61.21-.1,0-.13-1.84a65,65,0,0,1,.58-14.42c.23-1.48.5-2.94.84-4.38h-4.48l-.21-1.5c-.47-2.89-2.9-5.31-5.31-5.31h0a2.91,2.91,0,0,0-2.37,1.14,4.57,4.57,0,0,0-.74,3.57l.34,2-4,.08c.79,1.44,1.54,2.89,2.24,4.37.87,1.84,1.65,3.72,2.37,5.62a77,77,0,0,1,2.66,8.21l.66,2.51-2.43-.31a53.69,53.69,0,0,1-16.3-4.8l.75,4.59h-2a3,3,0,0,0-2.45,1.12,4.62,4.62,0,0,0-.73,3.58C366.45,512,368.88,514.43,371.29,514.43Z"/><path class="cls-2" d="M310.68,579.83a7.88,7.88,0,1,0-7.87,8.39A8.14,8.14,0,0,0,310.68,579.83Z"/><path class="cls-2" d="M318.57,617.53a8.41,8.41,0,1,0-7.86-8.39A8.14,8.14,0,0,0,318.57,617.53Z"/><path class="cls-2" d="M287.16,601.33a8.4,8.4,0,1,0,7.87,8.38A8.13,8.13,0,0,0,287.16,601.33Z"/><path class="cls-2" d="M938.39,201.93l.23.11-.22-.27C938.4,201.83,938.39,201.88,938.39,201.93Z"/><path class="cls-2" d="M742.28,754.05l.1,0-.14,0A.43.43,0,0,1,742.28,754.05Z"/><path class="cls-2" d="M1101.41,371.44c-23.7-74.94-56.48-144.77-97.43-207.55C934,56.55,865,7.44,862.12,5.4L854.43,0l-7.92,5.07C843.6,6.94,774.3,52,704.09,157.7c-41,61.74-73.85,131.52-97.57,207.42a959.84,959.84,0,0,0-32.81,144.17,974.88,974.88,0,0,0-32.94-144.17c-23.72-75.9-56.55-145.68-97.57-207.42C373,52,303.69,6.94,300.78,5.07L292.86,0l-7.69,5.4c-2.9,2-71.86,51.15-141.86,158.49C102.36,226.67,69.58,296.5,45.88,371.44,16.31,464.92.88,566.65,0,673.79l.11,351.45H1147.18l.11-351.45C1146.41,566.65,1131,464.92,1101.41,371.44ZM166,180.41c48.48-74.66,100.74-125.1,127.58-146.29,26.88,19.71,78.93,67.39,127.23,140.44,39.33,59.5,70.82,126.79,93.6,200,27.27,87.67,42.07,184.17,44,287h-.8v22c-1.62-6.94-3.43-13.84-5.55-20.65-4.83-15.47-15.5-30.93-15.7-47.26-.37-31.54-17.25-64.89-38.75-87.81-5-5.3-13.34-9.57-16.93-15.9-3.77-6.63-3.6-14-8.54-20.39-9.28-12-24.19-21.08-36.76-29.26-6.4-4.16-15.13-7.23-18-14.37s-4.41-12.93-9.85-18.75c-5.68-6.08-13.32-10.07-20.48-14.52a18.24,18.24,0,0,0,2.7-4.54,42.27,42.27,0,0,0,1.76-7.05,22.25,22.25,0,0,0,.3-6.81c-.12-1-.39-2-.52-3a11,11,0,0,0-.65-3.4c-.93-2-3.23-3.36-4.92-4.6a16.35,16.35,0,0,0-3.27-1.87c-.54-.23-1.07-.45-1.62-.64,0-.22.07-.43.1-.63.1-1,.13-2,.19-2.93a22.6,22.6,0,0,0-.28-6.2c-.8-4-2.81-7-5.19-10.09-1-1.35-2.72-2.57-3.55-4.07s-1-3.62-1.6-5.28l0-.06,1.11-20.6a5.29,5.29,0,0,0-1.9-4.39l-.79-.64c2.28-16.12,12.66-65.19,14.76-84.24a5.46,5.46,0,0,0-.92-3.68c-1.61-2.3-36.65-52.11-74.53-80.37a16.8,16.8,0,0,0,.18-2.26,14.71,14.71,0,0,0-9.3-13.9c-.82-5.94-1.36-15.42-1.6-17.75a23.8,23.8,0,0,1,8.58,2.74v-2.69a3,3,0,0,0,0-6v-2.62a23.56,23.56,0,0,1-5,2,24.18,24.18,0,0,1-3.54.73c0-.25.08-.48.11-.73a27.52,27.52,0,0,1,2.46-8.42h-2.53v0a2.84,2.84,0,1,0-5.67,0v0h-2.44a27.8,27.8,0,0,1,2.46,8.42c0,.25.08.48.1.73a23.79,23.79,0,0,1-3.53-.73,23.36,23.36,0,0,1-5-2v2.62h0a3,3,0,0,0,0,6h0v2.69a23.69,23.69,0,0,1,8.57-2.74c-.24,2.32-.77,11.67-1.58,17.61a14.69,14.69,0,0,0-9.64,14,15.5,15.5,0,0,0,.36,3.29c-21.24,16.34-66.75,52.91-79.67,76h0c-.79,1.41-1.94,3.5,3.33,42.15.34,2.49.7,5.14,1.1,7.94.3,2.11.6,4.29.93,6.6,2,13.93,6.66,20.67,10.36,34.65a5.43,5.43,0,0,0-.73,3.15l1.64,21.91a5.22,5.22,0,0,0,1.79,3.6,4.89,4.89,0,0,0,1.15.71l0,.14a16,16,0,0,0-.46,1.84c-.07.42-.31,1.31-.15,1.24a20.46,20.46,0,0,1-3,2.82c-2.25,2-4.83,3.44-7.21,5.22s-5.38,3.18-7.51,5.37a25.73,25.73,0,0,0-5,8.16c-1.26,3.22-1.27,7.28-.77,10.69a24.83,24.83,0,0,0,.82,4.12,19.76,19.76,0,0,0,2.41,4.31,42.34,42.34,0,0,0,2.28,3.62,9.31,9.31,0,0,0,2.28,1.94h0a10.41,10.41,0,0,0-.42,2.07,18.48,18.48,0,0,0,.41,3.91c.3,2.24,1,4.39,1.34,6.62a30.59,30.59,0,0,0,2.19,7.28c.47,1.09,1,2.23,1.55,3.3-6.59,5-11.75,12.63-14.92,20.86l-16.11-81.18a9.74,9.74,0,0,0,4.71-8.46,9.41,9.41,0,0,0-8.35-9.61,58.58,58.58,0,0,0-9.64-18.09,10.13,10.13,0,0,0,.8-3.95c0-5.32-4.05-9.64-9.05-9.64a8.52,8.52,0,0,0-4.84,1.52,51.85,51.85,0,0,0-16.68-7.18,9,9,0,0,0-17.76-1A51.29,51.29,0,0,0,100.19,319a9.08,9.08,0,0,0-4.44-3.36A802.14,802.14,0,0,1,166,180.41ZM517.2,626l-.12-.05C517.47,626,517.48,626.1,517.2,626ZM265.52,744.67l-.09,0-2.64-1.25c-1.7-.81-3.29-1.79-4.91-2.75-3.44-2-7-3.76-10.45-5.79-2.92-1.7-5.41-4.51-8.5-5.68-.43-.16-.85-.3-1.28-.43l-.27,0a107.43,107.43,0,0,1-13.06.6,52.35,52.35,0,0,0-6,.28,3,3,0,0,1-3.49-2.67c0-.27-.1-.58-.1-.63a4.59,4.59,0,0,1-.31-1,22.21,22.21,0,0,0-.64-2.91,6.82,6.82,0,0,1,0-4.63c1.24-.21,2.48-.44,3.73-.62,6.8-1,13.59-2.16,20.43-2.89a1,1,0,0,0,0-1.9c-1.78-.05-3.56-.14-5.33-.24a11.22,11.22,0,0,1-1.33-.49c-1.07,0-2.14-.08-3.21-.1-1.62,0-3.25,0-4.87-.06l-3.87-.29c-2.9-.21-5.91-.66-8.88-.82a3.32,3.32,0,0,1-.91-1.07,16.6,16.6,0,0,1-1.88-7.94c.09-2.14,1-3.31,2.34-3.93,1.74-.19,3.48-.42,5.2-.61.59,0,1.18.07,1.77.08,1.93,0,3.86-.12,5.79-.1,2.1,0,4.19.06,6.28.1,2.92-.54,5.83-1.08,8.77-1.34.53,0,.75-1,.14-1.08-.46-.07-.91-.17-1.37-.27a.82.82,0,0,0-.67-.42c-.62,0-1.26-.12-1.9-.2-1-.26-1.95-.53-2.93-.75l-2.13-.06c-7.17-1.35-14.92-3.37-22-2.84a6.58,6.58,0,0,1-.9-1.82,33.94,33.94,0,0,1-.88-4.83,5.08,5.08,0,0,1,.7-4.12,3.07,3.07,0,0,1,.25-.26.69.69,0,0,0,.05-.13h.07a4.37,4.37,0,0,1,2.74-.84l2.73-.16c1,0,2.07,0,3.11,0,4,.05,7.89-.44,11.85-.45,4.37,0,8.63.95,13,.94a.41.41,0,0,1,.25.11c1.76-.15,3.57-.67,5.32-.43.66.09.65-1,0-1.09-1.66-.24-3.23-1.37-4.92-1.72s-3.42-.67-5.15-.89c-3.54-.45-7-1.36-10.59-1.69-3.33-.31-6.71-.06-10-.57a63.69,63.69,0,0,0-9-.73c-.81-1-2-2-2.17-3.23-.2-1.52.43-3.43.67-4.91.31-1.91,1-3.72,1.25-5.62.17-1.15.09-.95.93-2.08.46,0,1,.2,1.42.26.76.11,1.51.17,2.27.24,1.59.15,3.19.26,4.8.29,1.19,0,2.38,0,3.58,0,1.35.22,2.71.44,4.09.6,3.57.43,7.1,1.22,10.68,1.57,2.34.23,4.7.12,7.05.13l1.24,0c.86.64,1.7,1.46,2.59,2,1.58,1,3.17,1.92,4.69,3a48,48,0,0,1,4,3.56c1.35,1.19,2.85,2.2,4.14,3.47s2.4,2.94,3.93,4.15a39.22,39.22,0,0,1,3.72,3.58c2.63,2.76,5.09,5.69,7.73,8.43s5.12,5,7.71,7.5c2.77,2.68,5.45,5.48,8.73,7.45,3.06,1.83,6.29,3.25,9.48,4.79a59.89,59.89,0,0,0,5.54,2.37c.77.28,1.54.52,2.32.76l.52.22a3.44,3.44,0,0,0,1.91,1c0,4-.2,8.07-.23,12.11,0,4.65.28,9.32.32,14s-.12,9.45,0,14.18q.18,6.83.38,13.64c-.45-.4-.91-.78-1.35-1.19-3-2.8-6.12-5.64-9.29-8.23-2.78-2.27-5.22-4.94-7.94-7.3-1.74-1.51-3.31-2.69-5.6-2.93-2-.21-3.95.39-5.95.39-4.05,0-8.09-.62-12.13-.82C266.2,744.68,265.86,744.69,265.52,744.67Zm.13,14.05q-2.83,10.69-5.56,21.42l-4.94-24.9a42.45,42.45,0,0,0,5.93,2.74A13.17,13.17,0,0,0,265.65,758.72Zm-35.1-251a2.36,2.36,0,0,0-2-1h-1.64l.62-4.11A42.67,42.67,0,0,1,214,506.9l-2,.27.54-2.25a73.44,73.44,0,0,1,6.05-16.28l-3.35-.07.28-1.84a4.32,4.32,0,0,0-.61-3.19,2.37,2.37,0,0,0-2-1h0c-2,0-4,2.16-4.42,4.75l-.17,1.34h-3.73a61,61,0,0,1,1.18,16.82l0,.58-6.37-32.08s2.82-27.57,27.42-43.9c-6.27,25.81,2.24,55.74,9.58,80.2q6.12,20.38,14.11,40.15c5.7,14.16,11.59,28.45,22,39.8l-1.55-.42c-8-2.24-16.39-4.49-24.26-7.25a116.2,116.2,0,0,1-27.51-14.28l-1.2-.84-2.78-14-3.89-19.61,0-.09c-1.15-5.33-1-10.89-.61-16.73l.1-1.65,1.43.21a32.7,32.7,0,0,1,12.66,4.57l.48-3.17.27-1.29h1.16c2,0,4-2.17,4.41-4.73A4.35,4.35,0,0,0,230.55,507.71Zm-67.91,33.8c11,9.07,21.8,18.56,32.83,27.66L202.18,603a323.16,323.16,0,0,1-32.66.81h-.25c-24.45-.57-49-3.44-73.22-6.68,6.59-13.71,12.22-28,19.45-41.39,5.63-10.44,12.49-21.14,20.85-29.25.36-.35.74-.69,1.11-1A137.55,137.55,0,0,1,162.64,541.51Zm-21.46-23.63c1-3.28,2.34-5.34,5.3-8.61,6-6.66,13.69-8.69,21.17-12.94,4.12-2.34,8-4.87,11.87-7.53l11,55.26q-10.33-9-21.19-17.25C160.48,520.12,151.06,518,141.18,517.88Zm153.5-350,9,10.88V319.33H284.82V178.75Zm-5.93-10.82a5.83,5.83,0,1,1,5.81,6.2A6,6,0,0,1,288.75,157.05Zm-2.14,172.46q9.57-.36,19.16-.24c.88,0,1.77,0,2.65.08,9,.43,18,1.71,27,2.52a137.67,137.67,0,0,1,14.3,2c2.13.43,4.23.76,6.36,1.08a15.39,15.39,0,0,1,.82,8.4q-.13.75-.27,1.47a45.78,45.78,0,0,0-5.23-.62c-1.83-.08-3.65-.24-5.47-.4-39.07-5.76-93.74,0-115,2.7-.3-3.61-.33-7.23-.39-10.85a396.54,396.54,0,0,1,44.7-5.54q3.31-.13,6.62-.33ZM314,318.38V189.31A343.28,343.28,0,0,1,365.53,248c1,24.69-4.14,25.22-7.65,49.56-1,7-3.67,16-4.05,24.08Q333.93,319,314,318.38Zm35.77,91.23c0-.17-.26-.24-.29,0-.57,3.4-2.08,6.58-3.05,9.88-.87,2.93-1.61,5.86-2.69,8.7-2.26,6-7.95,9.24-10.82,14.77-.68,1.33-.43,2.62-.77,4s-.76,2.75-1.06,4.15c-.67,3.1-1.6,6.11-2,9.28-.12.91-.2,1.82-.28,2.72a37,37,0,0,1-4-1.69s-12.21-8.37-27.28-6.51l4.29,3.75c-4.58,2.79-9.1.58-10.15,0l4.18-3.74c-14.72-1.86-26.66,6.51-26.66,6.51a34.88,34.88,0,0,1-4.79,2q-.34-1.72-.72-3.45c-.87-4-1.52-8.19-2.68-12.14a17.94,17.94,0,0,1-.33-3.58,7.78,7.78,0,0,0-2.71-4.94c-5-4.63-8.15-11.6-10.55-18.11A51.16,51.16,0,0,1,245,409.63c-.21-1.85-.34-3.71-.66-5.56-.2-1.2-.29-2.85-1.09-3.79a.35.35,0,0,0-.57.35c.27.77-.28,1.92-.45,2.68s-.32,1.8-.44,2.7c-.23,1.85-.45,3.73-.56,5.59a36.24,36.24,0,0,0,.12,5.33,23.25,23.25,0,0,0-3-1.38,5.67,5.67,0,0,1-2.12-1c.3.23-.29-.42-.29-.36a8.48,8.48,0,0,1-.67-1.08,17.78,17.78,0,0,1-1-2.76l-.33-1.08a33.52,33.52,0,0,1-.76-3.61,19.54,19.54,0,0,0-.62-2.48,44.08,44.08,0,0,0,4.68-2.44,21.39,21.39,0,0,0,4.8-3.23,20.32,20.32,0,0,0,2.93-4.72,83.89,83.89,0,0,0,4.52-9.41c0-.08,0-.16.07-.25a20.4,20.4,0,0,1,3.81.26c1.43.21,2.89.22,4.3.53a31.3,31.3,0,0,1,3.68,1c1.4.48,2.48,1.58,3.79,2.27,5.55,2.91,12,6,18.22,3.88,1.57-.53,4.61-.68,5.21-2.76a3.66,3.66,0,0,0-.26-2.43c-.78-2-2.55-2.48-4.4-2.58-2.72-.15-5.25.71-8,0a82.54,82.54,0,0,1-9-3.52,18.91,18.91,0,0,0-4.65-1.29,9.71,9.71,0,0,0-4.3.75c-2.73.83-5.38,2-8.11,2.86.34-1.29.55-2.6.94-3.87.29-.93.62-1.84.95-2.75.79-.35,1.55-.76,2.33-1.09,1.49-.64,3-1.14,4.54-1.77.57-.24,1.11-.5,1.66-.75a26.3,26.3,0,0,0,6.58-2.21c1.47-.75,2.89-1.58,4.37-2.31,1.27-.63,2.7-1.1,3.92-1.81.82-.49,1.28-1.23,2.15-1.65A13.58,13.58,0,0,0,281,361.2c1.06-1,2.27-1.87,3.23-3a30.39,30.39,0,0,0,2.37-3.44c.39-.59.75-1.29,1.19-1.85a.23.23,0,0,0,0-.09h.28c1.58-.06,3.18-.6,4.76-.75s3-.06,4.51-.19a2.87,2.87,0,0,0,.74-.19c4-.08,7.94-.11,11.89-.08a32.76,32.76,0,0,0,2.06,6.53,31,31,0,0,0,4.12,7.89c1.89,2.44,4.8,3.85,7.44,5.14s5.47,2.57,8.29,3.63c2.6,1,3,3.13,4.27,5.48.07.14.13.29.2.43-.94-.35-1.87-.7-2.81-1-1.28-.44-2.57-.92-3.88-1.23A9.93,9.93,0,0,0,325,379c-5.63,1.44-10.38,5.43-16.41,4.38a9.25,9.25,0,0,0-4.9.28,3.22,3.22,0,0,0-.88.63,1.42,1.42,0,0,0-1.48,1.28,65.54,65.54,0,0,0-.34,9.81c0,3.27.13,6.53.37,9.79a91.38,91.38,0,0,0,1.12,9.46,36.36,36.36,0,0,0,1.12,4.83,41.78,41.78,0,0,1,1.66,4.71c0,.05.09,0,.08,0a10.31,10.31,0,0,1-.07-1.85c.2,2,.32,3.11.32,2.89,0-.59,1.59-10.14,3.17-19.47a26.49,26.49,0,0,0,2.7,1.81,16.12,16.12,0,0,0,4.2,1.81,9.13,9.13,0,0,0,2.32.26,3.38,3.38,0,0,0,1.86-.68.08.08,0,0,0,0-.14,7.81,7.81,0,0,0-1.5-1c-.59-.22-1.16-.47-1.73-.73a24.29,24.29,0,0,1-3.51-1.91c-1.05-.69-2.06-1.43-3-2.2l-.73-.58c.09-.54.18-1.08.27-1.6.46-.22.91-.46,1.39-.67a22.12,22.12,0,0,1,3.34-1.1c.47-.11.94-.2,1.41-.29a5.26,5.26,0,0,0,2.06,3.56,4.92,4.92,0,0,0,1.87.72h-6.16s8.16,5.11,16,0h-6a4.37,4.37,0,0,0,1.56-1,6.3,6.3,0,0,0,1.84-3,0,0,0,0,0,0,0,11.68,11.68,0,0,0,2.05-.07,13.19,13.19,0,0,0,4.63-1.62,9.86,9.86,0,0,0,1.48-.79.55.55,0,0,0-.11-1c-1.31-.32-2.51.42-3.78-.32a27.21,27.21,0,0,0-3.24-1.94,14.47,14.47,0,0,0-3.21-.88,23.56,23.56,0,0,0-5.39-1,26.92,26.92,0,0,0-6.27.39c-.62.1-1.31.22-2,.37,0-.19.07-.4.1-.58a13.71,13.71,0,0,0,1.79-.08,29.34,29.34,0,0,0,9.67-3.26c2.82-1.42,5.16-3.27,8.21-4.07a45.84,45.84,0,0,1,5.08-.79l1.56-.21c.11.23.22.46.34.67a14.21,14.21,0,0,0,3,3.39c2.29,2,5.07,3.3,7.22,5.41a6.75,6.75,0,0,1,2.26,3.51c.16.77.15,1.58.34,2.35a9,9,0,0,0,.53,1.4l0,.08a5.3,5.3,0,0,0,1.65,4.79,5.51,5.51,0,0,0,1,.74,8.8,8.8,0,0,0,1.54,4.81c.16.25.34.48.51.72a.85.85,0,0,0,0,.17c-.21.74-.45,1.48-.59,2.24a.88.88,0,0,0,0,.16c-.42.5-.85,1-1.29,1.49a23.29,23.29,0,0,1-2,1.88c-.2.18-.43.32-.64.48a.24.24,0,0,0-.32,0l-.64.46a3.92,3.92,0,0,0-.58.29A65.89,65.89,0,0,0,349.72,409.61Zm-52.94,212.7,0,0a14.66,14.66,0,0,1-9.56,3.58c-8.44,0-15.31-7.32-15.31-16.33s6.87-16.32,15.31-16.32a14.58,14.58,0,0,1,9.12,3.24v0a16.92,16.92,0,0,1,.43,25.77Zm3.36,16.52q-6.63,21.4-13,42.91c-.53-.43-1-.88-1.6-1.3a85.4,85.4,0,0,1-8.26-7.54l-.55-.55-.2-.19q5.26-14.8,10.9-29.47A23.6,23.6,0,0,0,300.14,638.83ZM287.83,583h0a17.49,17.49,0,0,1-.29-3.18c0-9,6.87-16.33,15.31-16.33s15.32,7.32,15.32,16.33a17.1,17.1,0,0,1-.22,2.6h0c-1.18,7.76-7.46,13.69-15.07,13.69C295.4,596.12,289.22,590.48,287.83,583Zm30.55,9.68c8.45,0,15.32,7.33,15.32,16.33s-6.87,16.33-15.32,16.33S303.07,618,303.07,609,309.94,592.69,318.38,592.69Zm7.82-37.07c-12.86-14.9-39.44-10.57-51.73,4-2.67-5.56-4.93-11.35-7.16-17-.63-1.6-1.23-3.2-1.84-4.8a141.45,141.45,0,0,0,67.68-1.93q-1.87,5.64-3.87,11.22C328.26,549.88,327.25,552.75,326.2,555.62Zm-68.43-39.47q-1.78-5.42-3.43-10.87c-2.15-7.15-4.52-14.9-6.52-22.9-.58-6.2-.94-12.47-1.13-18.88,0-1,0-2,0-2.93a9.46,9.46,0,0,0,1,1.92c.78,1.15,1.12,1.41,1.1,2.81,0,2.7,1.09,5.12,1,7.8s-.64,5.07-.34,7.68a14.75,14.75,0,0,0,1.14,3.8,28.64,28.64,0,0,1,.77,2.93c.71,2.56,2.76,5,4.26,7.11a35.48,35.48,0,0,0,3,3.58c.35.47.71.93,1.07,1.37a45.63,45.63,0,0,0,4.71,4.72,49.41,49.41,0,0,0,13.33,8.38,39.59,39.59,0,0,0,15.38,3.48c.66,0,1.3,0,2,0a44,44,0,0,0,15.24-2.16,33.43,33.43,0,0,0,6.78-3,73.31,73.31,0,0,0,7.11-4.16,36.49,36.49,0,0,0,5.86-5.25c.67-.81,1.4-1.61,2.1-2.45.48-.49.95-1,1.39-1.51a59.52,59.52,0,0,0,4.43-6.2,15.36,15.36,0,0,0,1.9-3.32c.41-1.16.51-2.37,1-3.51a16.08,16.08,0,0,0,1.1-8.27,25,25,0,0,1-.29-4.81c.16-1.52.75-2.93.91-4.45.12-1.1-.13-2.35.3-3.32.52-1.2,1.5-2.08,2-3.37a8.43,8.43,0,0,0,.5-4.36,7.41,7.41,0,0,0-.31-1.21,8.21,8.21,0,0,0-.5-1.14,14.72,14.72,0,0,0,2.26-2.8l.66-1.15a67,67,0,0,1,1.21,13.8c-.26,8.45-.81,16.65-1.77,24.78-1.73,7.09-3.65,14-5.43,20.47-.49,1.79-1,3.58-1.53,5.37a10.14,10.14,0,0,0-2.22.52A124.45,124.45,0,0,1,257.77,516.15Zm13.44-37.39,9.22-6.31s3.42-5.09,5.38-7.93h22c2,2.84,5.5,7.93,5.5,7.93l8.84,5.92a3.83,3.83,0,0,0-2.62,3.49,3.54,3.54,0,0,0-1.64-.43,3.71,3.71,0,0,0-3.51,2.84,3.52,3.52,0,0,0-2.15-.76,3.68,3.68,0,0,0-3.39,2.41,3.51,3.51,0,0,0-2.61-1.18,3.63,3.63,0,0,0-3.2,2,3.46,3.46,0,0,0-2.31-.9,3.63,3.63,0,0,0-3.22,2.07,3.53,3.53,0,0,0-6.11.17,3.63,3.63,0,0,0-3.17-2,3.57,3.57,0,0,0-2.62,1.18,3.67,3.67,0,0,0-3.38-2.4,3.47,3.47,0,0,0-2.15.76,3.7,3.7,0,0,0-3.51-2.84,3.49,3.49,0,0,0-1.26.25,3.24,3.24,0,0,0-.56-.45A3.8,3.8,0,0,0,271.21,478.76ZM329.52,491l.14,0-.07.14A1.34,1.34,0,0,1,329.52,491Zm14.84-37.72,0,0C344.08,452.84,344.08,452.81,344.36,453.26ZM274.51,319a408.1,408.1,0,0,0-44.74,5.4c-.1-.64-.18-1.27-.31-1.91-2.51-11.89-5-23.75-7-35.76-3.58-21.92-5.77-19.76-6.81-41.94,16.69-21.5,37.34-39.26,58.86-55.84ZM248.42,614.31l5-1q-.18.62-.3,1.17a3.8,3.8,0,0,0-.26,1.27c0,.31-.07.57-.08.64a29.65,29.65,0,0,0,.26,7.55c-4.79,3.56-8.45,9.2-12.63,13.4-2.44,2.45-4.87,4.89-7.24,7.39l-.37-1.87-.66-3.35-4.13-20.82Q238.28,616.93,248.42,614.31Zm-24-14-2.81-14.13a105.37,105.37,0,0,0,15.19,5.92c3.65,1.1,7.33,2,11,3A219.94,219.94,0,0,1,224.41,600.31Zm23.94,45.94a77.11,77.11,0,0,0,10.28-8.45c.77,1.19,1.59,2.34,2.46,3.46a80.33,80.33,0,0,0-4.34,12.83l-.15-.12a37.39,37.39,0,0,0-3.89-2.62l-1.39-.88-.43-.27a11.43,11.43,0,0,1-1.45-1l-.48-.5a11.78,11.78,0,0,0-1.78-1.62Zm51,45.28-.07,0q5.13-19.4,10.67-38.67c1.7,4.36,4.33,8.18,6.11,12.53,2.5,6.11,4.83,12.5,7.78,18.48a47.73,47.73,0,0,0-9.32.49A28,28,0,0,0,299.37,691.53Zm11.58-51L323.88,642l66.8,60.75-44.53-7.66S317.9,652.25,311,640.5Zm20.44-51.72c6.07-9.88,10.26-20.86,14.32-31.81q7.89-21.29,14-43.2c7.41-27,15.93-59.45,8.28-87.33,9.81,4.87,23.47,13.84,27.63,27.37.16.55.87,6.31,1.61,12.4,1.94,3.23,6,5.26,8.73,7.43,4.78,3.75,9.39,7.67,14.28,11.25,8.61,6.29,18.61,13.22,28.38,16.73,4.66,1.67,8.47,5,11.75,8.84.82,2.41,1.59,4.93,2.72,7.58-11.54-.76-22.71.58-32.85,8.09a363.87,363.87,0,0,0-32.94,27.75c-12.68,11.94-27.85,22.4-43.87,28.16-3.95,1.41-8,2.69-12.1,3.89a8,8,0,0,0-4,1.17Zm71.43-19.32c10.89-9,21.38-18.54,32.41-27.32a165.16,165.16,0,0,1,30.62-19,47.55,47.55,0,0,0,8.66,8.88A185.81,185.81,0,0,1,486,548.58c11.5,18.15,18.54,38.63,28.47,57.56a514.25,514.25,0,0,1-150.94-14.62A119.24,119.24,0,0,0,402.82,569.46ZM137.73,360.33a27.88,27.88,0,0,0-7.56-2.33,26.42,26.42,0,0,0-8.41-.23c-3.75-5.52-.48-13.9,4-18.88,11.62.78,21.52,8.22,26.44,18.78a20.6,20.6,0,0,0-4.81,6.52,22.58,22.58,0,0,0-1.15,2.31A30.91,30.91,0,0,0,137.73,360.33Zm-1.08,36.39c-4.89,8.63-13.89,10.63-22.42,9,0-.24-.1.1-.14-.15-8.84-3-16-10.61-19.56-19.67h0a19,19,0,0,0,2.09.36,23.7,23.7,0,0,0,10.85-1.36,15.43,15.43,0,0,0,13.28,7.92c7.39,0,13.57-5.46,15.22-12.79a10.36,10.36,0,0,1,1.71,1.9c.21.35.35.72.53,1.08A17,17,0,0,1,136.65,396.72ZM111.3,341.59c-2.6,6.81-2.81,14.34.41,20.6a15.6,15.6,0,0,0-1.83,1.89,16.67,16.67,0,0,0-1.24,1.41,14.67,14.67,0,0,0-1.56,2.1,13.43,13.43,0,0,0-1.83,6.15,12.48,12.48,0,0,1-7.1,1.41c-3.16-.35-4.91-2.32-6.06-4.81C92.93,357.39,100.61,346.47,111.3,341.59ZM28.11,829.08V675.6l-.1-2.08c.85-98.45,14.32-192.09,40-278.62a9.08,9.08,0,0,0,8.4,6.11,8.07,8.07,0,0,0,1.64-.17A57.11,57.11,0,0,0,89,414.42,10.06,10.06,0,0,0,87.31,420c0,5.33,4.06,9.65,9,9.65a9,9,0,0,0,7.9-5,43.55,43.55,0,0,0,6.64,1.81,51,51,0,0,0,7.13,1.36c.76-.19,1.54-.4,2.32-.62.75,0,1.5-.07,2.25-.14a9.08,9.08,0,0,0,8.43,6.18c5,0,9-4.32,9-9.65a9.76,9.76,0,0,0-.26-2.25c8.87-5.66,15.26-15.34,16.11-28.85A34.33,34.33,0,0,0,154.64,381a22.78,22.78,0,0,1,1.53-9.84l6.37,32.11a11.37,11.37,0,0,1,.34,1.72l10.62,53.54a10,10,0,0,0-1.74,3.13c-4.88,14.14-22.36,19.25-33.86,26.57-6.1,3.88-11.84,8.39-16.14,14.25-5,6.78-6.72,15.06-12,21.68-9.68,12.19-19.16,23.37-25.88,37.59-7.53,15.93-11.78,32.87-15.11,50.11-13.56,70-26,140.32-38.86,210.5C29.31,824.56,28.72,826.82,28.11,829.08ZM154.76,997.81H34.85q3.4-33.22,6.7-66.46,2.33-23.36,4.69-46.71.52-5.14,1.07-10.29c.58-3.22.87-6.53,1.26-9.78,1.81-15.13,2-30.39,4.09-45.49s4.69-30.07,7.49-45c2.9-15.4,5.14-30.86,7.51-46.36,3.37-22,8.19-43.76,12.14-65.67,1.47-6.18,2.65-12.44,4-18.66q2.75-10.18,5.76-20.28c.41,0,.83.08,1.23.14a201.11,201.11,0,0,0,30.87,2.84c4,0,8,0,11.93.07l10.53,0c12.53,0,25.07-.19,37.55-1.24,8.06-.69,16.2-1.7,24.33-2.91l1,5,1.18,5.92,2.24,11.28-.69-.16a24.6,24.6,0,0,0-3.57-.52c-5.56-.34-10.06,4.42-11.56,9.33-.39,1.26-.69,2.57-1,3.83l-.26,1.1a40,40,0,0,0-1.15,6.94c-.25,4.25-.19,8.75,3.46,13l.13.15-.15.59c-.5,1.93-1.94,8.65.06,13.84a14.69,14.69,0,0,0,2.28,3.87,7.3,7.3,0,0,0,.19.93A44.52,44.52,0,0,0,187,705.05q-7.46,7.5-15.09,14.79c-10.2,9.72-20.83,18.92-31.57,28s-21.14,18.3-31.6,27.6S89.27,795.17,79,804.49c-1.09,1,.3,2.63,1.47,2,12.34-6.48,24.81-11.87,36.46-19.8a322.53,322.53,0,0,0,33.48-26c10.45-9.35,20.53-19.16,30.59-29q7.56-7.37,14.93-15c1-1.07,1.94-2.11,2.79-3.16a13.18,13.18,0,0,0,1.3,2.37,3,3,0,0,0,1.43,1.71h0c-.11.67-.21,1.39-.28,2.12a26,26,0,0,0-.07,5.79,5.06,5.06,0,0,1,0,.58,16.47,16.47,0,0,0,.24,2.7,11.52,11.52,0,0,0,1.17,6.57,10.74,10.74,0,0,0,5.59,5.18,15.88,15.88,0,0,0,12.47-.08,34.52,34.52,0,0,0,7.52,1,65.85,65.85,0,0,0-8.61,7.56,128.45,128.45,0,0,0-9.84,12.6c-6.68,9.71-12.58,19.95-18.75,30-12.58,20.47-25.95,40.57-39.9,60.13-27.66,38.79-55,79.18-88.92,112.76-1.59,1.57.75,3.81,2.41,2.42,37.56-31.46,75.43-61.51,106.63-99.66a682.46,682.46,0,0,0,40.7-55.15c-14.5,45-27.57,90.59-41.43,135.81Q162.78,973,154.76,997.81Zm18.18,0C192,938.23,210,878.26,229,818.71q5-15.5,9.79-31l8.7,43.88c-1.09,4.71-2.21,9.43-3.28,14.15-11.41,50.63-22,101.55-34,152.06Zm55.1,0c8.21-34.7,15.88-69.56,23.8-104.29a8.4,8.4,0,0,0,2,.65c2.1.39,4.2.72,6.3,1.08l5.43,27.35.44,2.23,14.48,73Zm145,0H303.28l-19.7-99.24a456.27,456.27,0,0,0,93.63.91Zm5-115.51a435.32,435.32,0,0,1-97.84-1.23l-2.21-11.16a455.75,455.75,0,0,0,100.52,1.46Zm-103.56-30-6.15-31q6.24-27.72,12.68-55.37c3.11,2.83,6.21,5.66,9.35,8.48,4.76,4.27,9.52,10.55,15.34,13.71,0,.87.13,1.74.19,2.62-.93,9.44-2.37,19.56,5.72,25.75,6,4.57,12.91,7,18.68,3.68a206.8,206.8,0,0,0,24.21,19.43c7.18,5,15.33,12.09,24.07,14.72A433.79,433.79,0,0,1,274.39,852.25Zm132.49,148.19H391.53l8.33-150a3.34,3.34,0,0,0,1.12.25c3,.15,6,.26,9,.39Zm5.66-180.15c-5.63-.14-11.27-.19-16.91-.35-2.82-.07-5.65-.19-8.47-.41-1.27-.1-2.53-.21-3.8-.35-.7-.07-1.4-.16-2.1-.25l-.48,0-.54-.11-.39-.06c.27,0,0-.22-1.66-.79-5.2-1.77-10.29-3.88-15.35-6.07l-.38-.17-2-.91c-1.08-.52-2.16-1-3.23-1.59q-3.75-1.9-7.35-4.09c-2.53-1.54-5-3.21-7.4-5-3-2.2-5.74-4-9.62-3.82l-2,.29q-1.11.18-.45.06c.47-.07.3-.09-.52-.06a6.09,6.09,0,0,0-1.28.11l-.53.07a29.57,29.57,0,0,0-3-.53,11.87,11.87,0,0,0-2-.1,81.58,81.58,0,0,0,.85-10.24q.51-11.56.84-23.15c.21-7.86.62-15.73.13-23.59a151.21,151.21,0,0,0-3.29-22.71,30.92,30.92,0,0,0-4.69-11.1,28.44,28.44,0,0,0-3.56-4.3l.3,0c3.38.52,6.81.16,10.08,1.35a85.31,85.31,0,0,1,10.16,4.32,51.23,51.23,0,0,1,4.75,2.92c.07.25.14.5.24.76a45,45,0,0,0,3.32,6.16c1.23,2.18,1.65,4.86,2.6,7.19,1,2.54,2.26,5,3.35,7.5,2.24,5.16,4.3,10.4,6.51,15.58,1.05,2.44,2.06,4.91,3.16,7.33.56,1.24,1.17,2.49,1.84,3.68s1.8,2.18,2.31,3.36a.48.48,0,0,0,.41.25l.37,0c.34,0,.55-.58.19-.75.06,0,.19-3.18.16-3.47-.15-1.34-.34-2.67-.49-4-.29-2.67-.83-5.32-1.38-7.94-1.16-5.51-3-10.94-4.62-16.33a126.2,126.2,0,0,0-5.79-14.69c1.13.16,2.27.29,3.41.42a93,93,0,0,1,10.21,1.87c1.86.42,3.72.77,5.59,1.1l.12.09c5,3.56,10.73,9.44,15.58,14.37,1.05,1.59,2.09,3.2,3.08,4.85,7.22,12,13.77,24.46,19.81,37.2a346.65,346.65,0,0,1,18,46.44C421.92,820.67,417.22,820.4,412.54,820.29ZM472.4,997.81c-1.91-21.85-3.83-43.68-5.15-65.59-1.56-25.82-4.47-51.79-9.95-77-1.64-7.55-3.63-14.89-5.87-22.11a364.09,364.09,0,0,0-28.15-75c-5.73-11.34-12.25-22.6-20.12-32.46a45,45,0,0,1,5.73,3.38,92.14,92.14,0,0,1,8.68,7c17.55,12.55,31.35,29,42.34,48.5,16.59,29.43,27.81,62.76,35.85,96.62,4.1,17.29,7.4,34.71,10.12,51.84,3.43,21.52,5.91,43.15,7.87,64.85Zm60,0c-1.74-21-4-42-7-62.92-4-27.86-8.67-56.58-15.92-84.38q-1.37-5.22-2.86-10.4a342.54,342.54,0,0,0-12.55-36.27,263.27,263.27,0,0,0-12-25.28c-12.06-22.15-28.38-42.28-49.05-55.63,6.83,0,13.66.24,20.49.32,9.17.12,18.38.36,27.54.89,10.16.6,21.47-.31,31.42,1.79,1.6.34,2.3-2.22.68-2.64-9.94-2.57-19.08-7.3-29.27-9.37a209.66,209.66,0,0,0-28.84-4c-5.58-.35-11.29-.45-17-.36a283.43,283.43,0,0,1,42-21.75c1-.4.9-2-.26-2.05-12.27-.22-25.3.07-37.22,3.47a120.73,120.73,0,0,0-22.76,9.44C395.79,675.4,370,651.3,338.63,639.07a6.09,6.09,0,0,0,.62-.43,28.4,28.4,0,0,0,5.08-5.93,32.92,32.92,0,0,0,5-20l1.47.22c21,3.1,41.79,8.07,62.86,10.9,21.49,2.89,42.74,1.25,64.24,2.19a155.86,155.86,0,0,0,21.61-.61q6.57-.15,13.14-.47a15.26,15.26,0,0,0,4.25,1H517c.08.08.47.32.72.49l.15.2c0,.09.12.23.26.49.27.49.53,1,.79,1.55a92.17,92.17,0,0,0,5.54,16.05c.93,3.7,1.32,7.46,2,11.23a124.55,124.55,0,0,0,3.28,13.19c1.14,4,2.73,7.76,3.82,11.72,1.16,4.18,2,8.49,3,12.7,2.11,8.38,3.51,17,5.08,25.55a243.41,243.41,0,0,1,3.29,25.08c.42,4.81.82,9.62,1.68,14.36s1,6.7,1.46,11.43c.9,8.92,1.56,17.83,2.17,26.78a84.71,84.71,0,0,0,1.89,14.9l.24,1q.93,27.48,1.92,54.95c1,29.81,2.2,59.62,3.37,89.42q.79,20.43,1.65,40.84ZM748.7,969.27c-13.18,12.26-28.51,23.15-45.53,28.13H588q.84-20.21,1.64-40.43,1.38-35.28,2.69-70.56,4.51-29.29,8.6-58.63,4.49-32.4,8.17-64.92c1.87-16.71,3.84-33.59,6.69-50.28,4.94-29,12.52-57.44,26.73-83.38a489.63,489.63,0,0,0,60.91,20.22A163,163,0,0,0,691,669.53c-2.77,5.36-5.48,10.84-7.87,16.44-5.27-.28-10.55-.29-15.7-.2-1.16,0-1.25,1.65-.26,2.05l.5.21c4.39,1,8.78,2.26,13.17,3.67-.51,1.35-1,2.71-1.46,4.07-6.16,18.34-9.81,37.27-12.79,56.35-3.18,20.33-5.29,39.59-8.39,59.72A444.61,444.61,0,0,1,649,857.59c-1.2,4.54-2.49,9.07-3.92,13.55-1.73,5.44-3.64,10.83-5.76,16.13a98,98,0,0,0-4.69,13.14c-.63,1.36-1.15,2.79-1.72,4.19-1.13,2.79-2.17,5.61-3.09,8.48-1,3-1.83,6.12-2.58,9.22-.43,1.18-.87,2.36-1.27,3.55-2.13,6.45-4,13.12-4,19.95,0,.69,0,1.38,0,2.08a70.34,70.34,0,0,0,1.34,10.93c.35,1.6.77,3.18,1.25,4.74s1.45,3.42,1.81,5.12l.18,1,.07,0a1.42,1.42,0,0,0,2.79-.37c.09-6.1,1.21-12,1.93-18.06h0c.33-1.12.7-2.22,1-3.34.24-.89.46-1.79.69-2.68s.52-2,.76-3c0,1.23,0,2.46,0,3.69a118.43,118.43,0,0,0,.82,13.49q.55,4.27,1.16,8.54c.22,1.57.59,3.13.76,4.69a46.68,46.68,0,0,1,0,5.29.58.58,0,0,0,1.16,0c0-1.52,0-3.11.11-4.63s.72-3.33,1.05-5c.58-2.95,1.21-5.89,1.79-8.85.11-.58.2-1.17.3-1.76.42-2.38.79-4.79,1.11-7.2q.68,5.34,1.58,10.63c1.38,8.27,3.08,16.5,4.77,24.71a.65.65,0,0,0,1.28-.17c-.19-6.14-.14-12.28,0-18.41.15-5.25.4-10.5.67-15.75.6,2.69,1.27,5.36,2.07,8,1.25,4.12,2.39,8.27,3.59,12.41.28,1,.55,1.92.83,2.87.16.51,1,.44,1-.13s0-1.12-.07-1.69c-.44-9.37-.38-18.74-.6-28.13a1.85,1.85,0,0,0,0-.23,27.08,27.08,0,0,0,1.35,3.91,28,28,0,0,0,1.7,3.37,14.58,14.58,0,0,1,1.85,4.53,2.5,2.5,0,0,1,.07.26.49.49,0,0,0,.55.39,2.41,2.41,0,0,0,.08.25c.24.7,1.35.41,1.12-.31s-.59-1.7-.89-2.57a32.47,32.47,0,0,1,1-7,63.88,63.88,0,0,0,.78-6.42c.06-.72.12-1.44.2-2.17a91.62,91.62,0,0,1,2.71-14.42c.13-.48.24-1,.38-1.43.25-.89.52-1.78.78-2.67,1.35-4.61,2.73-9.2,4-13.82.39-1.35.78-2.7,1.08-4.08a15.84,15.84,0,0,0,.25-1.66c16.15-44.15,23.27-90.43,30.16-137,2.92-19.73,5.09-40.3,9.8-59.94,21.37,7.79,42.94,13.84,65.09,7.93a13,13,0,0,1,1.86-.33,44.3,44.3,0,0,1,11.13-4.3,138.06,138.06,0,0,0-5.93,16.93c-.88,3-1.72,6-2.57,9-3.3,11.75-6.41,23.56-10.1,35.21-1.14,3.58-2.5,7.08-3.53,10.68a33.23,33.23,0,0,1-2.17,5.53,18.37,18.37,0,0,1-3.94,5.09c-.72.71.38,1.8,1.12,1.11a50.57,50.57,0,0,1,4-3.73c1.29-1,2.55-1.93,3.81-2.93a47,47,0,0,0,7.58-7.06c.64-.79,1.25-1.59,1.84-2.39a63.55,63.55,0,0,0,4.35-7,104.94,104.94,0,0,0,4.87-10.41c3-7.26,5-14.89,7.26-22.39,1-3.52,2.13-7,3.29-10.52.07-.17.15-.34.23-.51.39-1,.7-2,1-3s.64-1.85,1-2.76c0-.15.11-.29.17-.44a10.45,10.45,0,0,1,.44-1,46.2,46.2,0,0,0,3.33-6.16c.09-.26.16-.51.23-.76l1.1-.72a37.83,37.83,0,0,1,8.13-11.39l2.61.3c2.82.34,5.64.66,8.45,1,2.62.36,5.23.83,7.81,1.39l1.23.27a35.4,35.4,0,0,0-6.15,8.21,47.07,47.07,0,0,0-2.37,5.35c-3.39,4-5.86,16.12-6.38,19-1.39,7.59-1.51,15.4-1.64,23.1-.29,18-.76,36-2.67,53.95C812.51,868.67,792.84,928.23,748.7,969.27Zm46.79-585.55-.11-.53a91.66,91.66,0,0,1-2.69-16.12l22.64-12.58-4.76,10.15,1.6-.42c12.94-3.4,27.88-24.55,32.78-31.51l.06-.08a1,1,0,0,1,0,.17,19.45,19.45,0,0,0,.29,2.28l.49-2.32c.25,4.53,2.58,13.65,16.77,16.55v.79l1.36.26,1.79.29-3.15-4.6v1.37L858.86,342l3.71,1.55v.84L876,350v-1.17a32.19,32.19,0,0,0-.53-5c9.45,11.77,17.69,18.63,24.52,20.43l1.6.42-4.77-10.15,25.1,13.95a92.21,92.21,0,0,1-2.59,14.79L917.37,396c.24-.31.58-.78,1-1.37,1.71-2.46,4.45-6.66,4.45-6.66s7.23,3.19,7.89,8.4l-3.12,19a17.68,17.68,0,0,0-5.26,5.54c-.15,1-1.17,8.33-7,8.7.12-1.44.22-2.88.27-4.31.13-4-.13-8-.09-11.91a.41.41,0,0,0-.77-.18s-.05,0-.05.06c-1.41,4.54-3,9-4.63,13.47-.37,2.23-.76,4.46-1.26,6.67a117.53,117.53,0,0,1-5.41,17.9c-1,2.48-2.08,4.93-3.28,7.32a35.32,35.32,0,0,0-.19-7.69,54.48,54.48,0,0,1-.22-9c0-.5-.75-.49-.78,0a35.19,35.19,0,0,1-1.58,9,49,49,0,0,0-2,8.34c-.35,2.78-.3,5.57-.45,8.36-.4.6-.81,1.19-1.23,1.78-.37,2.3-.73,4.59-1.08,6.89-.21,1.4-.42,2.79-.62,4.18-.09.62-.28,1.38-.4,2.13a26.49,26.49,0,0,1-13.24,12.41,36.07,36.07,0,0,1-8.1,2.44c-.84.06-1.67.13-2.5.16-2.53-.26-4.71-1.44-7.15-2.07a13.3,13.3,0,0,0-3.71-.47,14.69,14.69,0,0,0-4,.92c-1.09.35-2.15.8-3.2,1.25l-1.23-.17c-8.39-1.27-18.65-4.22-23.59-11.76A44.8,44.8,0,0,0,823.7,479c-.55-2.8-1.1-5.61-1.64-8.41-.16-.85-.33-1.69-.49-2.54q-.47-.53-.9-1.08a64.58,64.58,0,0,1,0-11.55c0-.09,0-.18,0-.27a.71.71,0,0,1,0-.14,15.27,15.27,0,0,0-.62-5.85c-1.29-4.42-4.17-8.45-6.25-12.48-.23-.43-.87-.05-.65.38a16.5,16.5,0,0,1,.81,2,38.51,38.51,0,0,1,1.36,8.45,34.91,34.91,0,0,0,1.91,9.07,42.52,42.52,0,0,1,1.94,8.33c-.54-.79-1-1.55-1.47-2.25a65.59,65.59,0,0,1-6.2-13.61c-2-5.67-3.75-11.46-5.22-17.29-.75-3-1.44-6-2.14-9-1.15-3.22-2.33-6.54-3.35-9.84l-.09-.25-.1-.09a1.29,1.29,0,0,0-1.3-.47,1.15,1.15,0,0,0-.86,1.15c0,1.71,0,3.42-.06,5.14,0,2.22-.1,4.52,0,6.78,0,1,.09,2.11.19,3.39-4-.88-5.1-5.74-5.4-7.91l-.1-.28a18.29,18.29,0,0,0-5.2-5.58l-3.06-18.55c.56-3.81,5.17-6.52,6.83-7.38.81,1.24,2.76,4.2,4.09,6.11l1.89,2.72Zm50-54.27-.34.14v.06c-4.85,2.37-28.14,3.22-42.57,3.73,27.06-30.84,82.66-32.7,108.7.07l-1.18,0c-13.76-.49-34.5-1.22-41.69-3.25a14.85,14.85,0,0,0-5.65-2.91l-.21-.05v.8c-4-1.09-9.26-.77-16.19,1.95l.25-1.18ZM902.08,678c1.75-.24,3.56.28,5.32.43a.41.41,0,0,1,.25-.11c4.36,0,8.62-1,13-.94,4,0,7.89.5,11.85.45,1,0,2.08-.06,3.11,0l2.73.16a4.37,4.37,0,0,1,2.74.84h.07s0,.09.05.13a3.07,3.07,0,0,1,.25.26,5,5,0,0,1,.7,4.12,33.94,33.94,0,0,1-.88,4.83,6.58,6.58,0,0,1-.9,1.82c-7.07-.53-14.82,1.49-22,2.84l-2.12.06c-1,.22-2,.49-2.94.75-.64.08-1.28.15-1.9.2a.82.82,0,0,0-.67.42c-.46.1-.91.2-1.37.27s-.39,1,.14,1.08c2.94.26,5.85.8,8.77,1.34,2.09,0,4.18-.08,6.28-.1,1.93,0,3.86.13,5.79.1.59,0,1.18,0,1.77-.08,1.72.19,3.46.42,5.2.61,1.37.62,2.25,1.79,2.35,3.93a16.72,16.72,0,0,1-1.89,7.94,3.32,3.32,0,0,1-.91,1.07c-3,.16-6,.61-8.88.82l-3.87.29c-1.62,0-3.25,0-4.87.06-1.07,0-2.14.06-3.21.1a11.22,11.22,0,0,1-1.33.49c-1.77.1-3.55.19-5.33.24a1,1,0,0,0,0,1.9c6.84.73,13.63,1.87,20.43,2.89,1.25.18,2.49.41,3.73.62a6.82,6.82,0,0,1,0,4.63,22.21,22.21,0,0,0-.64,2.91,4.59,4.59,0,0,1-.31,1s-.06.36-.1.63a3,3,0,0,1-3.49,2.67,52.35,52.35,0,0,0-6-.28,107.53,107.53,0,0,1-13.06-.6l-.27,0c-.43.13-.85.27-1.28.43-3.09,1.17-5.58,4-8.5,5.68-3.44,2-7,3.75-10.45,5.79-1.61,1-3.21,1.94-4.91,2.75l-2.63,1.25-.1,0c-.34,0-.68,0-1,0-4,.2-8.08.82-12.13.82-2,0-4-.6-6-.39-2.29.24-3.86,1.42-5.6,2.93-2.72,2.36-5.16,5-7.94,7.3-3.17,2.59-6.27,5.43-9.29,8.23-.44.41-.9.79-1.35,1.19q.21-6.82.38-13.64c.13-4.73,0-9.45,0-14.18,0-2.22.1-4.43.17-6.65,1-5.94,2.29-12.61,5.36-18l.75-.58c.5-.39,1-.78,1.47-1.18l1.06-.86.24-.18c1.77-1.32,3.6-2.64,5.25-4.12a17.81,17.81,0,0,0,1.42-1.46c1.4-.69,2.79-1.41,4.14-2.22,3.28-2,6-4.77,8.73-7.45,2.59-2.51,5.2-4.89,7.71-7.5s5.1-5.67,7.73-8.43a39.22,39.22,0,0,1,3.72-3.58c1.53-1.21,2.54-2.8,3.93-4.15s2.79-2.28,4.14-3.47a48,48,0,0,1,4-3.56c1.52-1.08,3.11-2,4.69-3a17,17,0,0,0,1.42-1.07l2.46-1c2.33,0,4.68.1,7-.13,3.59-.35,7.11-1.14,10.69-1.57,1.37-.16,2.73-.38,4.08-.6,1.19,0,2.39,0,3.59,0,1.6,0,3.2-.14,4.79-.29.76-.07,1.51-.13,2.27-.24.42-.06,1-.23,1.42-.26.84,1.13.76.93.93,2.08.28,1.9.94,3.71,1.25,5.62.24,1.48.87,3.39.67,4.91-.17,1.26-1.36,2.23-2.17,3.23a63.69,63.69,0,0,0-9,.73c-3.31.51-6.69.26-10,.57-3.55.33-7,1.24-10.59,1.69-1.73.22-3.44.54-5.15.89s-3.26,1.48-4.92,1.72C901.43,677,901.42,678.07,902.08,678Zm-81.86-12.05c-7.82,12.08-15.81,24.24-18.29,28-.6.44-1.19.89-1.75,1.36l-43.57,7.49c-4.83,2.53-23.68-3.88-29.17-4.11a.43.43,0,0,1-.39-.2c-3-1.57-6-3.05-9.14-4.4.33-.46.67-.91,1-1.33,2.15-2.6,4.12-5.45,6.11-8.18a74.19,74.19,0,0,1,13.14-14c.66-.53,1.51-1.16,2.43-1.81,1.75-1.24,3.81-2.57,5.63-3.61,1.51-.87,3.07-1.68,4.65-2.43l2.09-1,.84-.36,1-.41c.53-.2,1.06-.38,1.59-.57l1.28,0H758l.43.06L772.78,662l6.5.82c6.83.86,13.65,1.84,20.49,2.49a4.66,4.66,0,0,0,2.16-.33l2,.21.88-.77,15.71,1.21-.5.29ZM644.53,931.46A58.93,58.93,0,0,1,647.41,921c1.35-3.42,3.29-6.54,4.56-10,1.35-3.65,2.67-7.31,4.13-10.91a.77.77,0,0,1,1.49.41c-.88,3.77-1.91,7.5-2.92,11.24s-1.2,7.41-2.12,11.07a60.91,60.91,0,0,1-3.82,10.4c-1.58,3.45-3.64,6.65-5.13,10.13-.21.48-.9.12-.8-.34C643.61,939.23,643.78,935.3,644.53,931.46Zm-5.78-1.21c-2,3.12-4.32,6.07-6.39,9.17-.18.26-.64.1-.53-.22,1.18-3.61,2.18-7.22,3.55-10.77,1.32-3.4,2.83-6.77,4.47-10a51.89,51.89,0,0,1,5.88-9.75c2.4-3,4.59-6,6.89-9.08a.92.92,0,0,1,1.59.93c-1.6,3.46-3.23,6.85-4.57,10.43a63.62,63.62,0,0,1-5,9.83C642.74,924,640.79,927.15,638.75,930.25Zm15.33,3.18c0-1.75.2-3.52.35-5.28a73,73,0,0,1,1.84-10.34c1.65-7,3.91-14,6-21a.65.65,0,0,1,1.26.35c-1.17,7.23-2,14.52-3.17,21.74A89,89,0,0,1,658,929.78c-.5,1.72-1,3.42-1.61,5.1a34.23,34.23,0,0,0-1.71,5.06c-.08.47-.77.27-.7-.19A49.31,49.31,0,0,0,654.08,933.43Zm1.15-39a37.45,37.45,0,0,0-6.81,3c1.22-3.23,2.63-6.39,3.87-9.6s2.3-6.28,3.37-9.44a45.68,45.68,0,0,1,4.9-4.08c4.68-3.34,9.51-6.58,13.39-10.86.42-.46.82-.94,1.22-1.43a283.69,283.69,0,0,1-8.68,27.83l-1,.52A78.92,78.92,0,0,1,655.23,894.44Zm11.5-34.12c-2.23,1.71-4.61,3.21-7,4.75,2.52-9,4.62-18.12,6.41-27.3.85-.75,1.71-1.5,2.53-2.25a131,131,0,0,0,11.86-12,68.45,68.45,0,0,0,4.31-5.61q-1.71,8.8-3.55,17.58-1.14,5.43-2.35,10.84c-.61,1.05-1.25,2.07-1.94,3.06A50.24,50.24,0,0,1,666.73,860.32Zm16.78-52.54a87.39,87.39,0,0,1-10.78,12.44c-1.35,1.31-2.71,2.61-4.08,3.92.39-2.3.76-4.59,1.12-6.89.66-4.2,1.27-8.4,1.87-12.61l.45-2.53c.83-1.37,1.46-2.94,2.22-4.18a30,30,0,0,1,5-6.25c3.85-3.61,8.38-6.38,12.18-10.06q-1.53,9.11-3.17,18.18A66.94,66.94,0,0,1,683.51,807.78Zm.33-31.22a82.33,82.33,0,0,0-8.68,7.45c1.31-8,2.56-16,3.84-24,1.34-1.7,2-3.9,3.22-5.72a31.12,31.12,0,0,1,4.29-5.15c3.74-3.68,8.11-6.68,11.59-10.62l.24-.29c-.71,4.32-1.38,8.65-2,12.94-.68,4.46-1.37,8.9-2.07,13.35l-.47.88A34,34,0,0,1,683.84,776.56ZM689.77,734a66.21,66.21,0,0,0-7.7,7.27c1-5.59,1.94-11.17,3-16.74,1.27-6.63,2.79-13.29,4.65-19.85.75-1,1.53-2,2.36-2.9A49.24,49.24,0,0,1,704.32,692c2.82-1.63,5.63-3.08,8.29-4.78-5.29,11.18-8.73,23.09-11.32,35.23-.09.12-.17.25-.26.38A60.12,60.12,0,0,1,689.77,734Zm8.93-45.88a42.38,42.38,0,0,0-5.09,4.56,121.25,121.25,0,0,1,18.64-34.32c.6-.12,1.2-.23,1.81-.3a51.12,51.12,0,0,1,18,1.37,76.58,76.58,0,0,0-13.17,16.2c-1.58,1.12-3.22,2.15-4.86,3.13C708.93,681.84,703.51,684.54,698.7,688.14Zm45.78-46.73a17.27,17.27,0,0,1,4.14,5.13,14.66,14.66,0,0,1,1.17,3.05c0,.14.06.29.09.43-.71.29-1.41.57-2.11.88a20.57,20.57,0,0,0-6.78,2.26c-.79.42-1.57.87-2.33,1.35l0,0a28.78,28.78,0,0,0-5.7-1.86,42,42,0,0,0-15.42-.38c5.52-5.85,12.11-11.23,19.57-14.4A14.88,14.88,0,0,1,744.48,641.41Zm-2.32-5.32a36.24,36.24,0,0,1,5-1c11.46-1.35,20.3,4.34,29.66,9.56h-1.13c-1.85,0-3.71.13-5.56.33a74.27,74.27,0,0,0-17.32,3.91,14.86,14.86,0,0,0-.87-4.1,14,14,0,0,0-5.17-6.85A13.77,13.77,0,0,0,742.16,636.09Zm63.08,10.63a14.49,14.49,0,0,0-7.2-5.39,13.22,13.22,0,0,0-5.25-.53,128.23,128.23,0,0,0,13-14.74,10.53,10.53,0,0,1,3.75-.26c2.74.35,4.92,2.75,7.28,4a12.24,12.24,0,0,0,4.1,1.32A99.86,99.86,0,0,1,805.24,646.72Zm11-24.17a11.08,11.08,0,0,0-7.1-1A146.88,146.88,0,0,0,818.53,606c.34-.13.68-.28,1-.39,2.55-.74,5.12-.21,7.59.56,2.76.86,5.79,1.66,8.63.63l.45-.19a124.75,124.75,0,0,1-9.64,16.93,22.75,22.75,0,0,1-3.19,1C820.61,625.18,818.59,623.72,816.2,622.55Zm-3.73-134.06a30.6,30.6,0,0,1,7.6,2.87,25.68,25.68,0,0,0,3.11,4.21,26.73,26.73,0,0,0,3.47,3.15,21.52,21.52,0,0,0-11,2.48,18.42,18.42,0,0,0-2.53,1.71,45.68,45.68,0,0,1-6.67-14.66A15,15,0,0,1,812.47,488.49Zm-7.33-8a52.08,52.08,0,0,1,.19-10.56,52.88,52.88,0,0,1,1.53-7.77c2.82,5.35,6.13,11.58,10,18.87a21.62,21.62,0,0,0,.47,3.43C813.52,482.09,809.15,480.38,805.14,480.45ZM819.76,505c3.21-2.51,7.17-3.33,11.15-3.47a37.85,37.85,0,0,0,5.43,2.38c-2.62,4.05-3.87,10.15-3.32,15.6A50,50,0,0,1,817.11,508,11,11,0,0,1,819.76,505Zm24.66,10.34c.6.38.88.95,1.39,1.4a4.94,4.94,0,0,0,1.38.82,6.32,6.32,0,0,0,4.12.22c2.62-.74,4.64-3.1,6.28-5.12a30.6,30.6,0,0,1,4.85-4.87,16.28,16.28,0,0,1,2.22-1.45l.45.24a2.38,2.38,0,0,1,.83,3.19c-1.49,2.94-3,5.88-4.46,8.83a25.11,25.11,0,0,1-3.84,2.13c-3.73,1.7-7.72,2.75-11.37,4.64a28,28,0,0,0-8.34,6.55c.08-.48.16-1,.25-1.45.51-2.82,1.1-5.61,1.81-8.32.07-1.36.18-2.7.32-4,.45-1.08.91-2.16,1.44-3.21.67-1.35,1.39-2.68,2.16-4a19.26,19.26,0,0,1,11.7-7.65,23.33,23.33,0,0,1,5.53,1.43,42.75,42.75,0,0,0-4.83,2.74c-1.91,1.2-4,2.41-5.67,3.68-1,.76-1.82,1.61-2.74,2.39-.71.61-2.16,1.69-3.12,1.2A.36.36,0,0,0,844.42,515.33Zm26.49-9.46a44.89,44.89,0,0,0,11.65-3.73,13.16,13.16,0,0,1,1.94,10.46c-.61,2.53-2,4.71-2.9,7a60.94,60.94,0,0,1-13.8,4.15A29.21,29.21,0,0,0,870.91,505.87Zm20,34.54a193.63,193.63,0,0,0,24-4.95c4.51-1.21,9-2.59,13.42-4.06l4.06-2-8.89,39.82-15.42-3.48L872.79,558l-8.36-1.83q1-5.22,1.9-10.48a29.39,29.39,0,0,0,.4-4.05A147.2,147.2,0,0,0,890.89,540.41Zm23.27-63.11c-.06.5-.1,1-.17,1.48a49.54,49.54,0,0,1-5.64,17,14,14,0,0,0-4.89-4.87,14.26,14.26,0,0,0-7.64-1.87,23.4,23.4,0,0,0,1.86-6.66C902.22,478.34,908.43,476.17,914.16,477.3Zm-13-2.53c4.18-7.83,7.61-14.31,10.38-19.63a47,47,0,0,1,3,16.35,24.41,24.41,0,0,0-6.29.44A22.67,22.67,0,0,0,901.12,474.77Zm-1.39,20.17c2.47,2.16,2.42,4.9,3,7.86a3.59,3.59,0,0,0,.28.78,55.16,55.16,0,0,1-11.47,10.52,20.6,20.6,0,0,0-.58-6.16,13.68,13.68,0,0,0-5.06-7.7,28.16,28.16,0,0,0,5.56-4.67,25,25,0,0,0,2.32-3A10.31,10.31,0,0,1,899.73,494.94Zm17.59,114.23-.6-1.68c-2,7.34-7.31,26.89-8.25,27.39q-4.22.78-8.36,1.66c-9.43,2-18.58,5.11-28.16,6.54-13.84,2.06-29,1.69-42.44-3a120.12,120.12,0,0,0,17.78-27.16,184.75,184.75,0,0,0,8.05-20.44l60.26,11.92-1.05-2.93,1.05,2.93,1.85.37-.73,2.73Zm-46.6,63-.2.19-.55.55a85.4,85.4,0,0,1-8.26,7.54c-.56.42-1.07.87-1.6,1.3q-2-6.6-3.94-13.19a128.94,128.94,0,0,0,13-.62C869.7,669.34,870.22,670.75,870.72,672.16Zm-27.33-98.92a31.74,31.74,0,0,1-8.93,3.74,19.64,19.64,0,0,0-5.43,2.27c.47-1.76.93-3.53,1.36-5.31,1-4.18,1.9-8.39,2.75-12.61,3.37-2.58,7.77-4.1,11.78-5.29a48.13,48.13,0,0,0,5.61-1.79c.18-.08.34-.19.51-.28-.81,5.29-1.74,10.56-2.84,15.8C846.62,571,845.06,572.18,843.39,573.24Zm-2.19-39.71a48.16,48.16,0,0,1,9.95-5.46,54.78,54.78,0,0,0,7.42-3.53c-1.6,3.32-3.15,6.66-4.62,10-.62,3.4-1.13,6.82-1.61,10.24-.79.81-1.59,1.6-2.41,2.37-1.28,1.18-2.89,1.58-4.47,2.19a53.46,53.46,0,0,0-5.69,2.52,25.31,25.31,0,0,0-5.55,4q.6-3.18,1.15-6.38l-.15-.37c.58-3.87,1.15-7.74,1.77-11.61A26.08,26.08,0,0,1,841.2,533.53Zm-13.77,51.4c.34-.25.7-.49,1.07-.71,3-1.72,6.47-1.55,9.76-2.13a17.4,17.4,0,0,0,8-3.78c-1.29,5.07-2.78,10.09-4.54,15-.27.75-.56,1.5-.84,2.25-2.21,1.62-4.24,4-6.76,5.11-2.28,1-5,.18-7.37,0A12.13,12.13,0,0,0,820.6,602q2.76-5.62,5.08-11.46C826.3,588.65,826.87,586.8,827.43,584.93Zm3.45,81.23c1.07,0,2.14,0,3.2,0q3.67.79,7.38,1.32,2.61,9.33,5.11,18.71a9.46,9.46,0,0,0-4.68,1,28.45,28.45,0,0,0-9.14-3,47.73,47.73,0,0,0-9.32-.49C826.25,678.11,828.51,672,830.88,666.16ZM936.22,503c-4.49,1.22-8.86,2.84-13.34,4.39-5.07,1.77-10.21,3.42-15.41,4.88a67.18,67.18,0,0,0,8.27-8.34c13.41-16.19,25-44.81,13.48-64.84a13.42,13.42,0,0,0-2.59-3.21c3.65-1.41,6.79-.58,10.86,2.26a85.29,85.29,0,0,1,9.84,8c.23.23.46.47.69.69Zm-141-63.7c.42.89.89,1.87,1.42,2.95-3,7.19-6.72,13.7-7,22.29-.38,10.69,3,21.42,8.14,30.69a56.62,56.62,0,0,0,5.53,8.12c-2.82-1-5.63-1.94-8.45-2.94-13.58-4.85-27.42-8.24-41.31-12-5.6-1.52-10.64-3.57-15.59-5.23,2.3-4,4-8.55,6-12a96.47,96.47,0,0,1,16-21.35c6.53-6.31,16.07-5.93,24.56-7.44C786.07,442.05,791.72,441.17,795.18,439.26ZM751,501.5c5.74,2.79,11.27,6.32,16.83,9.47,4.89,2.77,9.87,5.34,14.92,7.76l4.45,2.09c6.53,3,13.16,5.76,19.86,8.4,5.6,2.2,11.38,4.13,17.26,5.8-.49,2.89-1,5.85-1.56,8.84a7.22,7.22,0,0,0-3.28,2.52l-22.63-4.94L790.15,540l-1.45,6.61c-2.79-2.2-5.47-4.5-8.07-6.88-7.93-7.25-15.17-15.14-23-22.67A201.8,201.8,0,0,0,737,499.61,21.33,21.33,0,0,1,751,501.5Zm-11.08,20.25c2.49,3.71,5.07,7.38,7.91,10.89,10,12.32,22.68,22.74,35.62,31.78.4.29.82.55,1.23.83l-2.45,11.25,26.72,5.83a133.28,133.28,0,0,1-18.34,33.27c-4.76-3.66-9.49-7.32-14.29-10.72-7.67-5.45-15.5-11.83-23.94-16-5.75-2.87-10.79-5.25-15.79-9.59L724,568.36c-.94-.81-2.32.55-1.38,1.37l13.64,11.94c4.68,4.09,7.08,8.45,10.58,13.42,5.91,8.41,13.81,15.89,20.85,23.35,3.36,3.56,6.73,7.26,10.16,10.95-1.34,1.22-2.72,2.38-4.13,3.53l-.09-.11c-16.6-16.37-38.83-9.79-55.46,3a490.66,490.66,0,0,1-87.11-28.63s19.47-51.14,39.8-79.88c.52-1.09,1.07-2.17,1.62-3.24,6.08-3.44,12.58-6.33,18.45-9.27,11.6-5.81,23.35-8.78,35.62-12.4C731.38,508.58,735.5,515.23,739.87,521.75ZM830.18,997.4h-55.9l-.25-5.88a6.76,6.76,0,0,0,2.71-.95c33.9-21.49,51.3-53.84,59.85-89.78,4.71-.25,9.42-.55,14.11-.95Zm24.17-114.9q-7.15.69-14.36,1.13.88-5.5,1.56-11.08,7.59-.48,15.15-1.21Zm6-28.66q-8.58,1-17.22,1.55c1.58-23.09,1-46.41,0-68.3,5.14-3.34,9.48-8.87,13.82-12.76q4.71-4.23,9.35-8.48,3.32,14.16,6.55,28.36ZM878.31,997.4c1.31-17.34,8-58.73,16.1-103.48a9,9,0,0,0,1-.4c7.89,34.59,15.53,69.32,23.71,103.88Zm115.77,0-1.55.41H937l-.09-.41h0c-8.48-35.79-16.26-71.79-24.14-107.74l-9.55-42.59c8.39-43.11,16.88-82.65,22-99.92l3.75,3.33c-.39-.46-.79-.93-1.19-1.38-.77-.87-1.59-1.66-2.42-2.43.73-2.45,1.39-4.42,2-5.87a15.9,15.9,0,0,0,11.84-.16,10.74,10.74,0,0,0,5.59-5.18,11.61,11.61,0,0,0,1.18-6.57,17.58,17.58,0,0,0,.23-2.7,5.06,5.06,0,0,1,0-.58,26,26,0,0,0-.07-5.79c-.07-.73-.17-1.45-.27-2.12h0a3,3,0,0,0,1.43-1.71,13.22,13.22,0,0,0,1.31-2.37c.84,1,1.74,2.09,2.78,3.16q7.36,7.59,14.93,15c10.06,9.83,20.14,19.64,30.59,29a322.53,322.53,0,0,0,33.48,26c11.65,7.93,24.12,13.32,36.47,19.8,1.16.61,2.55-1,1.46-2-10.24-9.32-19.39-19.87-29.75-29.09s-20.91-18.6-31.6-27.6-21.37-18.24-31.56-28q-7.65-7.29-15.1-14.79a44.52,44.52,0,0,0-11.09-7.91,7.3,7.3,0,0,0,.19-.93,14.69,14.69,0,0,0,2.28-3.87c2-5.19.56-11.91.06-13.84,0-.2-.1-.39-.15-.59l.13-.15c3.65-4.22,3.71-8.72,3.46-13a40,40,0,0,0-1.15-6.94l-.26-1.1c-.14-.6-.28-1.2-.43-1.81a597.23,597.23,0,0,0,84.48-22.65l24.17,5.28c.53,1.93,1.08,3.85,1.6,5.79,1.3,6.22,2.48,12.48,4,18.66,4,21.91,8.77,43.64,12.14,65.67,2.37,15.5,4.62,31,7.51,46.36,2.8,15,5.39,30,7.49,45s2.29,30.36,4.09,45.49c.39,3.25.69,6.56,1.26,9.78q.54,5.14,1.07,10.29,2.39,23.36,4.69,46.71,3.29,33,6.66,66ZM967.52,617l38.12,8.32c-15.24,4.34-33.37,8.84-53.84,12.74-.22-1.27,4.05-23.31,4.05-23.31l11.75,2.49A2.25,2.25,0,0,0,967.52,617ZM963,578.09l3.5-13.74L977,511.23a207.36,207.36,0,0,1,39.87,31.64,205,205,0,0,1,38.75,55.07l-12.22-2.66-61.83-13.5Zm156.22,97.51V829.08c-.61-2.26-1.2-4.52-1.83-6.77-10.71-58.52-21.16-117.11-32.19-175.57a7.74,7.74,0,0,0,1.24-2.47l.09,0c.1-.44.19-.88.28-1.32l15.11,3.3,8-36.51-16.71-3.65a8.69,8.69,0,0,0-3.45-5,32,32,0,0,0-4.18-8.48c-1-1.49-2-2.94-3-4.31q-9.25-13.29-18.83-26.32c-11.81-16.09-22.87-33.42-37.36-47.27-8-7.66-17.19-13.45-26.7-18.77-.37-8-7.66-16.48-11.63-22.91q-1.29-2.07-2.61-4.13l5.49-27.57,1-5.21,6-30.33-34.28-8.36-5.05-1.23-7.18,34.11a51.44,51.44,0,0,0-9.24-5.32c-5.55-2.39-9.94-1.41-13.65,1.24,0-.16,0-.31.06-.43a21.75,21.75,0,0,1,6.23-6.61l.61-.46,4.15-25.18,0-.11c-.69-5.49-6.4-9.27-9.35-10.87a100.11,100.11,0,0,0,2.51-19.75c3.16-4.11,5.26-11-2-20.73a52.09,52.09,0,0,0-3.37-10.46l-.21-.39c-23.27-39-62.33-39.59-69.87-39.33-7.55-.27-46.65.37-69.94,39.36l-.2.39a36.86,36.86,0,0,0-1.74,4.51c-.56.93-1.1,1.88-1.63,2.84-5.18,5.82-7.69,11.29-7.4,16.27A14.7,14.7,0,0,0,782,365.7a101.1,101.1,0,0,0,2.4,17c-2.95,1.6-8.66,5.38-9.36,10.87v.11l4.15,25.18.61.46a21.88,21.88,0,0,1,6.23,6.61,19.58,19.58,0,0,0,.51,2.44c-4.28-.68-8.73-.74-11.4-1-11.07-1.09-20.39,1.4-28.32,9.32a118.1,118.1,0,0,0-18.16,24.08c-3.22,5.53-7.49,12.64-8.21,19.53a33.51,33.51,0,0,0-9.16,2,95.23,95.23,0,0,0-34.43,22.34l-.35.37-2.11.34c-.78.78-1.56,1.56-2.32,2.35-29.84,30.67-48.44,69.9-65,109.09a21.1,21.1,0,0,0,0,4.13c-.08.46-.15.92-.23,1.39-1.32,8.67-1.24,19.57,2.87,26.3l.16-.13q.27.42.57.81C603.8,668.36,596,695.16,594,720.35c0,0-10.29,84.18-11.5,90.84l6.42-149.59c2-102.85,16.76-199.35,44-287,22.78-73.23,54.27-140.52,93.6-200,48.3-73,100.35-120.73,127.23-140.44,26.84,21.19,79.1,71.63,127.58,146.29a802.14,802.14,0,0,1,70.22,135.18l27.74,79.31c25.68,86.53,39.15,180.17,40,278.62Z"/><path class="cls-2" d="M820.77,393l.53-.11-.3,0Z"/><path class="cls-2" d="M794.55,402.49a4.81,4.81,0,0,0-.72-2.05,4.09,4.09,0,0,0-.53-1,14.68,14.68,0,0,0-2-1.82,28,28,0,0,1-2.65-3.86.49.49,0,0,0-.76-.09c-1.33,1.26-1.31,3.17-.65,4.83a6.88,6.88,0,0,0,1.61,2.31,10.88,10.88,0,0,1,1,1,5.46,5.46,0,0,0,0,.56s0,.19,0,.32a4.91,4.91,0,0,0-.44,1.34c-.13.71-.24,1.42-.33,2.14a14.52,14.52,0,0,0,.11,4.11,9.73,9.73,0,0,0,2.24,4.57,19.79,19.79,0,0,0,1.47,1.57.41.41,0,0,0,.63-.5,6,6,0,0,1-.69-3.19,22.41,22.41,0,0,1,.33-2.92,23.12,23.12,0,0,1,.78-3.21c.18-.56.47-1.1.62-1.66a3.42,3.42,0,0,0-.12-2.15Z"/><path class="cls-2" d="M920.61,406.53a24.63,24.63,0,0,1,.78,3.21,22.41,22.41,0,0,1,.33,2.92,6,6,0,0,1-.69,3.19.41.41,0,0,0,.63.5,18.1,18.1,0,0,0,1.47-1.57,9.73,9.73,0,0,0,2.24-4.57,14.52,14.52,0,0,0,.11-4.11c-.09-.72-.2-1.43-.33-2.14a4.91,4.91,0,0,0-.44-1.34c0-.13,0-.29,0-.32a5.46,5.46,0,0,0,0-.56,10.88,10.88,0,0,1,1-1,6.88,6.88,0,0,0,1.61-2.31c.66-1.66.68-3.57-.65-4.83a.49.49,0,0,0-.76.09,28,28,0,0,1-2.65,3.86,14.68,14.68,0,0,0-2,1.82,4.09,4.09,0,0,0-.53,1,4.66,4.66,0,0,0-.71,2.05,1.57,1.57,0,0,0,0,.23,3.42,3.42,0,0,0-.12,2.15C920.14,405.43,920.43,406,920.61,406.53Z"/><path class="cls-2" d="M890.71,378.88l-.29.1.4-.07Z"/><path class="cls-2" d="M865.7,405.55a84.52,84.52,0,0,0,1.29,9.88,35.48,35.48,0,0,0,1.29,5,42.26,42.26,0,0,1,1.92,4.91c0,.06.1,0,.09,0a9.54,9.54,0,0,1-.07-1.93c0,.36.07.69.11,1a.45.45,0,0,0,0,.11s0,0,0,0a18.76,18.76,0,0,0,.24,1.88c0-.23.25-1.72.66-4,1.09-3.17,2.2-6.33,3.12-9.57.59-2,1.14-4.09,1.69-6.14.11-.41.21-.82.28-1.24.68.92,1.39,1.81,2.14,2.65a9.53,9.53,0,0,0,5.35,2.92,13.33,13.33,0,0,0,6.37-.11,13.77,13.77,0,0,0,2.74-1.1c1-.54,1.88-1.3,2.87-1.87a.19.19,0,0,0-.19-.33,11.18,11.18,0,0,1-5.41.9,20.79,20.79,0,0,1-5.49-.72c-1.6-.47-3.11-1.19-4.7-1.7a9.17,9.17,0,0,1-3.63-2.24c-.12-.94-.45-1.85-.65-2.77,0-.11,0-.23-.05-.34.38-.17.75-.34,1.15-.49a26.42,26.42,0,0,1,3.86-1.15c.54-.12,1.08-.22,1.63-.3a5.36,5.36,0,0,0,2.37,3.71,6.09,6.09,0,0,0,2.17.75h-7.13s9.44,5.34,18.52,0h-7a5.27,5.27,0,0,0,1.82-1,6.51,6.51,0,0,0,2.12-3.1s0,0,0,0a15.64,15.64,0,0,0,2.37-.06,15.35,15.35,0,0,0,4.51-1.32,41.5,41.5,0,0,0-5.45-2.55l-.95-.17a25.79,25.79,0,0,0-2.88-.72,57,57,0,0,0-6.65-.72,65.22,65.22,0,0,0-6.85,0c-.54,0-1.07.08-1.6.12-.26-.1-.52-.18-.79-.27l-.21-.07h0l-.13-.06-.28-.14c-.75-.36-1.47-.76-2.2-1.14a19.66,19.66,0,0,0,4.39-1.13c1.5-.42,3-.83,4.55-1.1a25.45,25.45,0,0,1,3.68-.35c1.21-.46,2.4-.94,3.55-1.47,3.26-1.49,6-3.42,9.48-4.25a48.16,48.16,0,0,1,5.46-.78c.08-.49.17-1,.27-1.48-.17,0-.34-.1-.52-.13a47,47,0,0,0-8.19-1,52.4,52.4,0,0,0-13.14,1.19,19.12,19.12,0,0,1-9.57,1.28,11.75,11.75,0,0,0-5.66.29,3.65,3.65,0,0,0-1,.66,1.59,1.59,0,0,0-1.71,1.34,61.44,61.44,0,0,0-.39,10.24C865.29,398.75,865.41,402.15,865.7,405.55Z"/><path class="cls-2" d="M808.12,382.55c.72.05,1.43.12,2.15.22,1.66.23,3.35.24,5,.56a41.23,41.23,0,0,1,4.25,1.06c1.62.5,2.86,1.64,4.38,2.36l2.39,1.12a2.11,2.11,0,0,1,1.76.76,46.05,46.05,0,0,0,4.85,1.77c1.81.31,3.63.61,5.46.78h.06c.16.15.32.28.47.43.75.73,1.46,1.5,2.18,2.26-3.55,0-7.07-.34-10.62-.48-1,0-2-.08-3-.1a36.86,36.86,0,0,0-4.34-.42,19,19,0,0,0-3,.94c-1.25.53-2.47,1.12-3.7,1.71-.93.44-1.84.93-2.75,1.41-.4.31-.8.62-1.18.95-.09.08-.16.17-.24.25a.39.39,0,0,0,.34.12,69.37,69.37,0,0,1,7.21-.4l1.19,0c0,.11,0,.22,0,.33a5.54,5.54,0,0,0,2.49,4.4,6.16,6.16,0,0,0,2.17.75h-6.93s9.43,5.34,18.52,0H830a5.32,5.32,0,0,0,1.81-1,6.44,6.44,0,0,0,2.12-3.1,3,3,0,0,0,.09-.32c1.13.27,2.27.55,3.38.91a36,36,0,0,0,3.49,1.21,1.6,1.6,0,0,0,1.86-1,17.65,17.65,0,0,1,1.45-2.52c.27.33.53.66.8,1s.68.77,1,1.16c.16.17.31.35.46.52s.51.58.77.86.5.48.71.74c0,.06,0,.12,0,.18s.15.17.26.15.4-.09.32-.29a1.68,1.68,0,0,1-.06-.24.28.28,0,0,0,0-.24.21.21,0,0,1,0-.07,13.92,13.92,0,0,0,.14-1.71,11.75,11.75,0,0,0-.21-2,23.62,23.62,0,0,0-.89-3.5c-.09-.3-.18-.61-.28-.91-.31-.91-.64-1.81-1-2.72l-.51-1.44-.56-1.65-.26-4-2.23-.55a19.69,19.69,0,0,1-6.4-.14,66.93,66.93,0,0,1-7.86-2.71,87.17,87.17,0,0,0-11.28-1,51.75,51.75,0,0,0-9.58,2.43l-.69,1.41a2.91,2.91,0,0,0,.59.1A.71.71,0,0,0,808.12,382.55Z"/><path class="cls-2" d="M838.84,403.15a12.19,12.19,0,0,1-1.79,1.66,8.79,8.79,0,0,1-2.42,1.29c-.75.25-1.5.54-2.25.83s-1.72.64-2.6.9a20.73,20.73,0,0,1-5.32.71H824a14.4,14.4,0,0,1-3.2-.25,6.8,6.8,0,0,1-1.89-.64.19.19,0,0,0-.2.33c.95.54,1.78,1.25,2.72,1.79a13.79,13.79,0,0,0,2.73,1.13h0a13.45,13.45,0,0,0,6.52.15,9.4,9.4,0,0,0,5.26-2.83c.41-.44.79-.93,1.18-1.4a28.31,28.31,0,0,0,2.34-3.21C839.68,403.25,839.14,402.82,838.84,403.15Z"/><path class="cls-2" d="M877.07,463.15l-2,1.47-12.49-4.4-.07.07c-4.68,4.61-9.33-.07-9.74-.07-.13,0-1.34.46-2.93,1.09-3.3,1.3-8.21,3.31-8.21,3.31a8.16,8.16,0,0,0-1.95-1c-.14,0-.23,0-.2.14.71,3.69,6.18,4.41,6.18,4.41h22.68c9.46-.38,8.75-5.06,8.75-5.06Z"/><path class="cls-2" d="M864.22,475.31a14.56,14.56,0,0,0-1.66-.61,18.08,18.08,0,0,0-11.68.61l-.1-.07-4.94-3.86-.13-.11c1,9,5.36,8.77,5.36,8.77h14c3.35-2.46,4.51-8.29,4.89-9.12l-.37.32C868.26,472.35,864.22,475.31,864.22,475.31Z"/><path class="cls-2" d="M847.43,440.91a3.84,3.84,0,0,1,0,.48c0,.26-.13.48-.13.75,0,.06-.08.06-.1,0-.11-.27-.32-.49-.44-.76s-.14-.42-.21-.63q-.22-.67-.42-1.35c-.25-.91-.49-1.82-.69-2.74a20.26,20.26,0,0,1-.38-2,1.61,1.61,0,0,0-.31.19,8.14,8.14,0,0,0-2.27,2.81,12.93,12.93,0,0,0-.92,4c0,.08,0,.15,0,.23a7.54,7.54,0,0,0,.81,3.74l0,.07a6.33,6.33,0,0,0,1.52,2.17c.6.87,1.19,1.69,1.25,1.78a31.43,31.43,0,0,1,3.54-1.44l.38.47,3.81,4.79.24.3.37.17a10.1,10.1,0,0,0,2.82.75l.35,0c.22,0,.43,0,.65,0s.45,0,.66,0l.37,0a10.1,10.1,0,0,0,2.8-.75l.37-.17.25-.3.78-1,3.4-4.28,3.52,1.47s.54-.75,1.11-1.58a5.86,5.86,0,0,0,1.77-2.33l.06-.14a7.44,7.44,0,0,0,.81-3.74v-.23a12.69,12.69,0,0,0-.93-4,8,8,0,0,0-2.26-2.81,1.71,1.71,0,0,0-.52-.31c0,.35-.12.69-.19,1s-.09.46-.13.69a10.21,10.21,0,0,1,.85.9,4.8,4.8,0,0,1,.65,1,4.8,4.8,0,0,0-.65-1,10.21,10.21,0,0,0-.85-.9c-.05.26-.09.52-.15.77a15,15,0,0,1-1,2.78c-.13.54-.25.95-.31,1.12v.1a1.55,1.55,0,0,0-.23-.05c-.17.35-.34.71-.5,1.06-.06.13-.23,0-.21-.08s.07-.47.1-.71,0-.26.05-.39h-.11a7.36,7.36,0,0,0-.82-.06,9.34,9.34,0,0,0-1.8.2l-.65.13-.38.48-.66.82c-1,1.2-1.95,2.4-2.45,3a14,14,0,0,1-2.43.44l-.24,0H857a3,3,0,0,1-1.38-.25l-4.35-4.22-.38-.36-.54-.1a8.67,8.67,0,0,0-1.62-.17h-.14A6.13,6.13,0,0,0,847.43,440.91Zm18.62,1.38.28,0a4.58,4.58,0,0,0-.64,0Zm-5.68,10.28,2.19-2.75-2.19,2.75-.16.07Zm-2.25.6a7,7,0,0,0,.71-.12,7,7,0,0,1-.71.12l-.28,0Zm-1.56,0,.28,0-.28,0a5.77,5.77,0,0,1-.67-.12A5.77,5.77,0,0,0,856.56,453.17Zm-7.88-10.88h0l.16,0h-.2Z"/><path class="cls-4" d="M1113.56,1061.76c.89.42,1.76.85,2.61,1.3C1115.31,1062.6,1114.44,1062.17,1113.56,1061.76Z"/><path class="cls-4" d="M1119.23,1064.82a49.8,49.8,0,0,1,9.72,7.75A45.7,45.7,0,0,0,1119.23,1064.82Z"/><polygon class="cls-4" points="905.1 1139.43 950.95 1139.43 928.35 1079.04 905.1 1139.43"/><path class="cls-4" d="M1088.49,1055.09a90.6,90.6,0,0,0-13.35-.63,123,123,0,0,1,13.35.71Z"/><path class="cls-5" d="M1102.2,1057.68a93.29,93.29,0,0,0-13.71-2.59v.08A92.33,92.33,0,0,1,1102.2,1057.68Z"/><path class="cls-5" d="M1102.38,1057.73c1.12.3,2.22.62,3.3,1C1104.57,1058.35,1103.47,1058,1102.38,1057.73Z"/><path class="cls-4" d="M1088.49,1072.45v-12.58a88.22,88.22,0,0,0-18.41-1.77q-9.3,0-12.13,3.44t-2.84,14v101.15q0,10.53,2.94,14t12.24,3.44q22,0,34.19-8t17-23.37q4.85-15.36,4.85-37.42,0-34-12.44-50.58a34.43,34.43,0,0,0-6.65-6.67v4.43Z"/><path class="cls-2" d="M176.64,1055.07c-3.63,0-7.52-.07-11.7-.2l-12.31-.41v4q8.76.2,13.15,2.73t4.7,8.7q.32,6.16-3.45,17.29l-25.7,78.32-30-90q-2.51-7.89-2-11.33a5.21,5.21,0,0,1,4.17-4.45,44,44,0,0,1,9.92-1.21v-4c-2.92.14-6.75.27-11.48.41s-9.82.2-15.24.2q-5.22,0-10.86-.2c-3.76-.14-6.89-.27-9.39-.41v4a12.32,12.32,0,0,1,6.26,2.63q3.33,2.43,6,10.32l5.55,15.94L69,1165.77,38.43,1075.5a37,37,0,0,1-2.19-9.81,5.56,5.56,0,0,1,2.29-5.16q2.4-1.62,7.83-2v-4c-2.5.14-5.74.27-9.7.41s-8.25.2-12.84.2q-5.85,0-12-.2c-4.1-.14-7.55-.27-10.33-.41v4A17.36,17.36,0,0,1,9,1061.14q4.18,2.43,6.89,10.32L60.14,1198.7h3.34l33.25-104.27L133,1198.7h3.34l39.46-122.59q2.92-9.3,7.72-13a22.19,22.19,0,0,1,8.77-4.55v-4c-2.08.14-4.31.27-6.68.41S180.25,1055.07,176.64,1055.07Z"/><path class="cls-2" d="M242.46,1055.07q-7.89,0-14.76-.2c-4.59-.14-8.3-.27-11.13-.41v4A34.59,34.59,0,0,1,227,1060a7.59,7.59,0,0,1,4.75,4.86q1.22,3.54,1.22,11v100.34c0,4.85-.41,8.5-1.22,10.92A7.29,7.29,0,0,1,227,1192a41.6,41.6,0,0,1-10.42,1.62v4c2.83-.27,6.54-.43,11.13-.5s9.5-.1,14.76-.1q7.08,0,14.06.1c4.66.07,8.53.23,11.64.5v-4a41.52,41.52,0,0,1-10.42-1.62,7.3,7.3,0,0,1-4.76-4.86c-.81-2.42-1.21-6.07-1.21-10.92V1075.91q0-7.48,1.21-11a7.6,7.6,0,0,1,4.76-4.86,34.54,34.54,0,0,1,10.42-1.51v-4c-3.11.14-7,.27-11.64.41S247.18,1055.07,242.46,1055.07Z"/><path class="cls-2" d="M404.91,1171.8q0-10.32.61-16.59h-4.65q-1.42,13.95-4.35,22.25T387,1189.4q-6.58,3.64-19.32,3.64H352.92a37,37,0,0,1-10.42-1.11,7,7,0,0,1-4.75-4.76c-.81-2.42-1.22-6.07-1.22-10.92V1075.91q0-7.48,1.22-11a7.59,7.59,0,0,1,4.75-4.86,34.54,34.54,0,0,1,10.42-1.51v-4q-4.65.21-11.63.41t-14.06.2q-7.89,0-14.77-.2c-4.59-.14-8.3-.27-11.13-.41v4a34.54,34.54,0,0,1,10.42,1.51,7.56,7.56,0,0,1,4.75,4.86q1.22,3.54,1.22,11v100.34c0,4.85-.41,8.5-1.22,10.92a7.27,7.27,0,0,1-4.75,4.86,41.52,41.52,0,0,1-10.42,1.62v4q9.92-.4,21.24-.5t21.35-.1H360q10.11,0,23.06.1t23.27.5q-.81-7.68-1.11-14.87C405,1178,404.91,1174.36,404.91,1171.8Z"/><path class="cls-2" d="M540.05,1171.8q0-10.32.61-16.59H536q-1.41,13.95-4.35,22.25t-9.5,11.94q-6.58,3.64-19.32,3.64H488.06a37,37,0,0,1-10.42-1.11,7,7,0,0,1-4.75-4.76c-.81-2.42-1.22-6.07-1.22-10.92V1075.91q0-7.48,1.22-11a7.56,7.56,0,0,1,4.75-4.86,34.54,34.54,0,0,1,10.42-1.51v-4q-4.67.21-11.63.41t-14.06.2q-7.89,0-14.77-.2c-4.59-.14-8.3-.27-11.13-.41v4a34.59,34.59,0,0,1,10.42,1.51,7.59,7.59,0,0,1,4.75,4.86q1.22,3.54,1.22,11v100.34c0,4.85-.41,8.5-1.22,10.92a7.29,7.29,0,0,1-4.75,4.86,41.6,41.6,0,0,1-10.42,1.62v4q9.91-.4,21.24-.5t21.34-.1h16.09q10.11,0,23.06.1t23.27.5q-.81-7.68-1.12-14.87C540.15,1178,540.05,1174.36,540.05,1171.8Z"/><path class="cls-2" d="M675.19,1171.8a136.61,136.61,0,0,1,.61-14.57h-4.66q-1.41,13.35-4.35,21.14a20,20,0,0,1-9.51,11.23q-6.57,3.45-19.32,3.44H623.2a37,37,0,0,1-10.42-1.11,7,7,0,0,1-4.76-4.76c-.81-2.42-1.21-6.07-1.21-10.92V1127.7h13.35q8.91,0,12.65,3.94a19.28,19.28,0,0,1,4.85,10.12q1.11,6.16,1.92,12.64h4.66q-.81-11.54-1-17.6t-.2-11.13q0-5.06-.1-11.12t.71-17.6H639q-.81,4.85-1.82,11.12A24.13,24.13,0,0,1,632.6,1119q-3.54,4.65-12.44,4.65H606.81v-47.74q0-7.48,1.21-11a7,7,0,0,1,4.76-4.65,36.9,36.9,0,0,1,10.42-1.12H640q10.71,0,16.08,2.94t7.59,9.91a97.28,97.28,0,0,1,3.44,18.92h4.65c-.14-1.49-.27-3.34-.4-5.57s-.21-4.55-.21-7,.1-5.66.31-10.11.57-9,1.11-13.76q-9.31.4-21.14.51t-21.14.1H614.19q-10,0-21.34-.2t-21.24-.41v4A34.59,34.59,0,0,1,582,1060a7.59,7.59,0,0,1,4.75,4.86q1.22,3.54,1.22,11v100.34c0,4.85-.41,8.5-1.22,10.92A7.29,7.29,0,0,1,582,1192a41.6,41.6,0,0,1-10.42,1.62v4q9.92-.4,21.24-.5t21.34-.1h16.09q10.11,0,23.06.1t23.26.5c-.54-5.12-.9-10.08-1.11-14.87S675.19,1174.36,675.19,1171.8Z"/><path class="cls-2" d="M821.25,1055.07q-6.88,0-14-.2t-11.73-.41v4A34.59,34.59,0,0,1,806,1060a7.61,7.61,0,0,1,4.75,4.86q1.21,3.54,1.21,11v47.74H746.2v-47.74q0-7.48,1.21-11a7.59,7.59,0,0,1,4.75-4.86,34.59,34.59,0,0,1,10.42-1.51v-4q-4.65.21-11.63.41t-14.06.2q-7.89,0-14.77-.2c-4.58-.14-8.29-.27-11.12-.41v4a34.52,34.52,0,0,1,10.41,1.51,7.6,7.6,0,0,1,4.76,4.86q1.22,3.54,1.21,11v100.34c0,4.85-.4,8.5-1.21,10.92a7.3,7.3,0,0,1-4.76,4.86,41.5,41.5,0,0,1-10.41,1.62v4c2.83-.27,6.54-.43,11.12-.5s9.51-.1,14.77-.1q7.08,0,14.06.1t11.63.5v-4a41.6,41.6,0,0,1-10.42-1.62,7.29,7.29,0,0,1-4.75-4.86c-.81-2.42-1.21-6.07-1.21-10.92V1127.7h65.74v48.55c0,4.85-.4,8.5-1.21,10.92A7.31,7.31,0,0,1,806,1192a41.6,41.6,0,0,1-10.42,1.62v4q4.65-.4,11.73-.5t14-.1q7.89,0,14.77.1c4.58.07,8.29.23,11.13.5v-4a41.43,41.43,0,0,1-10.42-1.62,7.3,7.3,0,0,1-4.76-4.86c-.81-2.42-1.21-6.07-1.21-10.92V1075.91q0-7.48,1.21-11a7.6,7.6,0,0,1,4.76-4.86,34.49,34.49,0,0,1,10.42-1.51v-4c-2.84.14-6.55.27-11.13.41S826.51,1055.07,821.25,1055.07Z"/><path class="cls-2" d="M986.53,1180.7l-49.36-127.25h-3.24l-47.54,122.6q-3.43,9.1-7.69,12.84a20.35,20.35,0,0,1-8.29,4.76v4a64.21,64.21,0,0,1,6.57-.5q3.54-.11,8.6-.1,5.26,0,11.43.1t11.84.5v-4q-8.51-.21-13-2.84t-4.65-8.8q-.21-6.16,4-17.09l8.26-21.44h48.92l12.41,33.17q4.05,10.32,1.22,13.46T953,1193.65v4c2.83-.27,6.54-.43,11.13-.5s9.5-.1,14.76-.1q5.86,0,11.74.1c3.91.07,7.21.23,9.91.5v-4a15,15,0,0,1-7.08-2.73Q989.57,1188.39,986.53,1180.7Zm-81.43-41.27L928.35,1079l22.6,60.39Z"/><path class="cls-2" d="M1119.23,1064.82c-.17-.11-.34-.22-.52-.32-.84-.5-1.68-1-2.54-1.44s-1.72-.88-2.61-1.3l-.59-.29q-2.81-1.26-5.64-2.23l-.1,0V1068a34.43,34.43,0,0,1,6.65,6.67q12.45,16.59,12.44,50.58,0,22.05-4.85,37.42t-17,23.37q-12.15,8-34.19,8-9.32,0-12.24-3.44t-2.94-14V1075.5q0-10.51,2.84-14t12.13-3.44a88.22,88.22,0,0,1,18.41,1.77v-4.7a123,123,0,0,0-13.35-.71q-5.67,0-14.57.2t-16,.41q-6.67.2-13.55-.1t-11.13-.51v4a34.59,34.59,0,0,1,10.42,1.51,7.59,7.59,0,0,1,4.75,4.86q1.22,3.54,1.22,11v100.34c0,4.85-.41,8.5-1.22,10.92a7.29,7.29,0,0,1-4.75,4.86,41.6,41.6,0,0,1-10.42,1.62v4c2.83-.27,6.54-.43,11.13-.5s9.23-.1,14-.1q6.46,0,15.17.3t13.15.3q23.27,0,39.65-9.1a61,61,0,0,0,25-25.59q8.6-16.49,8.59-38.54,0-33.78-17.6-51.89A49.8,49.8,0,0,0,1119.23,1064.82Z"/><path class="cls-2" d="M1102.38,1057.73l-.18,0a92.33,92.33,0,0,0-13.71-2.51v4.7a46.5,46.5,0,0,1,18.74,8.15v-8.81l-1.55-.51C1104.6,1058.35,1103.5,1058,1102.38,1057.73Z"/><path class="cls-2" d="M1116.17,1063.06c.86.46,1.7.94,2.54,1.44C1117.89,1064,1117,1063.52,1116.17,1063.06Z"/><path class="cls-2" d="M1107.33,1059.24q2.84,1,5.64,2.23C1111.17,1060.65,1109.28,1059.92,1107.33,1059.24Z"/><path class="cls-2" d="M1102.2,1057.68l.18,0Z"/></g></g></svg>